<svg width="1366" height="533" viewBox="0 0 1366 533" fill="none" xmlns="http://www.w3.org/2000/svg">
<path d="M0 22.5012C1.79162 22.859 3.56152 23.2632 5.32945 23.6669C9.39777 24.5961 13.4556 25.5228 17.7433 25.8756C21.0554 26.2131 23.6579 26.888 26.2602 28.2377C27.5183 28.8988 28.7948 29.4939 30.1159 29.9821H45.7943C46.5462 29.7905 47.2934 29.5935 48.0402 29.3967C52.4866 28.2246 56.9169 27.0567 62.2201 27.0567C70.5262 27.0567 79.2584 25.5375 87.608 24.0848C88.0576 24.0066 88.5061 23.9285 88.9533 23.851C93.6849 23.0074 97.7067 23.6822 101.965 25.3695C108.353 27.9003 114.977 27.9003 122.311 26.888C124.318 26.6086 126.336 26.2425 128.362 25.8749C136.124 24.4666 144.003 23.0368 151.883 26.3818C153.539 27.0567 156.141 27.0567 158.034 26.5505C161.921 25.5864 165.807 25.4831 169.694 25.3798C171.249 25.3385 172.803 25.2972 174.358 25.2008C176.295 25.0752 178.232 24.908 180.173 24.7406C186.054 24.2332 191.968 23.7229 198.016 24.3571C200.145 24.5259 203.93 24.0197 204.64 23.0074C208.898 17.4395 215.759 16.5959 223.566 16.0898C223.85 16.0729 224.132 16.0543 224.412 16.0359C226.922 15.8704 229.221 15.7188 231.136 16.9334C232.793 17.9457 234.685 18.2831 236.814 18.2831C239.535 18.3675 242.256 18.5362 244.976 18.705C247.697 18.8737 250.418 19.0424 253.138 19.1268C257.633 19.2955 261.655 18.4519 264.731 15.7523C266.15 14.4025 268.043 14.0651 270.172 13.7277C275.14 13.0528 279.872 13.8964 284.13 15.7523C287.205 16.9334 289.808 16.9334 293.12 16.7647C297.023 16.4272 300.986 16.2163 304.949 16.0054C308.911 15.7945 312.874 15.5836 316.778 15.2462C319.618 14.982 322.393 15.3612 325.138 15.7363C327.652 16.0798 330.14 16.4198 332.628 16.2585C341.855 15.5836 350.845 15.5836 359.835 17.4395C362.567 17.971 365.444 18.1924 368.334 18.4149C373.702 18.8281 379.116 19.2448 383.729 21.6576C384.21 21.8864 384.801 21.8049 385.352 21.7287C385.614 21.6926 385.867 21.6576 386.095 21.6576C389.644 21.3202 393.192 20.9827 396.741 22.1638C398.397 22.8387 400.526 22.3325 401.472 21.3202C404.548 18.1144 408.097 18.7893 411.882 20.4765C412.828 20.9265 413.775 20.9265 414.791 20.9265C415.299 20.9265 415.825 20.9265 416.377 20.9827C419.921 21.0951 423.492 20.983 427.071 20.8706C434.243 20.6455 441.45 20.4193 448.552 21.995C451.706 22.7181 454.967 22.6761 458.233 22.634C461.827 22.5877 465.427 22.5413 468.897 23.5135C469.594 23.7122 470.372 23.56 471.184 23.4012C471.751 23.2903 472.335 23.1761 472.919 23.1761C474.834 23.0054 476.265 22.1437 477.609 21.3338C478.922 20.543 480.153 19.8017 481.672 19.8017C492.318 19.4642 502.728 18.9581 512.191 15.0774C513.137 14.74 514.557 14.74 515.74 14.9087C520.927 15.7965 525.932 14.8676 530.914 13.9428C531.613 13.8131 532.311 13.6835 533.01 13.5589C533.92 13.4292 534.83 13.2914 535.739 13.1536C540.744 12.3959 545.749 11.6381 550.753 12.2092C551.91 12.3639 552.978 12.5974 554.033 12.8278C556.428 13.3513 558.751 13.8589 561.872 13.3902C563.848 13.0379 565.837 12.7128 567.827 12.3876C574.413 11.3111 581.009 10.233 587.186 8.15985C590.735 6.97879 594.047 6.64135 597.595 6.81007C599.015 6.81007 600.198 6.81007 601.617 6.64135C603.911 6.36088 606.205 5.96387 608.509 5.56511C614.522 4.52455 620.603 3.47214 626.931 4.44796C628.193 4.67293 629.244 4.29798 630.296 3.92304C630.822 3.73557 631.347 3.54811 631.899 3.43563C632.503 3.29864 633.11 3.15484 633.72 3.01029C638.369 1.90857 643.204 0.763055 648.223 2.25458C652.008 3.26691 655.557 3.60435 659.579 3.77307C674.483 4.11052 688.441 7.31624 701.926 11.5343C705.475 12.5466 708.314 12.5466 711.626 11.8717C713.318 11.5365 714.936 11.0679 716.538 10.6038C718.968 9.90022 721.362 9.2068 723.928 9.00347C730.552 8.4973 737.176 9.17219 743.564 10.8594C743.679 10.8947 743.798 10.9316 743.92 10.9694C745.545 11.4742 747.685 12.1386 749.005 11.1969C753.59 8.39417 757.772 9.61485 762.109 10.8807C762.471 10.9866 762.835 11.0927 763.2 11.1969C768.878 13.0528 774.082 12.0405 778.577 8.66602C780.234 7.31625 782.363 6.64136 784.965 6.64136C793.009 6.30391 800.816 5.12286 807.677 1.91714C808.111 1.74509 808.555 1.53795 809.013 1.32434C810.8 0.490589 812.799 -0.441638 815.247 0.22992C818.623 1.10541 822.22 1.3815 825.828 1.6584C830.563 2.02188 835.318 2.38677 839.615 4.11053C844.109 5.96647 847.895 6.1352 853.336 4.27926C861.853 1.24226 871.079 2.25459 879.833 5.62903C880.605 5.9438 881.372 6.28304 882.141 6.62329C886.318 8.47159 890.562 10.3497 896.157 8.49731C896.348 8.36107 896.847 8.55485 897.281 8.72334C897.385 8.76352 897.485 8.80227 897.576 8.83475C899.737 9.97045 902.227 10.7161 904.728 11.4656C907.43 12.2749 910.147 13.0886 912.48 14.4026C921.944 19.9704 932.826 21.8264 944.892 18.9581C945.531 18.8441 946.278 18.8841 946.987 18.9221C947.328 18.9403 947.66 18.9581 947.967 18.9581C951.221 19.3344 954.574 19.4076 957.939 19.4811C963.626 19.6053 969.35 19.7303 974.7 21.3202C975.174 21.4889 976.12 21.3202 976.593 21.1515C978.391 20.0115 980.358 20.1954 982.352 20.3817C982.718 20.416 983.086 20.4504 983.454 20.4766C985.82 20.5609 988.126 20.6875 990.433 20.814C992.739 20.9406 995.046 21.0671 997.412 21.1515C1002.55 21.3877 1006.87 19.8878 1011.19 18.3878C1013.04 17.745 1014.89 17.1022 1016.81 16.596C1017.09 16.5257 1017.36 16.4542 1017.64 16.3828C1020.68 15.5965 1023.71 14.8103 1026.75 15.5836C1035.74 17.6083 1044.49 19.8017 1053.24 22.5013C1055.06 23.0683 1056.93 23.1686 1058.81 23.2691C1060.84 23.3778 1062.87 23.4868 1064.84 24.1885C1075.01 27.9004 1086.13 28.9127 1097.72 28.0691C1098.62 28.0049 1099.52 27.9326 1100.43 27.8601C1106.67 27.3605 1113.05 26.8501 1119.25 28.9127C1120.48 29.3178 1121.86 29.6959 1123.31 29.9821H1134.19C1140.74 29.3072 1147.19 28.7138 1153.79 28.5753C1155.84 28.523 1157.89 28.2607 1159.94 27.9983C1164.51 27.413 1169.09 26.8278 1173.66 28.5753C1176.97 29.7563 1180.05 28.5753 1182.89 27.3942C1191.41 24.1885 1199.92 21.4889 1210.1 22.1638C1214.33 22.3228 1218.15 23.0812 1222.14 23.8741L1222.87 24.0198C1225.71 24.5259 1228.78 24.8634 1230.2 22.67C1232.1 19.8017 1235.17 19.633 1238.48 19.633C1239.83 19.633 1241.17 19.6517 1242.51 19.6705C1245.19 19.708 1247.87 19.7455 1250.55 19.633C1257.17 19.1268 1263.33 19.1268 1269.71 20.814C1270.62 21.0727 1271.53 21.3561 1272.44 21.6405C1276.27 22.8406 1280.17 24.0592 1284.38 23.5136C1287.69 23.1762 1291 23.5136 1294.08 24.1885C1300.94 25.5383 1308.51 26.3819 1314.66 24.5259C1322.71 21.9094 1331.17 20.9135 1339.55 19.9272C1345.22 19.26 1350.86 18.5971 1356.3 17.4396C1359.61 16.7647 1362.92 17.1022 1366 17.4396V510.499C1364.21 510.141 1362.44 509.737 1360.67 509.333C1356.6 508.404 1352.54 507.477 1348.26 507.124C1344.94 506.787 1342.34 506.112 1339.74 504.762C1335.24 502.4 1330.51 500.882 1324.36 502.063C1322.16 502.496 1320.06 503.05 1317.96 503.603C1313.51 504.776 1309.08 505.943 1303.78 505.943C1295.47 505.943 1286.74 507.463 1278.39 508.915L1277.05 509.149C1272.32 509.993 1268.29 509.318 1264.03 507.631C1257.65 505.1 1251.02 505.1 1243.69 506.112C1241.68 506.391 1239.66 506.758 1237.64 507.125C1229.88 508.534 1222 509.963 1214.12 506.618C1212.46 505.943 1209.86 505.943 1207.97 506.45C1204.08 507.414 1200.19 507.517 1196.31 507.62C1194.75 507.662 1193.2 507.703 1191.64 507.799C1189.7 507.925 1187.77 508.092 1185.83 508.259C1179.95 508.767 1174.03 509.277 1167.98 508.643C1165.86 508.474 1162.07 508.98 1161.36 509.993C1157.1 515.561 1150.24 516.404 1142.43 516.91C1142.15 516.927 1141.87 516.946 1141.59 516.964C1139.08 517.13 1136.78 517.281 1134.86 516.067C1133.21 515.054 1131.31 514.717 1129.19 514.717C1126.46 514.633 1123.74 514.464 1121.02 514.295C1118.3 514.126 1115.58 513.958 1112.86 513.873C1108.37 513.705 1104.34 514.548 1101.27 517.248C1099.85 518.598 1097.96 518.935 1095.83 519.272C1090.86 519.947 1086.13 519.104 1081.87 517.248C1078.79 516.067 1076.19 516.067 1072.88 516.235C1068.98 516.573 1065.01 516.784 1061.05 516.995C1057.09 517.206 1053.13 517.417 1049.22 517.754C1046.38 518.018 1043.61 517.639 1040.86 517.264C1038.35 516.92 1035.86 516.58 1033.37 516.742C1024.15 517.416 1015.16 517.416 1006.17 515.56C1003.43 515.029 1000.56 514.808 997.666 514.585C992.298 514.172 986.884 513.755 982.271 511.342C981.79 511.114 981.199 511.195 980.648 511.271C980.386 511.307 980.133 511.342 979.905 511.342C976.356 511.68 972.808 512.017 969.259 510.836C967.603 510.161 965.474 510.668 964.528 511.68C961.452 514.886 957.903 514.211 954.118 512.523C953.172 512.074 952.225 512.074 951.209 512.074C950.701 512.074 950.175 512.074 949.623 512.017C946.079 511.905 942.508 512.017 938.929 512.129C931.757 512.354 924.55 512.581 917.448 511.005C914.294 510.282 911.033 510.324 907.767 510.366C904.173 510.412 900.573 510.459 897.103 509.486C896.406 509.288 895.628 509.44 894.816 509.599C894.249 509.71 893.665 509.824 893.081 509.824C891.166 509.995 889.735 510.856 888.391 511.666C887.078 512.457 885.847 513.198 884.328 513.198C873.682 513.536 863.272 514.042 853.809 517.923C852.863 518.26 851.443 518.26 850.26 518.091C845.073 517.203 840.068 518.132 835.086 519.057C834.387 519.187 833.689 519.317 832.99 519.441C832.08 519.571 831.17 519.709 830.261 519.846C825.256 520.604 820.251 521.362 815.247 520.791C814.09 520.636 813.022 520.403 811.967 520.172C809.572 519.649 807.249 519.141 804.128 519.61C802.151 519.962 800.163 520.287 798.173 520.612C791.587 521.689 784.991 522.767 778.814 524.84C775.265 526.021 771.953 526.359 768.405 526.19C766.985 526.19 765.802 526.19 764.383 526.359C762.089 526.639 759.795 527.036 757.491 527.435C751.478 528.475 745.397 529.528 739.069 528.552C737.807 528.327 736.756 528.702 735.704 529.077C735.178 529.264 734.653 529.452 734.101 529.564C733.497 529.701 732.89 529.845 732.28 529.99C727.631 531.091 722.796 532.237 717.777 530.745C713.992 529.733 710.443 529.396 706.421 529.227C691.517 528.889 677.559 525.684 664.074 521.466C660.525 520.453 657.686 520.453 654.374 521.128C652.682 521.464 651.064 521.932 649.462 522.396C647.032 523.1 644.638 523.793 642.072 523.997C635.448 524.503 628.824 523.828 622.436 522.141C622.321 522.105 622.202 522.068 622.08 522.031C620.455 521.526 618.315 520.861 616.995 521.803C612.41 524.606 608.228 523.385 603.891 522.119C603.529 522.013 603.165 521.907 602.8 521.803C597.122 519.947 591.918 520.96 587.423 524.334C585.766 525.684 583.637 526.359 581.035 526.359C572.991 526.696 565.184 527.877 558.323 531.083C557.889 531.255 557.445 531.462 556.987 531.676C555.2 532.509 553.201 533.442 550.753 532.77C547.377 531.895 543.78 531.619 540.172 531.342C535.437 530.978 530.682 530.613 526.385 528.889C521.891 527.034 518.105 526.865 512.664 528.721C504.147 531.758 494.921 530.745 486.167 527.371C485.395 527.056 484.628 526.717 483.859 526.377C479.682 524.528 475.438 522.65 469.843 524.503C469.652 524.639 469.153 524.445 468.719 524.277C468.615 524.237 468.515 524.198 468.424 524.165C466.263 523.03 463.773 522.284 461.272 521.534C458.57 520.725 455.853 519.911 453.52 518.597C444.056 513.03 433.174 511.174 421.108 514.042C420.469 514.156 419.722 514.116 419.013 514.078C418.672 514.06 418.34 514.042 418.033 514.042C414.779 513.666 411.426 513.592 408.061 513.519C402.374 513.395 396.65 513.27 391.3 511.68C390.826 511.511 389.88 511.68 389.407 511.849C387.609 512.989 385.642 512.805 383.648 512.618C383.282 512.584 382.914 512.55 382.546 512.523C380.18 512.439 377.874 512.312 375.567 512.186C373.26 512.059 370.954 511.933 368.588 511.849C363.454 511.612 359.132 513.112 354.81 514.612C352.957 515.255 351.105 515.898 349.189 516.404C348.913 516.474 348.637 516.546 348.361 516.617C345.325 517.404 342.289 518.19 339.253 517.416C330.263 515.392 321.509 513.198 312.756 510.499C310.938 509.932 309.066 509.831 307.192 509.731C305.163 509.622 303.131 509.513 301.163 508.811C290.991 505.1 279.871 504.087 268.279 504.931C267.379 504.995 266.476 505.067 265.569 505.14C259.326 505.64 252.948 506.15 246.751 504.087C243.675 503.075 239.653 502.231 236.105 502.569L235.278 502.655C227.525 503.469 219.978 504.262 212.21 504.425C210.16 504.477 208.11 504.739 206.059 505.002C201.485 505.587 196.912 506.172 192.338 504.425C189.026 503.244 185.95 504.425 183.111 505.606C174.594 508.811 166.078 511.511 155.905 510.836C151.669 510.677 147.853 509.919 143.864 509.126C143.62 509.077 143.375 509.029 143.13 508.98C140.291 508.474 137.215 508.137 135.796 510.33C133.903 513.198 130.828 513.367 127.515 513.367C126.175 513.367 124.834 513.348 123.494 513.33C120.812 513.292 118.131 513.254 115.45 513.367C108.826 513.873 102.675 513.873 96.2872 512.186C95.3806 511.927 94.474 511.644 93.5641 511.359C89.7251 510.159 85.8268 508.941 81.6193 509.486C78.3073 509.824 74.9952 509.486 71.9197 508.811C65.059 507.462 57.4884 506.618 51.3374 508.474C43.2942 511.091 34.8301 512.086 26.4471 513.073C20.7757 513.74 15.1413 514.403 9.69965 515.56C6.38756 516.235 3.07553 515.898 1.50757e-05 515.56L0 22.5012Z" fill="#FFCB66"/>
</svg>
