<svg width="22" height="33" viewBox="0 0 22 33" fill="none" xmlns="http://www.w3.org/2000/svg">
<path d="M21.1684 10.45C21.1684 4.68765 16.4205 0 10.5842 0C4.74784 0 0 4.68765 0 10.45C0 15.4572 3.58692 19.6488 8.35593 20.6624V30.8C8.35593 32.0133 9.3553 33 10.5842 33C11.8131 33 12.8124 32.0133 12.8124 30.8V20.6624C17.5814 19.6488 21.1684 15.4572 21.1684 10.45ZM11.6983 30.8C11.6983 31.4067 11.1986 31.9 10.5842 31.9C9.96974 31.9 9.47006 31.4067 9.47006 30.8V20.8406C9.55362 20.8494 9.63996 20.85 9.72408 20.8566C10.3101 20.9088 10.8588 20.9088 11.4443 20.8566C11.5284 20.85 11.6147 20.8494 11.6983 20.8406V30.8ZM13.9266 12.1C12.0838 12.1 10.5842 10.62 10.5842 8.8C10.5842 6.98005 12.0838 5.5 13.9266 5.5C15.7699 5.5 17.2689 6.98005 17.2689 8.8C17.2689 10.62 15.7693 12.1 13.9266 12.1Z" fill="#2F4858"/>
<path d="M13.9266 11C15.1572 11 16.1548 10.015 16.1548 8.8C16.1548 7.58497 15.1572 6.6 13.9266 6.6C12.6959 6.6 11.6983 7.58497 11.6983 8.8C11.6983 10.015 12.6959 11 13.9266 11Z" fill="#2F4858"/>
</svg>
