<svg width="23" height="33" viewBox="0 0 23 33" fill="none" xmlns="http://www.w3.org/2000/svg">
<path d="M22.1391 10.45C22.1391 4.68765 17.3912 0 11.5549 0C5.71855 0 0.970703 4.68765 0.970703 10.45C0.970703 15.4572 4.55763 19.6488 9.32664 20.6624V30.8C9.32664 32.0133 10.326 33 11.5549 33C12.7838 33 13.7831 32.0133 13.7831 30.8V20.6624C18.5521 19.6488 22.1391 15.4572 22.1391 10.45ZM12.669 30.8C12.669 31.4067 12.1693 31.9 11.5549 31.9C10.9404 31.9 10.4408 31.4067 10.4408 30.8V20.8406C10.5243 20.8494 10.6107 20.85 10.6948 20.8566C11.2808 20.9088 11.8295 20.9088 12.415 20.8566C12.4991 20.85 12.5855 20.8494 12.669 20.8406V30.8ZM14.8973 12.1C13.0545 12.1 11.5549 10.62 11.5549 8.8C11.5549 6.98005 13.0545 5.5 14.8973 5.5C16.7406 5.5 18.2396 6.98005 18.2396 8.8C18.2396 10.62 16.74 12.1 14.8973 12.1Z" fill="#FFA800"/>
<path d="M14.8973 11C16.1279 11 17.1255 10.015 17.1255 8.8C17.1255 7.58497 16.1279 6.6 14.8973 6.6C13.6666 6.6 12.669 7.58497 12.669 8.8C12.669 10.015 13.6666 11 14.8973 11Z" fill="#FFA800"/>
</svg>
