<svg width="167" height="198" viewBox="0 0 167 198" fill="none" xmlns="http://www.w3.org/2000/svg">
<mask id="path-1-inside-1" fill="white">
<path d="M163.779 97.1104C161.885 96.7987 160.509 95.1747 160.509 93.2493C160.509 91.5811 161.567 90.0943 163.143 89.5497C166.662 88.3324 164.835 83.0488 161.315 84.2661C159.834 84.7785 158.543 85.6369 157.515 86.7282C153.789 81.5569 147.248 78.8654 140.908 80.2923C137.132 81.1424 133.463 82.3072 129.924 83.7722C128.985 79.4082 125.974 69.7332 120.519 62.44C117.583 58.5152 113.46 56 108.15 56H98.1482C89.3109 56 83.2787 63.8178 84.2853 71.7726C85.9474 84.9054 92.3947 98.5514 103.375 107.833C101.137 112.925 99.786 118.296 99.3384 123.766C92.4743 122.991 85.4585 123.39 78.7389 124.938C77.6558 118.917 75.4584 113.059 72.2978 107.833C68.7914 102.034 62.935 100.637 58.0841 101.704L54.5679 93.7837C53.0668 90.4003 47.9571 92.6673 49.4581 96.0507L52.9821 103.989C48.9583 106.883 46.0921 112.128 47.9772 118.603C49.8799 125.139 53.0274 131.083 57.3475 136.312C54.1861 139.356 51.438 142.896 49.2015 146.859C43.0556 157.748 39.3652 170.07 38.445 182.487C37.7876 191.355 45.0735 198 52.9494 198H70.2497C74.2676 198 78.0007 195.818 79.9926 192.305C86.5805 180.687 90.3779 167.727 91.0471 154.658C91.9083 154.646 92.7706 154.615 93.6333 154.563C95.2403 167.947 99.9936 180.694 107.631 191.923C110.22 195.728 114.532 198 119.165 198H133.321C142.349 198 147.831 189.984 147.251 182.86C146.172 169.609 141.981 156.642 135.069 145.366C131.99 140.344 127.907 135.931 123.173 132.487C125.906 126.244 127.356 119.463 127.388 112.629C129.785 112.889 138.706 113.664 147.419 111.788C155.753 109.993 158.697 103.718 159.548 101.417C160.545 102.009 161.664 102.428 162.873 102.627C166.539 103.23 167.446 97.7136 163.779 97.1104ZM49.7044 83.4219C49.7044 84.966 48.4527 86.2175 46.9088 86.2175C45.365 86.2175 44.1133 84.9658 44.1133 83.4219C44.1133 81.8778 45.365 80.6264 46.9088 80.6264C48.4527 80.6264 49.7044 81.8778 49.7044 83.4219ZM115.95 65.6619C120.264 71.7788 123.271 78.8402 124.717 86.1948C123.635 86.7561 122.566 87.3471 121.513 87.9682L119.618 85.3219C117.079 81.7752 115.068 77.887 113.642 73.7648L110.555 64.842C110.153 63.6792 109.597 62.6013 108.916 61.6255C111.713 61.8553 114.302 63.325 115.95 65.6619ZM89.8295 71.0528C89.2299 66.6581 92.611 61.5906 98.1479 61.5906C101.358 61.5906 104.221 63.6319 105.272 66.6701L108.359 75.5929C109.961 80.2239 112.22 84.5923 115.073 88.5767L117.807 92.3948C117.312 95.1095 116.57 97.7857 115.487 100.32C113.638 104.647 108.445 105.242 105.49 102.399C96.8853 94.1189 91.4493 82.9261 89.8295 71.0528ZM121.794 111.781C121.907 119.813 119.808 127.797 115.772 134.735C113.832 133.33 109.202 130.76 104.879 131.091C104.334 123.747 105.627 116.435 108.672 109.685C109.852 109.868 111.917 109.606 112.769 109.349C115.724 110.372 118.74 111.185 121.794 111.781ZM53.345 117.041C51.9264 112.168 54.834 108.942 57.7551 107.659C60.6364 106.395 64.9216 106.439 67.5139 110.726C70.4182 115.528 72.4096 120.931 73.3343 126.473C69.107 127.946 65.1662 130.047 61.6112 132.696C57.802 128.068 55.0258 122.814 53.345 117.041ZM44.0213 182.887C44.8331 171.287 48.3283 159.78 54.0703 149.607C57.1538 144.143 61.3372 139.596 66.2941 136.224C68.1152 143.348 72.0135 147.858 75.8897 150.548L71.7256 158.294C68.9188 163.515 67.0069 169.128 66.0425 174.978L63.941 187.728C63.4943 190.441 61.1743 192.409 58.4251 192.409H52.9494C48.1033 192.409 43.6308 188.469 44.0213 182.887ZM75.1294 189.548C74.1287 191.313 72.2586 192.409 70.2497 192.409H68.1152C68.7685 191.272 69.2325 190.002 69.4575 188.637L71.559 175.887C72.4227 170.647 74.1357 165.618 76.6497 160.941L80.8373 153.151C82.3174 153.711 83.8657 154.123 85.4646 154.372C84.8399 166.575 81.2896 178.684 75.1294 189.548ZM88.4444 149.05C81.2365 148.801 74.9977 144.227 72.5505 137.395C72.0769 136.073 71.6602 134.718 71.2943 133.351C80.1679 128.973 91.8471 128.484 99.1956 129.38C99.2311 130.501 99.3024 131.624 99.4139 132.747C96.2181 134.511 93.0228 138.587 93.0228 143.643C93.0228 145.435 93.0535 147.219 93.1497 148.995C91.5765 149.084 90.0022 149.103 88.4444 149.05ZM125.486 192.409H119.165C116.384 192.409 113.801 191.052 112.254 188.779C103.203 175.473 98.6131 159.881 98.6131 143.686C98.6131 140.562 101.231 136.652 105.738 136.652C110.086 136.652 116.416 141.13 118.101 146.915L130.766 185.095C131.817 188 129.87 192.409 125.486 192.409ZM130.303 148.288C136.757 158.817 140.691 170.925 141.678 183.304C141.868 185.69 140.834 190.669 135.285 192.181C136.77 189.477 137.064 186.324 136.072 183.335L123.407 145.154C122.619 142.78 121.426 140.602 119.913 138.696C120.148 138.316 120.379 137.932 120.603 137.546C124.443 140.477 127.762 144.144 130.303 148.288ZM146.354 106.299C137.219 108.106 127.826 107.749 118.911 105.385C119.624 104.506 120.217 103.519 120.659 102.443C121.852 99.5387 122.739 96.5077 123.304 93.4162C129.111 89.8323 135.44 87.2531 142.135 85.7459C147.057 84.6384 152.379 87.5366 154.262 92.3453C156.046 96.9013 154.071 104.773 146.354 106.299ZM39.2495 73.0568L37.2677 68.5955C35.7828 65.2526 40.8926 62.9829 42.3774 66.3257L44.3593 70.7901C45.864 74.1813 40.7542 76.4483 39.2495 73.0568Z"/>
</mask>
<path d="M163.779 97.1104C161.885 96.7987 160.509 95.1747 160.509 93.2493C160.509 91.5811 161.567 90.0943 163.143 89.5497C166.662 88.3324 164.835 83.0488 161.315 84.2661C159.834 84.7785 158.543 85.6369 157.515 86.7282C153.789 81.5569 147.248 78.8654 140.908 80.2923C137.132 81.1424 133.463 82.3072 129.924 83.7722C128.985 79.4082 125.974 69.7332 120.519 62.44C117.583 58.5152 113.46 56 108.15 56H98.1482C89.3109 56 83.2787 63.8178 84.2853 71.7726C85.9474 84.9054 92.3947 98.5514 103.375 107.833C101.137 112.925 99.786 118.296 99.3384 123.766C92.4743 122.991 85.4585 123.39 78.7389 124.938C77.6558 118.917 75.4584 113.059 72.2978 107.833C68.7914 102.034 62.935 100.637 58.0841 101.704L54.5679 93.7837C53.0668 90.4003 47.9571 92.6673 49.4581 96.0507L52.9821 103.989C48.9583 106.883 46.0921 112.128 47.9772 118.603C49.8799 125.139 53.0274 131.083 57.3475 136.312C54.1861 139.356 51.438 142.896 49.2015 146.859C43.0556 157.748 39.3652 170.07 38.445 182.487C37.7876 191.355 45.0735 198 52.9494 198H70.2497C74.2676 198 78.0007 195.818 79.9926 192.305C86.5805 180.687 90.3779 167.727 91.0471 154.658C91.9083 154.646 92.7706 154.615 93.6333 154.563C95.2403 167.947 99.9936 180.694 107.631 191.923C110.22 195.728 114.532 198 119.165 198H133.321C142.349 198 147.831 189.984 147.251 182.86C146.172 169.609 141.981 156.642 135.069 145.366C131.99 140.344 127.907 135.931 123.173 132.487C125.906 126.244 127.356 119.463 127.388 112.629C129.785 112.889 138.706 113.664 147.419 111.788C155.753 109.993 158.697 103.718 159.548 101.417C160.545 102.009 161.664 102.428 162.873 102.627C166.539 103.23 167.446 97.7136 163.779 97.1104ZM49.7044 83.4219C49.7044 84.966 48.4527 86.2175 46.9088 86.2175C45.365 86.2175 44.1133 84.9658 44.1133 83.4219C44.1133 81.8778 45.365 80.6264 46.9088 80.6264C48.4527 80.6264 49.7044 81.8778 49.7044 83.4219ZM115.95 65.6619C120.264 71.7788 123.271 78.8402 124.717 86.1948C123.635 86.7561 122.566 87.3471 121.513 87.9682L119.618 85.3219C117.079 81.7752 115.068 77.887 113.642 73.7648L110.555 64.842C110.153 63.6792 109.597 62.6013 108.916 61.6255C111.713 61.8553 114.302 63.325 115.95 65.6619ZM89.8295 71.0528C89.2299 66.6581 92.611 61.5906 98.1479 61.5906C101.358 61.5906 104.221 63.6319 105.272 66.6701L108.359 75.5929C109.961 80.2239 112.22 84.5923 115.073 88.5767L117.807 92.3948C117.312 95.1095 116.57 97.7857 115.487 100.32C113.638 104.647 108.445 105.242 105.49 102.399C96.8853 94.1189 91.4493 82.9261 89.8295 71.0528ZM121.794 111.781C121.907 119.813 119.808 127.797 115.772 134.735C113.832 133.33 109.202 130.76 104.879 131.091C104.334 123.747 105.627 116.435 108.672 109.685C109.852 109.868 111.917 109.606 112.769 109.349C115.724 110.372 118.74 111.185 121.794 111.781ZM53.345 117.041C51.9264 112.168 54.834 108.942 57.7551 107.659C60.6364 106.395 64.9216 106.439 67.5139 110.726C70.4182 115.528 72.4096 120.931 73.3343 126.473C69.107 127.946 65.1662 130.047 61.6112 132.696C57.802 128.068 55.0258 122.814 53.345 117.041ZM44.0213 182.887C44.8331 171.287 48.3283 159.78 54.0703 149.607C57.1538 144.143 61.3372 139.596 66.2941 136.224C68.1152 143.348 72.0135 147.858 75.8897 150.548L71.7256 158.294C68.9188 163.515 67.0069 169.128 66.0425 174.978L63.941 187.728C63.4943 190.441 61.1743 192.409 58.4251 192.409H52.9494C48.1033 192.409 43.6308 188.469 44.0213 182.887ZM75.1294 189.548C74.1287 191.313 72.2586 192.409 70.2497 192.409H68.1152C68.7685 191.272 69.2325 190.002 69.4575 188.637L71.559 175.887C72.4227 170.647 74.1357 165.618 76.6497 160.941L80.8373 153.151C82.3174 153.711 83.8657 154.123 85.4646 154.372C84.8399 166.575 81.2896 178.684 75.1294 189.548ZM88.4444 149.05C81.2365 148.801 74.9977 144.227 72.5505 137.395C72.0769 136.073 71.6602 134.718 71.2943 133.351C80.1679 128.973 91.8471 128.484 99.1956 129.38C99.2311 130.501 99.3024 131.624 99.4139 132.747C96.2181 134.511 93.0228 138.587 93.0228 143.643C93.0228 145.435 93.0535 147.219 93.1497 148.995C91.5765 149.084 90.0022 149.103 88.4444 149.05ZM125.486 192.409H119.165C116.384 192.409 113.801 191.052 112.254 188.779C103.203 175.473 98.6131 159.881 98.6131 143.686C98.6131 140.562 101.231 136.652 105.738 136.652C110.086 136.652 116.416 141.13 118.101 146.915L130.766 185.095C131.817 188 129.87 192.409 125.486 192.409ZM130.303 148.288C136.757 158.817 140.691 170.925 141.678 183.304C141.868 185.69 140.834 190.669 135.285 192.181C136.77 189.477 137.064 186.324 136.072 183.335L123.407 145.154C122.619 142.78 121.426 140.602 119.913 138.696C120.148 138.316 120.379 137.932 120.603 137.546C124.443 140.477 127.762 144.144 130.303 148.288ZM146.354 106.299C137.219 108.106 127.826 107.749 118.911 105.385C119.624 104.506 120.217 103.519 120.659 102.443C121.852 99.5387 122.739 96.5077 123.304 93.4162C129.111 89.8323 135.44 87.2531 142.135 85.7459C147.057 84.6384 152.379 87.5366 154.262 92.3453C156.046 96.9013 154.071 104.773 146.354 106.299ZM39.2495 73.0568L37.2677 68.5955C35.7828 65.2526 40.8926 62.9829 42.3774 66.3257L44.3593 70.7901C45.864 74.1813 40.7542 76.4483 39.2495 73.0568Z" fill="#FFA800" stroke="white" stroke-width="2.01575" mask="url(#path-1-inside-1)"/>
<mask id="path-2-inside-2" fill="white">
<path fill-rule="evenodd" clip-rule="evenodd" d="M11.6099 81.7716C11.6099 80.9803 12.25 80.3355 13.0357 80.3355C13.8213 80.3355 14.4614 80.9803 14.4614 81.7716C14.5196 87.3989 19.0588 91.9125 24.6455 91.8832C25.4312 91.8832 26.0713 92.528 26.0713 93.3193C26.0713 94.1106 25.4312 94.7554 24.6455 94.7554C19.0588 94.7261 14.5196 99.2397 14.4614 104.867C14.4614 105.658 13.8213 106.303 13.0357 106.303C12.25 106.303 11.6099 105.658 11.6099 104.867C11.5517 99.2397 7.01249 94.7261 1.42578 94.7554C0.640148 94.7554 4.11371e-06 94.1106 4.07912e-06 93.3193C4.04453e-06 92.528 0.640147 91.8832 1.42578 91.8832C7.01249 91.9125 11.5517 87.3989 11.6099 81.7716ZM22.4923 25.8797C22.1141 25.8797 21.794 26.2021 21.794 26.5831C21.7649 29.3967 19.4953 31.6535 16.7019 31.6242C16.3237 31.6242 16.0036 31.9466 16.0036 32.3276C16.0036 32.7086 16.3237 33.031 16.7019 33.031C19.4953 33.0017 21.7649 35.2585 21.794 38.0722C21.794 38.4532 22.1141 38.7756 22.4923 38.7756C22.8706 38.7756 23.1907 38.4532 23.1907 38.0722C23.2198 35.2878 25.4894 33.0017 28.2827 33.031C28.661 33.031 28.9811 32.7086 28.9811 32.3276C28.9811 31.9466 28.661 31.6242 28.2827 31.6242C25.4894 31.6535 23.2198 29.3967 23.1907 26.5831C23.1907 26.2021 22.8706 25.8797 22.4923 25.8797ZM125.41 31.3604C125.41 30.9794 125.73 30.657 126.108 30.657C126.487 30.657 126.807 30.9794 126.807 31.3604C126.836 34.1741 129.105 36.4309 131.899 36.4016C132.277 36.4016 132.597 36.7239 132.597 37.105C132.597 37.486 132.277 37.8084 131.899 37.8084C129.105 37.7791 126.836 40.0652 126.807 42.8495C126.807 43.2305 126.487 43.5529 126.108 43.5529C125.73 43.5529 125.41 43.2305 125.41 42.8495C125.381 40.0358 123.111 37.7791 120.318 37.8084C119.94 37.8084 119.62 37.486 119.62 37.105C119.62 36.7239 119.94 36.4016 120.318 36.4016C123.111 36.4309 125.381 34.1741 125.41 31.3604ZM94.4503 22.1575C94.4503 22.8609 95.0323 23.4471 95.7306 23.4471C96.429 23.4471 97.0109 22.8609 97.0109 22.1575C97.04 17.0577 101.172 12.9838 106.206 13.0131C106.904 13.0131 107.486 12.4269 107.486 11.7235C107.486 11.0201 106.904 10.4339 106.206 10.4339C101.172 10.4632 97.04 6.36001 97.0109 1.28958C97.0109 0.58617 96.429 -4.21504e-06 95.7306 -4.18452e-06C95.0323 -4.15399e-06 94.4503 0.586171 94.4503 1.28958C94.4212 6.38932 90.2894 10.4632 85.2555 10.4339C84.5572 10.4339 83.9753 11.0201 83.9753 11.7235C83.9753 12.4269 84.5572 13.0131 85.2555 13.0131C90.2894 12.9838 94.4213 17.087 94.4503 22.1575ZM59.8826 80.3355C58.4277 80.3355 57.2638 79.1631 57.2638 77.6977C57.1765 67.2931 48.7673 58.94 38.4377 58.9987C36.9829 58.9987 35.819 57.8263 35.819 56.3609C35.819 54.8954 36.9829 53.7231 38.4377 53.7231C48.7673 53.7817 57.1765 45.4287 57.2638 35.024C57.2638 33.5586 58.4277 32.3862 59.8826 32.3862C61.3374 32.3862 62.5013 33.5586 62.5013 35.024C62.5886 45.4287 70.9978 53.7817 81.3274 53.7231C82.7823 53.7231 83.9462 54.8954 83.9462 56.3609C83.9462 57.8263 82.7823 58.9987 81.3274 58.9987C70.9978 58.94 62.5886 67.3224 62.5013 77.6977C62.5013 79.1631 61.3374 80.3355 59.8826 80.3355Z"/>
</mask>
<path d="M11.6099 81.7716L15.6099 81.7716L15.6099 81.7923L15.6097 81.813L11.6099 81.7716ZM14.4614 81.7716L10.4617 81.813L10.4614 81.7923L10.4614 81.7716L14.4614 81.7716ZM24.6455 91.8832L24.6246 87.8832L24.6351 87.8832L24.6455 87.8832L24.6455 91.8832ZM24.6455 94.7554L24.6455 98.7554L24.6351 98.7554L24.6246 98.7554L24.6455 94.7554ZM14.4614 104.867L10.4614 104.867L10.4614 104.846L10.4617 104.826L14.4614 104.867ZM11.6099 104.867L15.6097 104.826L15.6099 104.846L15.6099 104.867L11.6099 104.867ZM1.42578 94.7554L1.44676 98.7554L1.43627 98.7554L1.42578 98.7554L1.42578 94.7554ZM1.42578 91.8832L1.42578 87.8832L1.43627 87.8832L1.44677 87.8832L1.42578 91.8832ZM21.794 26.5831L25.794 26.5831L25.794 26.6038L25.7938 26.6245L21.794 26.5831ZM16.7019 31.6242L16.7019 27.6242L16.7229 27.6242L16.7439 27.6244L16.7019 31.6242ZM16.7019 33.031L16.7439 37.0308L16.7229 37.031L16.7019 37.031L16.7019 33.031ZM21.794 38.0722L25.7938 38.0308L25.794 38.0515L25.794 38.0722L21.794 38.0722ZM23.1907 38.0722L19.1907 38.0722L19.1907 38.0513L19.1909 38.0304L23.1907 38.0722ZM28.2827 33.031L28.2827 37.031L28.2617 37.031L28.2408 37.0308L28.2827 33.031ZM28.2827 31.6242L28.2408 27.6244L28.2617 27.6242L28.2827 27.6242L28.2827 31.6242ZM23.1907 26.5831L19.1909 26.6245L19.1907 26.6038L19.1907 26.5831L23.1907 26.5831ZM125.41 31.3604L129.41 31.3604L129.41 31.3811L129.41 31.4018L125.41 31.3604ZM126.807 31.3604L122.807 31.4018L122.807 31.3811L122.807 31.3604L126.807 31.3604ZM131.899 36.4016L131.857 32.4018L131.878 32.4016L131.899 32.4016L131.899 36.4016ZM131.899 37.8084L131.899 41.8084L131.878 41.8084L131.857 41.8082L131.899 37.8084ZM126.807 42.8495L122.807 42.8495L122.807 42.8286L122.807 42.8077L126.807 42.8495ZM125.41 42.8495L129.41 42.8081L129.41 42.8288L129.41 42.8495L125.41 42.8495ZM120.318 37.8084L120.36 41.8082L120.339 41.8084L120.318 41.8084L120.318 37.8084ZM120.318 36.4016L120.318 32.4016L120.339 32.4016L120.36 32.4018L120.318 36.4016ZM94.4503 22.1575L98.4503 22.1345L98.4503 22.146L98.4503 22.1575L94.4503 22.1575ZM97.0109 22.1575L93.0109 22.1575L93.0109 22.1461L93.011 22.1346L97.0109 22.1575ZM106.206 13.0131L106.206 17.0131L106.194 17.0131L106.182 17.013L106.206 13.0131ZM106.206 10.4339L106.182 6.434L106.194 6.43394L106.206 6.43394L106.206 10.4339ZM97.0109 1.28958L93.011 1.31254L93.0109 1.30106L93.0109 1.28958L97.0109 1.28958ZM94.4503 1.28958L98.4503 1.28958L98.4503 1.30099L98.4503 1.3124L94.4503 1.28958ZM85.2555 10.4339L85.2555 6.43394L85.2672 6.43394L85.2788 6.434L85.2555 10.4339ZM85.2555 13.0131L85.2788 17.013L85.2672 17.0131L85.2555 17.0131L85.2555 13.0131ZM57.2638 77.6977L61.2637 77.6641L61.2638 77.6809L61.2638 77.6977L57.2638 77.6977ZM38.4377 58.9987L38.4604 62.9986L38.4491 62.9987L38.4377 62.9987L38.4377 58.9987ZM38.4377 53.7231L38.4377 49.7231L38.4491 49.7231L38.4604 49.7231L38.4377 53.7231ZM57.2638 35.024L61.2638 35.024L61.2638 35.0408L61.2637 35.0576L57.2638 35.024ZM62.5013 35.024L58.5015 35.0576L58.5013 35.0408L58.5013 35.024L62.5013 35.024ZM81.3274 53.7231L81.3047 49.7231L81.316 49.7231L81.3274 49.7231L81.3274 53.7231ZM81.3274 58.9987L81.3274 62.9987L81.316 62.9987L81.3047 62.9986L81.3274 58.9987ZM62.5013 77.6977L58.5013 77.6977L58.5013 77.6809L58.5015 77.664L62.5013 77.6977ZM13.0357 84.3355C14.4864 84.3355 15.6099 83.1621 15.6099 81.7716L7.60989 81.7716C7.60989 78.7985 10.0136 76.3355 13.0357 76.3355L13.0357 84.3355ZM10.4614 81.7716C10.4614 83.1621 11.5849 84.3355 13.0357 84.3355L13.0357 76.3355C16.0577 76.3355 18.4614 78.7985 18.4614 81.7716L10.4614 81.7716ZM24.6665 95.8831C16.8453 95.9241 10.5423 89.6078 10.4617 81.813L18.4612 81.7302C18.497 85.19 21.2724 87.9008 24.6246 87.8832L24.6665 95.8831ZM22.0713 93.3193C22.0713 94.7097 23.1948 95.8832 24.6455 95.8832L24.6455 87.8832C27.6676 87.8832 30.0713 90.3462 30.0713 93.3193L22.0713 93.3193ZM24.6455 90.7554C23.1948 90.7554 22.0713 91.9288 22.0713 93.3193L30.0713 93.3193C30.0713 96.2925 27.6675 98.7554 24.6455 98.7554L24.6455 90.7554ZM10.4617 104.826C10.5423 97.0308 16.8453 90.7144 24.6665 90.7555L24.6246 98.7554C21.2724 98.7378 18.497 101.449 18.4612 104.908L10.4617 104.826ZM13.0357 102.303C11.5849 102.303 10.4614 103.477 10.4614 104.867L18.4614 104.867C18.4614 107.84 16.0577 110.303 13.0357 110.303L13.0357 102.303ZM15.6099 104.867C15.6099 103.477 14.4864 102.303 13.0357 102.303L13.0357 110.303C10.0136 110.303 7.60989 107.84 7.60989 104.867L15.6099 104.867ZM1.4048 90.7555C9.22604 90.7144 15.5291 97.0308 15.6097 104.826L7.6101 104.908C7.57432 101.449 4.79894 98.7378 1.44676 98.7554L1.4048 90.7555ZM4 93.3193C4 91.9288 2.87649 90.7554 1.42578 90.7554L1.42578 98.7554C-1.5962 98.7554 -4 96.2925 -4 93.3193L4 93.3193ZM1.42578 95.8832C2.87657 95.8832 4 94.7097 4 93.3193L-4 93.3193C-4 90.3462 -1.59628 87.8832 1.42578 87.8832L1.42578 95.8832ZM15.6097 81.813C15.5291 89.6078 9.22604 95.9241 1.40479 95.8831L1.44677 87.8832C4.79894 87.9008 7.57432 85.19 7.6101 81.7302L15.6097 81.813ZM17.794 26.5831C17.794 24.0203 19.8777 21.8797 22.4923 21.8797L22.4923 29.8797C24.3504 29.8797 25.794 28.3839 25.794 26.5831L17.794 26.5831ZM16.7439 27.6244C17.2824 27.6301 17.7875 27.192 17.7942 26.5417L25.7938 26.6245C25.7423 31.6015 21.7082 35.677 16.66 35.624L16.7439 27.6244ZM12.0036 32.3276C12.0036 29.7648 14.0873 27.6242 16.7019 27.6242L16.7019 35.6242C18.5601 35.6242 20.0036 34.1284 20.0036 32.3276L12.0036 32.3276ZM16.7019 37.031C14.0873 37.031 12.0036 34.8905 12.0036 32.3276L20.0036 32.3276C20.0036 30.5268 18.56 29.031 16.7019 29.031L16.7019 37.031ZM17.7942 38.1135C17.7875 37.4632 17.2824 37.0252 16.7439 37.0308L16.66 29.0313C21.7082 28.9783 25.7423 33.0538 25.7938 38.0308L17.7942 38.1135ZM22.4923 42.7756C19.8777 42.7756 17.794 40.6349 17.794 38.0722L25.794 38.0722C25.794 36.2714 24.3505 34.7756 22.4923 34.7756L22.4923 42.7756ZM27.1907 38.0722C27.1907 40.635 25.107 42.7756 22.4923 42.7756L22.4923 34.7756C20.6342 34.7756 19.1907 36.2714 19.1907 38.0722L27.1907 38.0722ZM28.2408 37.0308C27.7175 37.0253 27.1971 37.4772 27.1905 38.114L19.1909 38.0304C19.2424 33.0985 23.2612 28.9781 28.3247 29.0313L28.2408 37.0308ZM32.9811 32.3276C32.9811 34.8905 30.8974 37.031 28.2827 37.031L28.2827 29.031C26.4246 29.031 24.9811 30.5268 24.9811 32.3276L32.9811 32.3276ZM28.2827 27.6242C30.8974 27.6242 32.9811 29.7648 32.9811 32.3276L24.9811 32.3276C24.9811 34.1284 26.4246 35.6242 28.2827 35.6242L28.2827 27.6242ZM27.1905 26.5417C27.1972 27.192 27.7023 27.6301 28.2408 27.6244L28.3247 35.624C23.2765 35.677 19.2424 31.6015 19.1909 26.6245L27.1905 26.5417ZM22.4923 21.8797C25.107 21.8797 27.1907 24.0203 27.1907 26.5831L19.1907 26.5831C19.1907 28.3839 20.6342 29.8797 22.4923 29.8797L22.4923 21.8797ZM126.108 34.657C127.967 34.657 129.41 33.1612 129.41 31.3604L121.41 31.3604C121.41 28.7977 123.494 26.657 126.108 26.657L126.108 34.657ZM122.807 31.3604C122.807 33.1612 124.25 34.657 126.108 34.657L126.108 26.657C128.723 26.657 130.807 28.7976 130.807 31.3604L122.807 31.3604ZM131.941 40.4013C126.893 40.4543 122.858 36.3788 122.807 31.4018L130.807 31.3191C130.813 31.9694 131.318 32.4074 131.857 32.4018L131.941 40.4013ZM128.597 37.105C128.597 38.9057 130.041 40.4016 131.899 40.4016L131.899 32.4016C134.513 32.4016 136.597 34.5422 136.597 37.105L128.597 37.105ZM131.899 33.8084C130.041 33.8084 128.597 35.3042 128.597 37.105L136.597 37.105C136.597 39.6677 134.513 41.8084 131.899 41.8084L131.899 33.8084ZM122.807 42.8077C122.858 37.8758 126.877 33.7555 131.941 33.8086L131.857 41.8082C131.334 41.8027 130.813 42.2545 130.807 42.8913L122.807 42.8077ZM126.108 39.5529C124.25 39.5529 122.807 41.0486 122.807 42.8495L130.807 42.8495C130.807 45.4124 128.723 47.5529 126.108 47.5529L126.108 39.5529ZM129.41 42.8495C129.41 41.0487 127.966 39.5529 126.108 39.5529L126.108 47.5529C123.494 47.5529 121.41 45.4123 121.41 42.8495L129.41 42.8495ZM120.276 33.8086C125.324 33.7556 129.358 37.8311 129.41 42.8081L121.41 42.8909C121.404 42.2406 120.898 41.8025 120.36 41.8082L120.276 33.8086ZM123.62 37.105C123.62 35.3042 122.176 33.8084 120.318 33.8084L120.318 41.8084C117.703 41.8084 115.62 39.6677 115.62 37.105L123.62 37.105ZM120.318 40.4016C122.176 40.4016 123.62 38.9057 123.62 37.105L115.62 37.105C115.62 34.5422 117.703 32.4016 120.318 32.4016L120.318 40.4016ZM129.41 31.4018C129.358 36.3788 125.324 40.4543 120.276 40.4013L120.36 32.4018C120.898 32.4074 121.404 31.9694 121.41 31.3191L129.41 31.4018ZM95.7306 27.4471C92.7959 27.4471 90.4503 25.0427 90.4503 22.1575L98.4503 22.1575C98.4503 20.6791 97.2687 19.4471 95.7306 19.4471L95.7306 27.4471ZM101.011 22.1575C101.011 25.0427 98.6654 27.4471 95.7306 27.4471L95.7306 19.4471C94.1926 19.4471 93.0109 20.6791 93.0109 22.1575L101.011 22.1575ZM106.182 17.013C103.371 16.9967 101.027 19.2771 101.011 22.1803L93.011 22.1346C93.0526 14.8383 98.9732 8.97093 106.229 9.01318L106.182 17.013ZM111.486 11.7235C111.486 14.6087 109.14 17.0131 106.206 17.0131L106.206 9.01311C104.668 9.01311 103.486 10.2451 103.486 11.7235L111.486 11.7235ZM106.206 6.43394C109.14 6.43394 111.486 8.83832 111.486 11.7235L103.486 11.7235C103.486 13.2019 104.668 14.4339 106.206 14.4339L106.206 6.43394ZM101.011 1.26663C101.027 4.14902 103.379 6.45033 106.182 6.434L106.229 14.4339C98.9648 14.4762 93.0526 8.571 93.011 1.31254L101.011 1.26663ZM95.7306 -4C98.6654 -4 101.011 -1.59563 101.011 1.28958L93.0109 1.28958C93.0109 2.76797 94.1926 4 95.7306 4L95.7306 -4ZM90.4503 1.28958C90.4503 -1.59563 92.7959 -4 95.7306 -4L95.7306 4C97.2687 4 98.4503 2.76797 98.4503 1.28958L90.4503 1.28958ZM85.2788 6.434C88.0907 6.45038 90.4338 4.16991 90.4504 1.26677L98.4503 1.3124C98.4087 8.60873 92.4881 14.4761 85.2323 14.4339L85.2788 6.434ZM79.9753 11.7235C79.9753 8.83832 82.3208 6.43394 85.2555 6.43394L85.2555 14.4339C86.7936 14.4339 87.9753 13.2019 87.9753 11.7235L79.9753 11.7235ZM85.2555 17.0131C82.3208 17.0131 79.9753 14.6087 79.9753 11.7235L87.9753 11.7235C87.9753 10.2451 86.7936 9.01311 85.2555 9.01311L85.2555 17.0131ZM90.4504 22.1804C90.4339 19.298 88.0823 16.9967 85.2788 17.013L85.2323 9.01318C92.4965 8.97088 98.4086 14.876 98.4503 22.1345L90.4504 22.1804ZM61.2638 77.6977C61.2638 76.9813 60.6641 76.3355 59.8826 76.3355L59.8826 84.3355C56.1913 84.3355 53.2638 81.3449 53.2638 77.6977L61.2638 77.6977ZM38.415 54.9987C50.977 54.9274 61.1581 65.0823 61.2637 77.6641L53.2639 77.7312C53.1949 69.5038 46.5577 62.9526 38.4604 62.9986L38.415 54.9987ZM39.819 56.3609C39.819 55.6445 39.2192 54.9987 38.4377 54.9987L38.4377 62.9987C34.7465 62.9987 31.819 60.0081 31.819 56.3609L39.819 56.3609ZM38.4377 57.7231C39.2193 57.7231 39.819 57.0772 39.819 56.3609L31.819 56.3609C31.819 52.7136 34.7465 49.7231 38.4377 49.7231L38.4377 57.7231ZM61.2637 35.0576C61.1581 47.6395 50.977 57.7943 38.415 57.723L38.4604 49.7231C46.5577 49.7691 53.1949 43.2179 53.2639 34.9905L61.2637 35.0576ZM59.8826 36.3862C60.6641 36.3862 61.2638 35.7404 61.2638 35.024L53.2638 35.024C53.2638 31.3768 56.1913 28.3862 59.8826 28.3862L59.8826 36.3862ZM58.5013 35.024C58.5013 35.7404 59.1011 36.3862 59.8826 36.3862L59.8826 28.3862C63.5738 28.3862 66.5013 31.3768 66.5013 35.024L58.5013 35.024ZM81.3501 57.723C68.7881 57.7943 58.607 47.6395 58.5015 35.0576L66.5012 34.9905C66.5702 43.2179 73.2075 49.7691 81.3047 49.7231L81.3501 57.723ZM79.9462 56.3609C79.9462 57.0772 80.5459 57.7231 81.3274 57.7231L81.3274 49.7231C85.0187 49.7231 87.9462 52.7136 87.9462 56.3609L79.9462 56.3609ZM81.3274 54.9987C80.5459 54.9987 79.9462 55.6445 79.9462 56.3609L87.9462 56.3609C87.9462 60.0081 85.0187 62.9987 81.3274 62.9987L81.3274 54.9987ZM58.5015 77.664C58.6071 65.1157 68.784 54.9274 81.3501 54.9987L81.3047 62.9986C73.2116 62.9527 66.5702 69.529 66.5012 77.7313L58.5015 77.664ZM59.8826 76.3355C59.1011 76.3355 58.5013 76.9813 58.5013 77.6977L66.5013 77.6977C66.5013 81.3449 63.5738 84.3355 59.8826 84.3355L59.8826 76.3355Z" fill="#FFA800" fill-opacity="0.4" mask="url(#path-2-inside-2)"/>
</svg>
