<svg width="96" height="96" viewBox="0 0 96 96" fill="none" xmlns="http://www.w3.org/2000/svg">
<path fill-rule="evenodd" clip-rule="evenodd" d="M96 48C96 50.934 93.6784 53.2812 90.7763 53.2812C70.1717 53.1638 53.3978 69.8875 53.2237 90.7188C53.2237 93.6528 50.9021 96 48 96C45.0979 96 42.7763 93.6528 42.7763 90.7188C42.6022 69.8875 25.8283 53.1638 5.2237 53.2812C2.32165 53.2812 0 50.934 0 48C0 45.066 2.32165 42.7188 5.2237 42.7188C25.8283 42.8362 42.6022 26.1125 42.7763 5.28117C42.7763 2.34719 45.0979 -1.27322e-07 48 0C50.9021 1.27326e-07 53.2237 2.34719 53.2237 5.28117C53.3978 26.0538 70.1717 42.8362 90.7763 42.7188C93.6784 42.7188 96 45.066 96 48ZM20.9039 48C33.46 43.4045 43.4173 33.3688 48.0044 20.7125C52.5959 33.3498 62.5506 43.3953 75.1048 47.9968C62.5486 52.5894 52.5901 62.6219 48 75.2754C43.411 62.6248 33.456 52.5941 20.9039 48Z" fill="#FFA800"/>
</svg>
