<svg xmlns="http://www.w3.org/2000/svg" width="86" height="83" fill="none"><rect id="backgroundrect" width="100%" height="100%" x="0" y="0" fill="none" stroke="none"/>

<g class="currentLayer" style=""><title>Layer 1</title><circle cx="42.876713514328" cy="42.19178080558777" r="40" fill="white" class="" id="svg_2"/><path d="M43 0C19.2884 0 0 18.6173 0 41.5C0 64.3827 19.2884 83 43 83C66.7116 83 86 64.3827 86 41.5C86 18.6173 66.7116 0 43 0ZM60.0943 42.954L35.0111 58.5165C34.7171 58.7005 34.3777 58.7917 34.0417 58.7917C33.7478 58.7917 33.4503 58.7207 33.1844 58.5807C32.6069 58.2767 32.25 57.6957 32.25 57.0625V25.9375C32.25 25.3043 32.6069 24.7233 33.1844 24.4193C33.7513 24.1188 34.4616 24.1373 35.0111 24.4835L60.0943 40.046C60.6053 40.3635 60.9167 40.9124 60.9167 41.5C60.9167 42.0876 60.6053 42.6364 60.0943 42.954Z" fill="#FFA800" id="svg_1"/></g></svg>