<svg width="150" height="150" viewBox="0 0 150 150" fill="none" xmlns="http://www.w3.org/2000/svg">
<path d="M74.9999 126.538C61.7958 126.538 48.5917 121.512 38.5396 111.46C30.4118 103.332 25.3379 93.0249 23.866 81.6524C22.441 70.6403 24.6473 59.279 30.0784 49.6617C30.8738 48.2531 32.6612 47.7556 34.0701 48.5514C35.479 49.3471 35.9761 51.1342 35.1804 52.5431C25.1351 70.3304 28.2204 92.8544 42.6828 107.317C51.5917 116.226 63.2978 120.681 74.9999 120.682C86.7049 120.683 98.406 116.228 107.317 107.317C125.136 89.4975 125.136 60.5027 107.317 42.6829C92.8546 28.2205 70.3305 25.1352 52.5429 35.1806C51.1338 35.976 49.3467 35.4791 48.5512 34.0702C47.7555 32.6613 48.2527 30.8742 49.6616 30.0785C59.2792 24.6469 70.6402 22.4408 81.6523 23.8661C93.0248 25.3377 103.332 30.4119 111.46 38.5397C131.564 58.6441 131.564 91.3561 111.46 111.46C101.408 121.512 88.204 126.538 74.9999 126.538Z" fill="#FFA800"/>
<path d="M75.0001 100.277C70.7989 100.277 66.5974 98.6783 63.3991 95.48C62.255 94.3359 62.255 92.4809 63.3991 91.3365C64.5431 90.1925 66.3982 90.1925 67.5425 91.3365C71.6546 95.4489 78.3458 95.4489 82.4579 91.3365C83.6019 90.1925 85.457 90.1925 86.6013 91.3365C87.7454 92.4806 87.7454 94.3356 86.6013 95.48C83.4027 98.6783 79.2012 100.277 75.0001 100.277Z" fill="#FFA800"/>
<path d="M59.8103 71.376C59.0606 71.376 58.3106 71.09 57.7387 70.5179C55.9557 68.7346 53.0547 68.7346 51.2717 70.5179C50.1277 71.6619 48.2726 71.6619 47.1283 70.5179C45.9842 69.3738 45.9842 67.5187 47.1283 66.3744C51.1961 62.3068 57.8143 62.3068 61.8819 66.3744C63.0259 67.5184 63.0259 69.3735 61.8819 70.5179C61.31 71.09 60.56 71.376 59.8103 71.376Z" fill="#FFA800"/>
<path d="M100.8 71.376C100.05 71.376 99.3003 71.09 98.7285 70.5179C96.9455 68.7346 94.0445 68.7346 92.2615 70.5179C91.1174 71.6619 89.2623 71.6619 88.118 70.5179C86.974 69.3738 86.974 67.5187 88.118 66.3744C92.1859 62.3068 98.8041 62.3068 102.872 66.3744C104.016 67.5184 104.016 69.3735 102.872 70.5179C102.3 71.09 101.55 71.376 100.8 71.376Z" fill="#FFA800"/>
<path d="M75 17.5781C73.3819 17.5781 72.0703 16.2665 72.0703 14.6484V2.92969C72.0703 1.31162 73.3819 0 75 0C76.6181 0 77.9297 1.31162 77.9297 2.92969V14.6484C77.9297 16.2665 76.6181 17.5781 75 17.5781Z" fill="#FFA800"/>
<path d="M119.006 33.9237C118.256 33.9237 117.506 33.6378 116.935 33.0656C115.79 31.9216 115.79 30.0665 116.935 28.9222L132.243 13.6134C133.387 12.4693 135.242 12.4693 136.387 13.6134C137.531 14.7574 137.531 16.6125 136.387 17.7568L121.078 33.0656C120.506 33.6378 119.756 33.9237 119.006 33.9237Z" fill="#FFA800"/>
<path d="M30.9941 33.9237C30.2444 33.9237 29.4944 33.6378 28.9226 33.0656L13.6138 17.7568C12.4697 16.6128 12.4697 14.7577 13.6138 13.6134C14.7578 12.4693 16.6129 12.4693 17.7572 13.6134L33.066 28.9222C34.2101 30.0662 34.2101 31.9213 33.066 33.0656C32.4938 33.6378 31.7438 33.9237 30.9941 33.9237Z" fill="#FFA800"/>
<path d="M134.315 137.244C133.565 137.244 132.815 136.958 132.243 136.386L116.935 121.078C115.79 119.933 115.79 118.078 116.935 116.934C118.079 115.79 119.934 115.79 121.078 116.934L136.387 132.243C137.531 133.387 137.531 135.242 136.387 136.386C135.815 136.958 135.065 137.244 134.315 137.244Z" fill="#FFA800"/>
<path d="M15.6854 137.244C14.9356 137.244 14.1856 136.958 13.6138 136.386C12.4697 135.242 12.4697 133.387 13.6138 132.243L28.9226 116.934C30.0666 115.79 31.9217 115.79 33.066 116.934C34.2101 118.078 34.2101 119.933 33.066 121.078L17.7569 136.386C17.1851 136.958 16.4351 137.244 15.6854 137.244Z" fill="#FFA800"/>
<path d="M75 150C73.3819 150 72.0703 148.688 72.0703 147.07V135.352C72.0703 133.734 73.3819 132.422 75 132.422C76.6181 132.422 77.9297 133.734 77.9297 135.352V147.07C77.9297 148.688 76.6181 150 75 150Z" fill="#FFA800"/>
<path d="M147.07 77.9297H135.352C133.734 77.9297 132.422 76.6181 132.422 75C132.422 73.3819 133.734 72.0703 135.352 72.0703H147.07C148.688 72.0703 150 73.3819 150 75C150 76.6181 148.688 77.9297 147.07 77.9297Z" fill="#FFA800"/>
<path d="M14.6484 77.9297H2.92969C1.31162 77.9297 0 76.6181 0 75C0 73.3819 1.31162 72.0703 2.92969 72.0703H14.6484C16.2665 72.0703 17.5781 73.3819 17.5781 75C17.5781 76.6181 16.2665 77.9297 14.6484 77.9297Z" fill="#FFA800"/>
<path d="M40.6113 43.541C39.8408 43.541 39.0849 43.2275 38.54 42.6826C37.9951 42.1377 37.6816 41.3818 37.6816 40.6113C37.6816 39.8408 37.9951 39.085 38.54 38.54C39.0849 37.9951 39.8408 37.6816 40.6113 37.6816C41.3818 37.6816 42.1376 37.9951 42.6826 38.54C43.2275 39.085 43.541 39.8408 43.541 40.6113C43.541 41.3818 43.2275 42.1377 42.6826 42.6826C42.1376 43.2275 41.3818 43.541 40.6113 43.541Z" fill="#FFA800"/>
</svg>
