<svg width="191" height="120" viewBox="0 0 191 120" fill="none" xmlns="http://www.w3.org/2000/svg">
<path fill-rule="evenodd" clip-rule="evenodd" d="M50.4517 51.7V45.7431C50.4517 38.4745 46.6586 32.076 40.9431 28.3938C41.296 27.2663 41.4803 26.0853 41.4803 24.8977C41.4803 18.4352 36.2009 13.1779 29.7114 13.1779C23.2218 13.1779 17.9425 18.4356 17.9425 24.8977C17.9425 26.1002 18.1253 27.2696 18.4789 28.3945C12.7638 32.0763 8.97105 38.4749 8.97105 45.7431V51.6988C8.97105 58.7375 12.5273 64.9614 17.9421 68.6919V74.8189C17.9421 76.0274 17.268 77.1136 16.1828 77.6541L6.50558 82.4724C2.4927 84.471 0 88.4876 0 92.9555V117.213C0 118.752 1.25269 120 2.79786 120C4.34302 120 5.59572 118.752 5.59572 117.213V94.1606L10.1536 98.6995C11.3194 99.8608 11.9618 101.404 11.9618 103.047V117.213C11.9618 118.752 13.2145 120 14.7596 120C16.3048 120 17.5575 118.752 17.5575 117.213V103.047C17.5575 99.9161 16.3331 96.9732 14.1105 94.7594L7.76685 88.4422C7.74757 88.423 7.7274 88.4055 7.70727 88.3879C7.69554 88.3777 7.68362 88.3673 7.6721 88.3568C8.07014 88.0069 8.51668 87.7022 9.00836 87.457L18.6856 82.6388C19.1814 82.3918 19.6428 82.1002 20.073 81.7762L26.9135 88.5886V117.214C26.9135 118.753 28.1662 120 29.7114 120C31.2565 120 32.5092 118.753 32.5092 117.214V88.5882L39.3502 81.7758C39.7807 82.1002 40.2418 82.3918 40.7376 82.6385L43.406 83.9673C43.8077 84.1675 44.2345 84.2622 44.6553 84.2622C45.6816 84.2622 46.6698 83.6976 47.1599 82.7217C47.8512 81.3453 47.2909 79.6717 45.9087 78.9837L43.2403 77.6549C42.1548 77.1144 41.4807 76.0281 41.4807 74.82V68.6931C46.8955 64.9626 50.4517 58.7382 50.4517 51.7ZM29.7114 18.7502C33.1154 18.7502 35.8846 21.5082 35.8846 24.8977C35.8846 25.271 35.851 25.6369 35.7868 25.9954C33.8642 25.4077 31.8247 25.0893 29.7114 25.0893C27.6011 25.0893 25.5642 25.4066 23.6445 25.9928C23.58 25.6343 23.5382 25.2703 23.5382 24.8977C23.5382 21.5078 26.3073 18.7502 29.7114 18.7502ZM29.7114 30.6621C38.0621 30.6621 44.856 37.4277 44.856 45.7435V46.7532C33.2076 50.3046 26.2655 41.4806 25.969 41.0939C25.4821 40.4479 24.7379 40.0437 23.9291 39.9865C23.1204 39.93 22.3258 40.2246 21.7524 40.7956C19.0818 43.4551 16.466 44.7379 14.5768 45.3571C14.7839 37.2192 21.4909 30.6621 29.7114 30.6621ZM29.7114 83.4936L23.2461 77.0553C23.4349 76.3368 23.5382 75.5879 23.5382 74.8193V71.4183C25.4889 72.0253 27.5626 72.3526 29.7114 72.3526C31.8601 72.3526 33.9339 72.0253 35.8846 71.4183V74.8193C35.8846 75.5879 35.9879 76.3372 36.1767 77.0553L29.7114 83.4936ZM29.7114 66.7802C21.3607 66.7802 14.5668 60.0147 14.5668 51.6988V51.1216C16.798 50.6111 20.1061 49.425 23.5572 46.6611C24.7782 47.8082 26.5233 49.2154 28.7456 50.4224C31.3741 51.85 35.0042 53.1707 39.4382 53.1707C41.1233 53.1707 42.9262 52.9757 44.8321 52.5276C44.3983 60.4597 37.7826 66.7802 29.7114 66.7802Z" fill="#FFA800"/>
<path fill-rule="evenodd" clip-rule="evenodd" d="M168.837 68.7204L184.495 76.5168C188.508 78.5151 191 82.5316 191 86.9992V117.213C191 118.752 189.747 119.999 188.202 119.999C186.657 119.999 185.404 118.752 185.404 117.213V86.9992C185.404 86.4598 185.332 85.9341 185.2 85.43L180.847 89.7649C179.681 90.9262 179.039 92.4701 179.039 94.1121V117.213C179.039 118.752 177.786 119.999 176.241 119.999C174.696 119.999 173.443 118.752 173.443 117.213V94.1121C173.443 90.9816 174.667 88.0386 176.89 85.8249L181.485 81.2485L166.334 73.7043C165.838 73.4576 165.377 73.166 164.947 72.8417L158.106 79.6541V117.214C158.106 118.752 156.853 120 155.308 120C153.763 120 152.51 118.752 152.51 117.214V79.6548L145.669 72.8424C145.239 73.1664 144.778 73.458 144.282 73.705C143.88 73.9049 143.454 73.9996 143.033 73.9996C142.007 73.9996 141.019 73.435 140.529 72.4587C139.837 71.0823 140.398 69.4087 141.78 68.7207C142.865 68.1806 143.539 67.0944 143.539 65.8859V61.9373C139.874 58.6968 137.558 53.9744 137.558 48.7212V45.5468C137.456 45.5509 137.389 45.5516 137.366 45.5516C135.821 45.5516 134.568 44.3041 134.568 42.7654V36.8097C134.568 27.0633 142.531 19.1338 152.318 19.1338H158.299C168.086 19.1338 176.049 27.0633 176.049 36.8097V42.7654C176.049 44.3041 174.796 45.5516 173.251 45.5516C173.219 45.5516 173.187 45.5512 173.155 45.5507C173.123 45.5502 173.091 45.5498 173.058 45.5498V48.7212C173.058 53.974 170.743 58.6964 167.078 61.937V65.8855C167.078 67.0936 167.752 68.1799 168.837 68.7204ZM140.163 36.8093V39.406C142.049 38.7883 144.672 37.5051 147.349 34.8393C147.89 34.301 148.606 34.0231 149.328 34.0231C149.866 34.0231 150.406 34.1769 150.879 34.4912C150.951 34.5377 158.29 39.2508 170.453 39.9042V36.8093C170.453 30.1355 165 24.7058 158.299 24.7058H152.318C145.616 24.7058 140.163 30.1355 140.163 36.8093ZM148.843 68.1215L155.308 74.5598L161.774 68.1215C161.584 67.4031 161.481 66.6541 161.481 65.8855V65.2923C159.558 66.0051 157.478 66.3967 155.308 66.3967C153.138 66.3967 151.059 66.0051 149.135 65.2923V65.8855C149.135 66.6541 149.032 67.4031 148.843 68.1215ZM143.154 48.7212C143.154 55.3954 148.606 60.8247 155.308 60.8247C162.01 60.8247 167.463 55.395 167.463 48.7212V45.2618C158.805 44.3926 152.658 41.7613 149.72 40.2389C147.397 42.2101 145.114 43.4497 143.154 44.2295V48.7212Z" fill="#FFA800"/>
<path fill-rule="evenodd" clip-rule="evenodd" d="M124.706 61.3269L110.164 54.8909C109.137 54.4363 108.474 53.4192 108.474 52.3002V48.3236C113.359 44.4477 116.498 38.4792 116.498 31.7907V26.1929C118.107 25.3075 119.173 23.5963 119.173 21.6798V21.1365C119.173 9.48191 109.651 0 97.9478 0H92.5985C80.8951 0 71.3734 9.48191 71.3734 21.1365V26.0657C71.3734 27.7503 72.1015 29.2764 73.3704 30.2529C73.5856 30.4184 73.8121 30.5639 74.048 30.6899V31.7903C74.048 38.4789 77.1874 44.4474 82.0719 48.3229V52.2998C82.0719 53.4189 81.4082 54.436 80.3812 54.8905L65.8397 61.3265C61.0773 63.4341 58 68.1496 58 73.3393V106.368C58 107.744 59.1204 108.86 60.5024 108.86C61.8845 108.86 63.0049 107.744 63.0049 106.368V73.3397C63.0049 73.0509 63.0256 72.7655 63.0556 72.4824L69.7562 79.155C70.7989 80.1937 71.3734 81.5742 71.3734 83.0432V106.368C71.3734 107.745 72.4939 108.86 73.8759 108.86C75.2579 108.86 76.3783 107.745 76.3783 106.368V83.0432C76.3783 80.2432 75.2836 77.6109 73.2953 75.631L65.3072 67.6758C66.0269 66.9322 66.8904 66.3159 67.8727 65.8809L82.169 59.5536L92.771 70.1114V106.368C92.771 107.744 93.8914 108.86 95.2735 108.86C96.6555 108.86 97.7759 107.744 97.7759 106.368V70.1117L108.378 59.5539L122.674 65.8809C123.656 66.3159 124.52 66.9322 125.239 67.6762L117.251 75.631C115.263 77.6109 114.168 80.2432 114.168 83.0432V106.368C114.168 107.745 115.289 108.86 116.671 108.86C118.053 108.86 119.173 107.745 119.173 106.368V83.0432C119.173 81.5746 119.747 80.1937 120.79 79.155L127.491 72.4827C127.521 72.7658 127.541 73.0506 127.541 73.3393V106.368C127.541 107.744 128.662 108.86 130.044 108.86C131.426 108.86 132.546 107.744 132.546 106.368V73.3397C132.545 68.15 129.468 63.4344 124.706 61.3269ZM95.2725 65.5553L85.9697 56.291C86.6771 55.1058 87.0765 53.7346 87.0765 52.3002V51.2861C89.5999 52.342 92.369 52.9272 95.2728 52.9272C98.1767 52.9272 100.945 52.3424 103.468 51.2864V52.3002C103.468 53.7349 103.868 55.1058 104.576 56.2914L95.2725 65.5553ZM95.2728 47.9428C86.3291 47.9432 79.0526 40.6971 79.0526 31.7907V30.6699C80.6141 30.0536 82.1383 29.0727 83.5974 27.732C84.6127 26.7987 84.6764 25.2221 83.7389 24.2106C82.8016 23.1996 81.2187 23.1361 80.2027 24.0694C78.9512 25.2201 77.7006 25.9634 76.4868 26.279C76.4574 26.2866 76.4357 26.29 76.4204 26.2913C76.4023 26.2564 76.378 26.1833 76.378 26.066V21.1368C76.378 12.2304 83.6544 4.98434 92.5982 4.98434H97.9474C106.892 4.98434 114.168 12.2304 114.168 21.1368V21.6801C114.168 21.7608 114.119 21.8309 114.055 21.8436C99.0699 24.7908 91.5538 19.2363 89.018 16.711C88.0407 15.7378 86.4562 15.7378 85.4792 16.711C84.5019 17.6843 84.5019 19.2622 85.4792 20.2351C93.2502 27.9736 104.59 28.1131 111.493 27.2871V31.7903C111.493 40.6967 104.217 47.9428 95.2728 47.9428Z" fill="#FFA800"/>
</svg>
