<svg width="368" height="257" viewBox="0 0 368 257" fill="none" xmlns="http://www.w3.org/2000/svg">
<path d="M111.063 117.282C112.374 117.283 113.676 117.056 114.91 116.612C117.887 118.891 121.532 120.126 125.281 120.126C129.031 120.126 132.676 118.891 135.653 116.612C137.192 117.165 138.832 117.38 140.461 117.242C142.09 117.104 143.67 116.616 145.094 115.812C146.518 115.008 147.752 113.906 148.711 112.582C149.671 111.258 150.333 109.743 150.654 108.14C150.975 106.536 150.946 104.883 150.57 103.291C150.194 101.7 149.48 100.209 148.475 98.9184C147.47 97.6284 146.2 96.57 144.749 95.8156C143.298 95.0611 141.702 94.6283 140.069 94.5465C138.572 91.9485 136.417 89.7906 133.821 88.2902C131.225 86.7898 128.28 85.9999 125.281 85.9999C122.283 85.9999 119.338 86.7898 116.742 88.2902C114.146 89.7906 111.991 91.9485 110.494 94.5465C107.53 94.6949 104.741 95.9956 102.723 98.1713C100.705 100.347 99.6168 103.225 99.6911 106.192C99.7653 109.158 100.996 111.979 103.12 114.051C105.245 116.123 108.095 117.282 111.063 117.282ZM111.063 100.22C111.315 100.219 111.567 100.236 111.817 100.27C112.435 100.357 113.065 100.239 113.609 99.9328C114.153 99.6267 114.581 99.1501 114.827 98.5765C115.705 96.5319 117.164 94.7896 119.022 93.5654C120.88 92.3411 123.056 91.6886 125.281 91.6886C127.507 91.6886 129.683 92.3411 131.541 93.5654C133.399 94.7896 134.857 96.5319 135.735 98.5765C135.982 99.1501 136.41 99.6267 136.954 99.9328C137.498 100.239 138.128 100.357 138.746 100.27C138.996 100.236 139.248 100.219 139.5 100.22C141.009 100.22 142.455 100.819 143.522 101.886C144.588 102.952 145.188 104.399 145.188 105.907C145.188 107.416 144.588 108.862 143.522 109.929C142.455 110.996 141.009 111.595 139.5 111.595C138.492 111.597 137.503 111.328 136.635 110.816C136.097 110.497 135.47 110.364 134.85 110.438C134.229 110.512 133.651 110.788 133.203 111.223C131.081 113.285 128.24 114.439 125.281 114.439C122.323 114.439 119.481 113.285 117.36 111.223C116.912 110.788 116.333 110.512 115.713 110.438C115.093 110.364 114.466 110.497 113.928 110.816C113.06 111.328 112.07 111.597 111.063 111.595C109.554 111.595 108.108 110.996 107.041 109.929C105.974 108.862 105.375 107.416 105.375 105.907C105.375 104.399 105.974 102.952 107.041 101.886C108.108 100.819 109.554 100.22 111.063 100.22Z" fill="white"/>
<path d="M179.313 97.3761C180.841 97.3761 181.373 97.9655 181.69 98.542C181.958 99.0636 182.117 99.6346 182.156 100.22C182.153 100.974 182.448 101.699 182.979 102.235C183.51 102.771 184.231 103.074 184.986 103.078C185.74 103.082 186.465 102.786 187.001 102.256C187.537 101.725 187.84 101.003 187.844 100.249C187.879 99.654 188.038 99.0728 188.31 98.5428C188.628 97.9655 189.159 97.3761 190.688 97.3761C191.442 97.3761 192.165 97.0765 192.699 96.5432C193.232 96.0099 193.531 95.2866 193.531 94.5324C193.531 93.7781 193.232 93.0548 192.699 92.5215C192.165 91.9882 191.442 91.6886 190.688 91.6886C188.196 91.6886 186.336 92.4969 185 93.6867C183.664 92.4969 181.805 91.6886 179.313 91.6886C178.558 91.6886 177.835 91.9882 177.302 92.5215C176.769 93.0548 176.469 93.7781 176.469 94.5324C176.469 95.2866 176.769 96.0099 177.302 96.5432C177.835 97.0765 178.558 97.3761 179.313 97.3761Z" fill="white"/>
<path d="M165.094 116.437C163.758 115.247 161.898 114.439 159.406 114.439C158.652 114.439 157.929 114.738 157.396 115.272C156.862 115.805 156.563 116.528 156.563 117.282C156.563 118.037 156.862 118.76 157.396 119.293C157.929 119.826 158.652 120.126 159.406 120.126C160.935 120.126 161.466 120.715 161.784 121.292C162.052 121.814 162.211 122.385 162.25 122.97C162.246 123.724 162.542 124.449 163.073 124.985C163.603 125.521 164.325 125.824 165.079 125.828C165.834 125.832 166.558 125.536 167.094 125.006C167.63 124.475 167.934 123.753 167.938 122.999C167.973 122.404 168.131 121.823 168.404 121.293C168.721 120.716 169.252 120.127 170.781 120.127C171.536 120.127 172.259 119.827 172.792 119.294C173.326 118.761 173.625 118.037 173.625 117.283C173.625 116.529 173.326 115.806 172.792 115.272C172.259 114.739 171.536 114.439 170.781 114.439C168.29 114.439 166.43 115.247 165.094 116.437Z" fill="white"/>
<path d="M185 256.626C207.626 256.626 229.326 247.638 245.325 231.639C261.324 215.639 270.313 193.94 270.313 171.314C270.313 170.559 270.013 169.836 269.48 169.303C268.946 168.769 268.223 168.47 267.469 168.47H244.719V155.902C246.947 156.696 249.296 157.099 251.661 157.095C261.946 157.095 270.313 149.637 270.313 140.47C270.3 136.989 269.105 133.615 266.924 130.902C268.158 128.835 268.809 126.471 268.808 124.064C268.808 118.006 264.764 112.707 258.599 110.482C255.981 104.37 249.332 100.22 241.875 100.22C234.419 100.22 227.769 104.37 225.152 110.482C221.687 111.678 218.747 114.045 216.839 117.176C214.17 113.759 209.747 111.595 204.906 111.595C198.957 111.595 193.638 114.865 191.431 119.709C186.525 121.581 183.326 125.872 183.326 130.772C183.325 132.613 183.786 134.424 184.669 136.039C183.045 138.201 182.164 140.83 182.156 143.534C182.156 151.011 188.948 157.095 197.296 157.095C198.909 157.097 200.515 156.867 202.063 156.41V168.47H189.296L171.635 144.059C170.751 142.858 169.606 141.872 168.287 141.176C166.969 140.48 165.509 140.091 164.019 140.038C162.529 139.986 161.046 140.271 159.681 140.873C158.317 141.475 157.106 142.378 156.14 143.514L148.004 132.77C146.989 131.488 145.697 130.452 144.224 129.74C142.752 129.027 141.138 128.657 139.502 128.657C137.866 128.657 136.252 129.027 134.78 129.74C133.307 130.452 132.015 131.488 131 132.77L103.961 168.47H102.531C101.777 168.47 101.054 168.769 100.521 169.303C99.9873 169.836 99.6877 170.559 99.6877 171.314C99.6877 193.94 108.676 215.639 124.675 231.639C140.674 247.638 162.374 256.626 185 256.626ZM213.536 209.317C211.287 199.559 205.441 192.01 197.495 188.606C186.033 183.694 180.634 177.83 178.206 174.157H227.199C228.604 174.658 234.085 176.905 236.761 182.269C238.954 186.665 238.823 192.211 236.37 198.753C231.308 212.251 231.373 221.746 236.767 231.819C227.515 239.781 216.543 245.488 204.713 248.491C213.138 236.06 216.426 221.856 213.536 209.317ZM241.304 227.617C241.24 227.681 241.174 227.742 241.11 227.806C236.667 218.566 237.964 210.698 241.694 200.75C244.737 192.634 244.778 185.538 241.813 179.657C240.773 177.608 239.395 175.749 237.737 174.157H264.575C263.912 194.291 255.589 213.413 241.304 227.617ZM222.425 133.191C222.955 132.689 223.273 132.003 223.312 131.274C223.351 130.545 223.108 129.829 222.633 129.274C221.359 127.836 220.647 125.985 220.631 124.064C220.631 120.153 223.622 116.719 228.075 115.52C228.539 115.395 228.964 115.155 229.31 114.821C229.656 114.487 229.912 114.071 230.053 113.612C231.451 109.076 236.313 105.907 241.875 105.907C247.437 105.907 252.299 109.076 253.697 113.612C253.839 114.071 254.094 114.487 254.44 114.821C254.786 115.155 255.211 115.395 255.676 115.52C260.128 116.719 263.12 120.152 263.12 124.064C263.103 125.985 262.392 127.836 261.117 129.274C260.643 129.829 260.4 130.545 260.439 131.274C260.477 132.003 260.795 132.689 261.326 133.191C262.346 134.113 263.165 135.235 263.733 136.487C264.301 137.739 264.604 139.095 264.625 140.47C264.625 146.502 258.81 151.407 251.661 151.407C249.24 151.423 246.854 150.834 244.719 149.694V144.398L251.984 139.554C252.607 139.134 253.038 138.484 253.184 137.747C253.329 137.009 253.177 136.244 252.76 135.619C252.343 134.994 251.695 134.559 250.959 134.41C250.222 134.26 249.456 134.409 248.829 134.822L244.719 137.563V131.501C244.719 130.747 244.419 130.024 243.886 129.49C243.353 128.957 242.629 128.657 241.875 128.657C241.121 128.657 240.398 128.957 239.864 129.49C239.331 130.024 239.031 130.747 239.031 131.501V137.563L234.921 134.823C234.611 134.613 234.262 134.467 233.895 134.393C233.527 134.319 233.149 134.318 232.781 134.39C232.414 134.463 232.064 134.607 231.752 134.815C231.441 135.023 231.173 135.291 230.965 135.603C230.757 135.914 230.613 136.264 230.541 136.632C230.469 137 230.47 137.378 230.544 137.745C230.619 138.112 230.765 138.461 230.975 138.772C231.184 139.082 231.453 139.348 231.766 139.555L239.031 144.398V149.694C236.896 150.834 234.51 151.423 232.089 151.407C224.941 151.407 219.125 146.502 219.125 140.47C219.146 139.095 219.45 137.739 220.017 136.487C220.585 135.235 221.404 134.113 222.425 133.191ZM197.296 151.407C192.084 151.407 187.844 147.875 187.844 143.534C187.86 142.551 188.079 141.581 188.486 140.687C188.894 139.792 189.481 138.99 190.212 138.333C190.742 137.832 191.06 137.146 191.099 136.417C191.139 135.688 190.896 134.972 190.422 134.417C189.529 133.412 189.028 132.117 189.013 130.772C189.013 128.019 191.153 125.594 194.337 124.739C194.802 124.614 195.227 124.373 195.573 124.039C195.919 123.705 196.175 123.289 196.317 122.829C197.323 119.563 200.854 117.282 204.906 117.282C208.959 117.282 212.49 119.563 213.496 122.828C213.61 123.197 213.799 123.539 214.051 123.833C214.303 124.127 214.612 124.367 214.959 124.537C215.036 126.781 215.678 128.97 216.826 130.9C214.582 133.668 213.383 137.138 213.44 140.702C213.496 144.266 214.804 147.696 217.135 150.392C215.688 151.064 214.112 151.41 212.517 151.407C210.866 151.417 209.235 151.047 207.75 150.325V137.189C207.75 136.434 207.451 135.711 206.917 135.178C206.384 134.644 205.661 134.345 204.906 134.345C204.152 134.345 203.429 134.644 202.896 135.178C202.362 135.711 202.063 136.434 202.063 137.189V141.119L200.491 140.333C199.817 140.002 199.04 139.952 198.329 140.192C197.618 140.432 197.031 140.943 196.695 141.614C196.36 142.285 196.303 143.062 196.537 143.775C196.772 144.487 197.279 145.079 197.947 145.419L202.063 147.477V150.325C200.578 151.047 198.947 151.417 197.296 151.407ZM207.75 156.41C209.298 156.867 210.903 157.097 212.517 157.095C215.802 157.105 219.014 156.128 221.738 154.291C224.872 156.143 228.449 157.111 232.089 157.095C234.455 157.099 236.803 156.696 239.031 155.902V168.47H207.75V156.41ZM163.672 145.72C164.324 145.71 164.969 145.857 165.553 146.148C166.136 146.439 166.642 146.866 167.026 147.393L182.276 168.47H145.068L160.317 147.393C160.702 146.866 161.207 146.439 161.791 146.148C162.375 145.857 163.02 145.71 163.672 145.72ZM135.534 136.204C136.018 135.622 136.625 135.154 137.311 134.833C137.996 134.511 138.744 134.345 139.502 134.345C140.259 134.345 141.007 134.511 141.692 134.833C142.378 135.154 142.985 135.622 143.469 136.204L152.636 148.308L138.048 168.47H111.096L135.534 136.204ZM171.684 174.157C173.548 178.174 179.255 186.977 195.255 193.834C201.514 196.516 206.157 202.624 207.994 210.594C210.905 223.225 206.555 237.936 196.356 250.136C192.594 250.67 188.799 250.938 185 250.939C164.375 250.939 144.553 242.936 129.711 228.614C114.868 214.292 106.162 194.77 105.425 174.157H171.684Z" fill="white"/>
<mask id="path-2-inside-1" fill="white">
<path fill-rule="evenodd" clip-rule="evenodd" d="M246.61 24.5315C246.61 25.3228 247.25 25.9676 248.036 25.9676C248.821 25.9676 249.461 25.3228 249.461 24.5315C249.52 18.9042 254.059 14.3906 259.646 14.4199C260.431 14.4199 261.071 13.7751 261.071 12.9838C261.071 12.1925 260.431 11.5477 259.646 11.5477C254.059 11.577 249.52 7.06343 249.461 1.43613C249.461 0.644799 248.821 6.04148e-07 248.036 5.69807e-07C247.25 5.35466e-07 246.61 0.644799 246.61 1.43613C246.552 7.06343 242.012 11.577 236.426 11.5477C235.64 11.5477 235 12.1925 235 12.9838C235 13.7751 235.64 14.4199 236.426 14.4199C242.012 14.3906 246.552 18.9042 246.61 24.5315ZM257.492 80.4234C257.114 80.4234 256.794 80.101 256.794 79.72C256.765 76.9064 254.495 74.6496 251.702 74.6789C251.324 74.6789 251.004 74.3565 251.004 73.9755C251.004 73.5945 251.324 73.2721 251.702 73.2721C254.495 73.3014 256.765 71.0446 256.794 68.2309C256.794 67.8499 257.114 67.5275 257.492 67.5275C257.871 67.5275 258.191 67.8499 258.191 68.2309C258.22 71.0153 260.489 73.3014 263.283 73.2721C263.661 73.2721 263.981 73.5945 263.981 73.9755C263.981 74.3565 263.661 74.6789 263.283 74.6789C260.489 74.6496 258.22 76.9064 258.191 79.72C258.191 80.101 257.871 80.4234 257.492 80.4234ZM360.41 74.9427C360.41 75.3237 360.73 75.6461 361.108 75.6461C361.487 75.6461 361.807 75.3237 361.807 74.9427C361.836 72.129 364.105 69.8722 366.899 69.9015C367.277 69.9015 367.597 69.5792 367.597 69.1981C367.597 68.8171 367.277 68.4947 366.899 68.4947C364.105 68.524 361.836 66.2379 361.807 63.4536C361.807 63.0726 361.487 62.7502 361.108 62.7502C360.73 62.7502 360.41 63.0726 360.41 63.4536C360.381 66.2673 358.111 68.524 355.318 68.4947C354.94 68.4947 354.62 68.8171 354.62 69.1981C354.62 69.5792 354.94 69.9015 355.318 69.9015C358.111 69.8722 360.381 72.129 360.41 74.9427ZM329.45 84.1456C329.45 83.4422 330.032 82.856 330.731 82.856C331.429 82.856 332.011 83.4422 332.011 84.1456C332.04 89.2454 336.172 93.3193 341.206 93.29C341.904 93.29 342.486 93.8762 342.486 94.5796C342.486 95.283 341.904 95.8692 341.206 95.8692C336.172 95.8399 332.04 99.9431 332.011 105.014C332.011 105.717 331.429 106.303 330.731 106.303C330.032 106.303 329.45 105.717 329.45 105.014C329.421 99.9138 325.289 95.8399 320.256 95.8692C319.557 95.8692 318.975 95.283 318.975 94.5796C318.975 93.8762 319.557 93.29 320.256 93.29C325.289 93.3193 329.421 89.2161 329.45 84.1456ZM294.883 25.9676C293.428 25.9676 292.264 27.14 292.264 28.6054C292.177 39.0101 283.767 47.3631 273.438 47.3044C271.983 47.3044 270.819 48.4768 270.819 49.9422C270.819 51.4077 271.983 52.58 273.438 52.58C283.767 52.5214 292.177 60.8744 292.264 71.2791C292.264 72.7445 293.428 73.9169 294.883 73.9169C296.337 73.9169 297.501 72.7445 297.501 71.2791C297.589 60.8744 305.998 52.5214 316.327 52.58C317.782 52.58 318.946 51.4077 318.946 49.9422C318.946 48.4768 317.782 47.3044 316.327 47.3044C305.998 47.3631 297.589 38.9807 297.501 28.6054C297.501 27.14 296.337 25.9676 294.883 25.9676Z"/>
</mask>
<path d="M246.61 24.5315L251.61 24.5315L251.61 24.5056L251.61 24.4798L246.61 24.5315ZM249.461 24.5315L244.462 24.4798L244.461 24.5056L244.461 24.5315L249.461 24.5315ZM259.646 14.4199L259.619 19.4199L259.632 19.4199L259.646 19.4199L259.646 14.4199ZM259.646 11.5477L259.646 6.54768L259.632 6.54768L259.619 6.54775L259.646 11.5477ZM249.461 1.43613L244.461 1.43613L244.461 1.46199L244.462 1.48784L249.461 1.43613ZM246.61 1.43613L251.61 1.48784L251.61 1.46199L251.61 1.43614L246.61 1.43613ZM236.426 11.5477L236.452 6.54775L236.439 6.54768L236.426 6.54768L236.426 11.5477ZM236.426 14.4199L236.426 19.4199L236.439 19.4199L236.452 19.4199L236.426 14.4199ZM256.794 79.72L261.794 79.72L261.794 79.6941L261.794 79.6683L256.794 79.72ZM251.702 74.6789L251.702 79.6789L251.728 79.6789L251.754 79.6786L251.702 74.6789ZM251.702 73.2721L251.754 68.2723L251.728 68.2721L251.702 68.2721L251.702 73.2721ZM256.794 68.2309L261.794 68.2827L261.794 68.2568L261.794 68.2309L256.794 68.2309ZM258.191 68.2309L253.191 68.2309L253.191 68.2571L253.191 68.2832L258.191 68.2309ZM263.283 73.2721L263.283 68.2721L263.256 68.2721L263.23 68.2723L263.283 73.2721ZM263.283 74.6789L263.23 79.6786L263.256 79.6789L263.283 79.6789L263.283 74.6789ZM258.191 79.72L253.191 79.6683L253.191 79.6941L253.191 79.72L258.191 79.72ZM360.41 74.9427L365.41 74.9427L365.41 74.9168L365.41 74.891L360.41 74.9427ZM361.807 74.9427L356.807 74.891L356.807 74.9168L356.807 74.9427L361.807 74.9427ZM366.899 69.9015L366.846 74.9013L366.873 74.9015L366.899 74.9015L366.899 69.9015ZM366.899 68.4947L366.899 63.4947L366.873 63.4947L366.846 63.495L366.899 68.4947ZM361.807 63.4536L356.807 63.4536L356.807 63.4797L356.807 63.5059L361.807 63.4536ZM360.41 63.4536L365.41 63.5053L365.41 63.4795L365.41 63.4536L360.41 63.4536ZM355.318 68.4947L355.37 63.495L355.344 63.4947L355.318 63.4947L355.318 68.4947ZM355.318 69.9015L355.318 74.9015L355.344 74.9015L355.37 74.9013L355.318 69.9015ZM329.45 84.1456L334.45 84.1743L334.45 84.16L334.45 84.1456L329.45 84.1456ZM332.011 84.1456L327.011 84.1456L327.011 84.1599L327.011 84.1742L332.011 84.1456ZM341.206 93.29L341.206 88.29L341.191 88.29L341.177 88.2901L341.206 93.29ZM341.206 95.8692L341.177 100.869L341.191 100.869L341.206 100.869L341.206 95.8692ZM332.011 105.014L327.011 104.985L327.011 104.999L327.011 105.014L332.011 105.014ZM329.45 105.014L334.45 105.014L334.45 104.999L334.45 104.985L329.45 105.014ZM320.256 95.8692L320.256 100.869L320.27 100.869L320.285 100.869L320.256 95.8692ZM320.256 93.29L320.285 88.2901L320.27 88.29L320.256 88.29L320.256 93.29ZM292.264 28.6054L297.264 28.6474L297.264 28.6264L297.264 28.6054L292.264 28.6054ZM273.438 47.3044L273.466 42.3045L273.452 42.3044L273.438 42.3044L273.438 47.3044ZM273.438 52.58L273.438 57.58L273.452 57.58L273.466 57.58L273.438 52.58ZM292.264 71.2791L297.264 71.2791L297.264 71.2581L297.264 71.2371L292.264 71.2791ZM297.501 71.2791L292.502 71.2371L292.501 71.2581L292.501 71.2791L297.501 71.2791ZM316.327 52.58L316.299 57.58L316.313 57.58L316.327 57.58L316.327 52.58ZM316.327 47.3044L316.327 42.3044L316.313 42.3044L316.299 42.3045L316.327 47.3044ZM297.501 28.6054L292.501 28.6054L292.501 28.6265L292.502 28.6475L297.501 28.6054ZM248.036 20.9676C250.046 20.9676 251.61 22.5956 251.61 24.5315L241.61 24.5315C241.61 28.05 244.455 30.9676 248.036 30.9676L248.036 20.9676ZM244.461 24.5315C244.461 22.5956 246.026 20.9676 248.036 20.9676L248.036 30.9676C251.617 30.9676 254.461 28.05 254.461 24.5315L244.461 24.5315ZM259.672 9.42001C251.292 9.37605 244.548 16.1431 244.462 24.4798L254.461 24.5832C254.491 21.6653 256.826 19.4052 259.619 19.4199L259.672 9.42001ZM256.071 12.9838C256.071 11.0479 257.636 9.41995 259.646 9.41995L259.646 19.4199C263.227 19.4199 266.071 16.5023 266.071 12.9838L256.071 12.9838ZM259.646 16.5477C257.636 16.5477 256.071 14.9198 256.071 12.9838L266.071 12.9838C266.071 9.46517 263.227 6.54768 259.646 6.54768L259.646 16.5477ZM244.462 1.48784C244.548 9.82455 251.292 16.5916 259.672 16.5476L259.619 6.54775C256.826 6.56241 254.491 4.30231 254.461 1.38443L244.462 1.48784ZM248.036 5C246.026 5 244.461 3.37202 244.461 1.43613L254.461 1.43614C254.461 -2.08242 251.617 -5 248.036 -5L248.036 5ZM251.61 1.43614C251.61 3.37203 250.046 5 248.036 5L248.036 -5C244.455 -5 241.61 -2.08243 241.61 1.43613L251.61 1.43614ZM236.4 16.5476C244.779 16.5916 251.523 9.82456 251.61 1.48784L241.61 1.38443C241.58 4.30231 239.246 6.56241 236.452 6.54775L236.4 16.5476ZM240 12.9838C240 14.9198 238.436 16.5477 236.426 16.5477L236.426 6.54768C232.845 6.54768 230 9.46517 230 12.9838L240 12.9838ZM236.426 9.41994C238.436 9.41994 240 11.048 240 12.9838L230 12.9838C230 16.5023 232.845 19.4199 236.426 19.4199L236.426 9.41994ZM251.61 24.4798C251.523 16.1431 244.779 9.37605 236.4 9.42001L236.452 19.4199C239.246 19.4052 241.58 21.6653 241.61 24.5832L251.61 24.4798ZM251.794 79.72C251.794 82.8283 254.319 85.4234 257.492 85.4234L257.492 75.4234C259.91 75.4234 261.794 77.3738 261.794 79.72L251.794 79.72ZM251.754 79.6786C251.763 79.6785 251.765 79.6792 251.762 79.6788C251.76 79.6784 251.758 79.6777 251.756 79.6769C251.752 79.6754 251.756 79.6763 251.764 79.6842C251.772 79.6922 251.78 79.7025 251.784 79.7138C251.787 79.7191 251.789 79.7254 251.791 79.7333C251.792 79.741 251.794 79.7533 251.794 79.7717L261.794 79.6683C261.737 74.1505 257.261 69.6203 251.649 69.6792L251.754 79.6786ZM246.004 73.9755C246.004 77.0837 248.528 79.6789 251.702 79.6789L251.702 69.6789C254.119 69.6789 256.004 71.6293 256.004 73.9755L246.004 73.9755ZM251.702 68.2721C248.528 68.2721 246.004 70.8672 246.004 73.9755L256.004 73.9755C256.004 76.3217 254.119 78.2721 251.702 78.2721L251.702 68.2721ZM251.794 68.1792C251.794 68.1976 251.792 68.2099 251.791 68.2176C251.789 68.2255 251.787 68.2319 251.784 68.2372C251.78 68.2485 251.772 68.2588 251.764 68.2667C251.756 68.2746 251.752 68.2755 251.756 68.2741C251.758 68.2732 251.76 68.2725 251.762 68.2721C251.765 68.2717 251.763 68.2724 251.754 68.2723L251.649 78.2718C257.261 78.3307 261.737 73.8005 261.794 68.2827L251.794 68.1792ZM257.492 62.5275C254.319 62.5275 251.794 65.1227 251.794 68.2309L261.794 68.2309C261.794 70.5771 259.91 72.5275 257.492 72.5275L257.492 62.5275ZM263.191 68.2309C263.191 65.1227 260.666 62.5275 257.492 62.5275L257.492 72.5275C255.075 72.5275 253.191 70.5771 253.191 68.2309L263.191 68.2309ZM263.23 68.2723C263.227 68.2724 263.228 68.2721 263.233 68.273C263.238 68.2739 263.241 68.2752 263.243 68.2761C263.247 68.2777 263.24 68.2753 263.227 68.2628C263.215 68.2501 263.205 68.2349 263.199 68.221C263.194 68.2102 263.191 68.1982 263.19 68.1787L253.191 68.2832C253.248 73.752 257.704 78.3309 263.335 78.2718L263.23 68.2723ZM268.981 73.9755C268.981 70.8672 266.456 68.2721 263.283 68.2721L263.283 78.2721C260.866 78.2721 258.981 76.3217 258.981 73.9755L268.981 73.9755ZM263.283 79.6789C266.456 79.6789 268.981 77.0837 268.981 73.9755L258.981 73.9755C258.981 71.6293 260.865 69.6789 263.283 69.6789L263.283 79.6789ZM263.19 79.7717C263.191 79.7533 263.192 79.741 263.194 79.7333C263.196 79.7254 263.198 79.7191 263.2 79.7138C263.205 79.7025 263.212 79.6922 263.22 79.6842C263.228 79.6763 263.232 79.6754 263.229 79.6769C263.227 79.6777 263.224 79.6784 263.222 79.6788C263.22 79.6792 263.222 79.6785 263.23 79.6786L263.335 69.6792C257.723 69.6203 253.248 74.1505 253.191 79.6683L263.19 79.7717ZM257.492 85.4234C260.666 85.4234 263.191 82.8283 263.191 79.72L253.191 79.72C253.191 77.3737 255.075 75.4234 257.492 75.4234L257.492 85.4234ZM361.108 70.6461C363.526 70.6461 365.41 72.5965 365.41 74.9427L355.41 74.9427C355.41 78.0509 357.935 80.6461 361.108 80.6461L361.108 70.6461ZM356.807 74.9427C356.807 72.5964 358.691 70.6461 361.108 70.6461L361.108 80.6461C364.282 80.6461 366.807 78.051 366.807 74.9427L356.807 74.9427ZM366.951 64.9018C361.339 64.8429 356.864 69.3731 356.807 74.891L366.806 74.9944C366.807 74.976 366.809 74.9637 366.81 74.956C366.812 74.9481 366.814 74.9418 366.816 74.9364C366.821 74.9251 366.828 74.9148 366.836 74.9069C366.844 74.899 366.848 74.8981 366.845 74.8996C366.843 74.9004 366.84 74.9011 366.838 74.9015C366.836 74.9019 366.838 74.9012 366.846 74.9013L366.951 64.9018ZM362.597 69.1981C362.597 66.8519 364.482 64.9015 366.899 64.9015L366.899 74.9015C370.073 74.9015 372.597 72.3064 372.597 69.1981L362.597 69.1981ZM366.899 73.4947C364.481 73.4947 362.597 71.5443 362.597 69.1981L372.597 69.1981C372.597 66.0899 370.073 63.4947 366.899 63.4947L366.899 73.4947ZM356.807 63.5059C356.864 68.9746 361.32 73.5535 366.951 73.4945L366.846 63.495C366.843 63.495 366.844 63.4947 366.849 63.4957C366.854 63.4966 366.857 63.4979 366.86 63.4988C366.863 63.5003 366.856 63.498 366.843 63.4855C366.831 63.4728 366.821 63.4576 366.815 63.4437C366.81 63.4329 366.807 63.4209 366.806 63.4014L356.807 63.5059ZM361.108 67.7502C358.691 67.7502 356.807 65.7999 356.807 63.4536L366.807 63.4536C366.807 60.3452 364.282 57.7502 361.108 57.7502L361.108 67.7502ZM365.41 63.4536C365.41 65.7998 363.526 67.7502 361.108 67.7502L361.108 57.7502C357.935 57.7502 355.41 60.3453 355.41 63.4536L365.41 63.4536ZM355.266 73.4945C360.877 73.5533 365.353 69.0232 365.41 63.5053L355.41 63.4019C355.41 63.4203 355.408 63.4326 355.407 63.4403C355.405 63.4482 355.403 63.4545 355.4 63.4599C355.396 63.4711 355.389 63.4814 355.38 63.4894C355.373 63.4973 355.368 63.4982 355.372 63.4967C355.374 63.4959 355.376 63.4952 355.378 63.4948C355.381 63.4944 355.379 63.4951 355.37 63.495L355.266 73.4945ZM359.62 69.1981C359.62 71.5443 357.735 73.4947 355.318 73.4947L355.318 63.4947C352.144 63.4947 349.62 66.0899 349.62 69.1981L359.62 69.1981ZM355.318 64.9015C357.735 64.9015 359.62 66.8519 359.62 69.1981L349.62 69.1981C349.62 72.3064 352.144 74.9015 355.318 74.9015L355.318 64.9015ZM365.41 74.891C365.353 69.3731 360.877 64.8429 355.266 64.9018L355.37 74.9013C355.379 74.9012 355.381 74.9019 355.378 74.9015C355.376 74.9011 355.374 74.9004 355.372 74.8996C355.369 74.8981 355.373 74.899 355.38 74.9069C355.389 74.9148 355.396 74.9251 355.4 74.9364C355.403 74.9417 355.405 74.9481 355.407 74.956C355.408 74.9637 355.41 74.976 355.41 74.9944L365.41 74.891ZM330.731 77.856C327.237 77.856 324.45 80.715 324.45 84.1456L334.45 84.1456C334.45 86.1695 332.828 87.856 330.731 87.856L330.731 77.856ZM337.011 84.1456C337.011 80.715 334.224 77.856 330.731 77.856L330.731 87.856C328.633 87.856 327.011 86.1695 327.011 84.1456L337.011 84.1456ZM341.177 88.2901C338.92 88.3032 337.024 86.4711 337.011 84.1171L327.011 84.1742C327.056 92.0196 333.424 98.3354 341.235 98.2899L341.177 88.2901ZM347.486 94.5796C347.486 91.1489 344.7 88.29 341.206 88.29L341.206 98.29C339.109 98.29 337.486 96.6034 337.486 94.5796L347.486 94.5796ZM341.206 100.869C344.7 100.869 347.486 98.0102 347.486 94.5796L337.486 94.5796C337.486 92.5557 339.109 90.8692 341.206 90.8692L341.206 100.869ZM337.011 105.042C337.024 102.707 338.931 100.856 341.177 100.869L341.235 90.8692C333.413 90.8237 327.056 97.1794 327.011 104.985L337.011 105.042ZM330.731 111.303C334.224 111.303 337.011 108.444 337.011 105.014L327.011 105.014C327.011 102.99 328.633 101.303 330.731 101.303L330.731 111.303ZM324.45 105.014C324.45 108.444 327.237 111.303 330.731 111.303L330.731 101.303C332.828 101.303 334.45 102.99 334.45 105.014L324.45 105.014ZM320.285 100.869C322.541 100.856 324.437 102.688 324.45 105.042L334.45 104.985C334.406 97.1395 328.038 90.8238 320.226 90.8692L320.285 100.869ZM313.975 94.5796C313.975 98.0102 316.762 100.869 320.256 100.869L320.256 90.8692C322.353 90.8692 323.975 92.5557 323.975 94.5796L313.975 94.5796ZM320.256 88.29C316.762 88.29 313.975 91.1489 313.975 94.5796L323.975 94.5796C323.975 96.6034 322.353 98.29 320.256 98.29L320.256 88.29ZM324.45 84.117C324.437 86.4523 322.531 88.3032 320.285 88.2901L320.226 98.2899C328.048 98.3354 334.405 91.9798 334.45 84.1743L324.45 84.117ZM297.264 28.6054C297.264 29.8672 296.223 30.9676 294.883 30.9676L294.883 20.9676C290.632 20.9676 287.264 24.4127 287.264 28.6054L297.264 28.6054ZM273.409 52.3044C286.529 52.3788 297.153 41.7735 297.264 28.6474L287.264 28.5635C287.2 36.2466 281.005 42.3473 273.466 42.3045L273.409 52.3044ZM275.819 49.9422C275.819 51.204 274.778 52.3044 273.438 52.3044L273.438 42.3044C269.187 42.3044 265.819 45.7495 265.819 49.9422L275.819 49.9422ZM273.438 47.58C274.778 47.58 275.819 48.6804 275.819 49.9422L265.819 49.9422C265.819 54.1349 269.187 57.58 273.438 57.58L273.438 47.58ZM297.264 71.2371C297.153 58.111 286.529 47.5057 273.409 47.5801L273.466 57.58C281.005 57.5372 287.2 63.6379 287.264 71.321L297.264 71.2371ZM294.883 68.9169C296.223 68.9169 297.264 70.0173 297.264 71.2791L287.264 71.2791C287.264 75.4717 290.632 78.9169 294.883 78.9169L294.883 68.9169ZM292.501 71.2791C292.501 70.0173 293.542 68.9169 294.883 68.9169L294.883 78.9169C299.133 78.9169 302.501 75.4717 302.501 71.2791L292.501 71.2791ZM316.356 47.5801C303.236 47.5057 292.612 58.111 292.502 71.2371L302.501 71.321C302.566 63.6379 308.76 57.5372 316.299 57.58L316.356 47.5801ZM313.946 49.9422C313.946 48.6804 314.987 47.58 316.327 47.58L316.327 57.58C320.578 57.58 323.946 54.1349 323.946 49.9422L313.946 49.9422ZM316.327 52.3044C314.987 52.3044 313.946 51.204 313.946 49.9422L323.946 49.9422C323.946 45.7496 320.578 42.3044 316.327 42.3044L316.327 52.3044ZM292.502 28.6475C292.612 41.7391 303.231 52.3788 316.356 52.3044L316.299 42.3045C308.765 42.3473 302.566 36.2224 302.501 28.5633L292.502 28.6475ZM294.883 30.9676C293.542 30.9676 292.501 29.8672 292.501 28.6054L302.501 28.6054C302.501 24.4127 299.133 20.9676 294.883 20.9676L294.883 30.9676Z" fill="white" mask="url(#path-2-inside-1)"/>
<mask id="path-4-inside-2" fill="white">
<path fill-rule="evenodd" clip-rule="evenodd" d="M25.8797 175.105C25.8797 175.483 26.2021 175.803 26.5831 175.803C29.3967 175.832 31.6535 178.102 31.6242 180.895C31.6242 181.273 31.9466 181.593 32.3276 181.593C32.7086 181.593 33.031 181.273 33.031 180.895C33.0017 178.102 35.2585 175.832 38.0722 175.803C38.4532 175.803 38.7756 175.483 38.7756 175.105C38.7756 174.726 38.4532 174.406 38.0722 174.406C35.2878 174.377 33.0017 172.108 33.031 169.314C33.031 168.936 32.7086 168.616 32.3276 168.616C31.9466 168.616 31.6242 168.936 31.6242 169.314C31.6535 172.108 29.3967 174.377 26.5831 174.406C26.2021 174.406 25.8797 174.726 25.8797 175.105ZM31.3604 72.187C30.9794 72.187 30.657 71.8669 30.657 71.4886C30.657 71.1103 30.9794 70.7903 31.3604 70.7903C34.1741 70.7612 36.4309 68.4916 36.4016 65.6982C36.4016 65.3199 36.724 64.9999 37.105 64.9999C37.486 64.9999 37.8084 65.3199 37.8084 65.6982C37.7791 68.4916 40.0652 70.7612 42.8495 70.7903C43.2305 70.7903 43.5529 71.1103 43.5529 71.4886C43.5529 71.8669 43.2305 72.187 42.8495 72.187C40.0359 72.216 37.7791 74.4856 37.8084 77.279C37.8084 77.6573 37.486 77.9773 37.105 77.9773C36.724 77.9773 36.4016 77.6573 36.4016 77.279C36.4309 74.4856 34.1741 72.216 31.3604 72.187ZM22.1575 103.147C22.8609 103.147 23.4471 102.565 23.4471 101.866C23.4471 101.168 22.8609 100.586 22.1575 100.586C17.0577 100.557 12.9838 96.4251 13.0131 91.3913C13.0131 90.6929 12.4269 90.111 11.7235 90.111C11.0201 90.111 10.4339 90.6929 10.4339 91.3913C10.4632 96.4251 6.36001 100.557 1.28959 100.586C0.586175 100.586 0 101.168 0 101.866C0 102.565 0.586175 103.147 1.28959 103.147C6.38932 103.176 10.4632 107.308 10.4339 112.341C10.4339 113.04 11.0201 113.622 11.7235 113.622C12.4269 113.622 13.0131 113.04 13.0131 112.341C12.9838 107.308 17.087 103.176 22.1575 103.147ZM80.3355 137.714C80.3355 139.169 79.1631 140.333 77.6977 140.333C67.2931 140.42 58.94 148.83 58.9987 159.159C58.9987 160.614 57.8263 161.778 56.3609 161.778C54.8954 161.778 53.7231 160.614 53.7231 159.159C53.7817 148.83 45.4287 140.42 35.024 140.333C33.5586 140.333 32.3862 139.169 32.3862 137.714C32.3862 136.26 33.5586 135.096 35.024 135.096C45.4287 135.008 53.7817 126.599 53.7231 116.27C53.7231 114.815 54.8954 113.651 56.3609 113.651C57.8263 113.651 58.9987 114.815 58.9987 116.27C58.94 126.599 67.3224 135.008 77.6977 135.096C79.1631 135.096 80.3355 136.26 80.3355 137.714Z"/>
</mask>
<path d="M26.5831 175.803V170.803H26.609L26.6348 170.803L26.5831 175.803ZM31.6242 180.895H26.6242V180.869L26.6245 180.843L31.6242 180.895ZM33.031 180.895L38.0308 180.843L38.031 180.869V180.895H33.031ZM38.0722 175.803L38.0205 170.803L38.0463 170.803H38.0722V175.803ZM38.0722 174.406V179.406H38.046L38.0199 179.406L38.0722 174.406ZM33.031 169.314H38.031V169.34L38.0308 169.367L33.031 169.314ZM31.6242 169.314L26.6245 169.367L26.6242 169.34V169.314H31.6242ZM26.5831 174.406L26.6348 179.406L26.609 179.406H26.5831V174.406ZM31.3604 72.187V67.187H31.3863L31.4121 67.1872L31.3604 72.187ZM31.3604 70.7903L31.4121 75.79L31.3863 75.7903H31.3604V70.7903ZM36.4016 65.6982L31.4018 65.7507L31.4016 65.7244V65.6982H36.4016ZM37.8084 65.6982H42.8084V65.7244L42.8081 65.7507L37.8084 65.6982ZM42.8495 70.7903V75.7903H42.8234L42.7972 75.79L42.8495 70.7903ZM42.8495 72.187L42.7978 67.1872L42.8236 67.187H42.8495V72.187ZM37.8084 77.279L42.8081 77.2265L42.8084 77.2528V77.279H37.8084ZM36.4016 77.279H31.4016V77.2528L31.4018 77.2265L36.4016 77.279ZM22.1575 103.147L22.1288 98.1467L22.1431 98.1466H22.1575V103.147ZM22.1575 100.586V105.586H22.1432L22.1289 105.586L22.1575 100.586ZM13.0131 91.3913H18.0131V91.4058L18.013 91.4204L13.0131 91.3913ZM10.4339 91.3913L5.43403 91.4204L5.43394 91.4058V91.3913H10.4339ZM1.28959 100.586L1.31828 105.586L1.30393 105.586H1.28959L1.28959 100.586ZM1.28959 103.147L1.28959 98.1466H1.30385L1.31811 98.1467L1.28959 103.147ZM10.4339 112.341H5.43394V112.327L5.43403 112.312L10.4339 112.341ZM13.0131 112.341L18.013 112.312L18.0131 112.327V112.341H13.0131ZM77.6977 140.333L77.6557 135.333L77.6767 135.333H77.6977V140.333ZM58.9987 159.159L63.9986 159.131L63.9987 159.145V159.159H58.9987ZM53.7231 159.159H48.7231V159.145L48.7232 159.131L53.7231 159.159ZM35.024 140.333V135.333H35.045L35.066 135.333L35.024 140.333ZM35.024 135.096L35.066 140.095L35.045 140.096H35.024V135.096ZM53.7231 116.27L48.7232 116.298L48.7231 116.284V116.27H53.7231ZM58.9987 116.27H63.9987V116.284L63.9986 116.298L58.9987 116.27ZM77.6977 135.096V140.096H77.6767L77.6556 140.095L77.6977 135.096ZM26.5831 180.803C23.4748 180.803 20.8797 178.278 20.8797 175.105H30.8797C30.8797 172.687 28.9293 170.803 26.5831 170.803V180.803ZM26.6245 180.843C26.6246 180.834 26.6239 180.832 26.6243 180.835C26.6247 180.837 26.6254 180.839 26.6262 180.841C26.6277 180.845 26.6268 180.84 26.6189 180.833C26.6109 180.825 26.6006 180.817 26.5893 180.813C26.584 180.81 26.5777 180.808 26.5698 180.806C26.5621 180.805 26.5498 180.803 26.5314 180.803L26.6348 170.803C32.1526 170.86 36.6828 175.336 36.6239 180.948L26.6245 180.843ZM32.3276 186.593C29.2194 186.593 26.6242 184.069 26.6242 180.895H36.6242C36.6242 178.478 34.6738 176.593 32.3276 176.593V186.593ZM38.031 180.895C38.031 184.069 35.4359 186.593 32.3276 186.593V176.593C29.9814 176.593 28.031 178.478 28.031 180.895H38.031ZM38.1239 180.803C38.1055 180.803 38.0932 180.805 38.0855 180.806C38.0776 180.808 38.0712 180.81 38.0659 180.813C38.0546 180.817 38.0443 180.825 38.0364 180.833C38.0285 180.84 38.0276 180.845 38.029 180.841C38.0299 180.839 38.0306 180.837 38.031 180.835C38.0314 180.832 38.0307 180.834 38.0308 180.843L28.0313 180.948C27.9724 175.336 32.5026 170.86 38.0205 170.803L38.1239 180.803ZM43.7756 175.105C43.7756 178.278 41.1804 180.803 38.0722 180.803V170.803C35.726 170.803 33.7756 172.687 33.7756 175.105H43.7756ZM38.0722 169.406C41.1804 169.406 43.7756 171.931 43.7756 175.105H33.7756C33.7756 177.522 35.726 179.406 38.0722 179.406V169.406ZM38.0308 169.367C38.0307 169.37 38.031 169.369 38.0301 169.364C38.0292 169.359 38.0279 169.356 38.027 169.353C38.0254 169.35 38.0278 169.357 38.0403 169.37C38.053 169.382 38.0682 169.392 38.0821 169.398C38.0929 169.403 38.1049 169.406 38.1244 169.407L38.0199 179.406C32.5511 179.349 27.9722 174.893 28.0313 169.262L38.0308 169.367ZM32.3276 163.616C35.4359 163.616 38.031 166.141 38.031 169.314H28.031C28.031 171.731 29.9814 173.616 32.3276 173.616V163.616ZM26.6242 169.314C26.6242 166.14 29.2194 163.616 32.3276 163.616V173.616C34.6738 173.616 36.6242 171.731 36.6242 169.314H26.6242ZM26.5314 169.407C26.5498 169.406 26.5621 169.405 26.5698 169.403C26.5777 169.401 26.584 169.399 26.5893 169.397C26.6006 169.392 26.6109 169.385 26.6189 169.377C26.6268 169.369 26.6277 169.365 26.6262 169.368C26.6254 169.37 26.6247 169.373 26.6243 169.375C26.6239 169.377 26.6246 169.375 26.6245 169.367L36.6239 169.262C36.6828 174.874 32.1526 179.349 26.6348 179.406L26.5314 169.407ZM20.8797 175.105C20.8797 171.931 23.4748 169.406 26.5831 169.406V179.406C28.9294 179.406 30.8797 177.522 30.8797 175.105H20.8797ZM35.657 71.4886C35.657 69.0713 33.7066 67.187 31.3604 67.187V77.187C28.2522 77.187 25.657 74.6624 25.657 71.4886H35.657ZM31.3604 75.7903C33.7067 75.7903 35.657 73.9058 35.657 71.4886H25.657C25.657 68.3149 28.2521 65.7903 31.3604 65.7903V75.7903ZM41.4013 65.6458C41.4602 71.2577 36.93 75.7329 31.4121 75.79L31.3087 65.7905C31.3271 65.7903 31.3394 65.7885 31.3471 65.7868C31.355 65.7851 31.3614 65.783 31.3667 65.7807C31.378 65.7759 31.3883 65.7687 31.3962 65.7607C31.4041 65.7528 31.405 65.7487 31.4036 65.7523C31.4027 65.7542 31.402 65.7566 31.4016 65.7586C31.4012 65.7608 31.4019 65.7588 31.4018 65.7507L41.4013 65.6458ZM37.105 69.9999C39.4512 69.9999 41.4016 68.1154 41.4016 65.6982H31.4016C31.4016 62.5245 33.9967 59.9999 37.105 59.9999V69.9999ZM32.8084 65.6982C32.8084 68.1155 34.7588 69.9999 37.105 69.9999V59.9999C40.2132 59.9999 42.8084 62.5244 42.8084 65.6982H32.8084ZM42.7972 75.79C37.3285 75.7328 32.7496 71.2767 32.8087 65.6458L42.8081 65.7507C42.8081 65.7543 42.8084 65.7528 42.8074 65.7479C42.8065 65.7434 42.8052 65.7396 42.8043 65.7374C42.8028 65.7337 42.8052 65.7411 42.8176 65.7536C42.8303 65.7664 42.8455 65.7764 42.8594 65.7823C42.8702 65.787 42.8822 65.7903 42.9017 65.7905L42.7972 75.79ZM38.5529 71.4886C38.5529 73.9057 40.5032 75.7903 42.8495 75.7903V65.7903C45.9579 65.7903 48.5529 68.315 48.5529 71.4886H38.5529ZM42.8495 67.187C40.5033 67.187 38.5529 69.0714 38.5529 71.4886H48.5529C48.5529 74.6624 45.9578 77.187 42.8495 77.187V67.187ZM32.8087 77.3315C32.7498 71.7195 37.28 67.2443 42.7978 67.1872L42.9012 77.1867C42.8828 77.1869 42.8705 77.1888 42.8628 77.1904C42.8549 77.1921 42.8486 77.1942 42.8433 77.1965C42.832 77.2013 42.8217 77.2085 42.8137 77.2165C42.8058 77.2245 42.8049 77.2285 42.8064 77.2249C42.8072 77.223 42.8079 77.2206 42.8083 77.2186C42.8087 77.2164 42.808 77.2184 42.8081 77.2265L32.8087 77.3315ZM37.105 72.9773C34.7588 72.9773 32.8084 74.8617 32.8084 77.279H42.8084C42.8084 80.4528 40.2132 82.9773 37.105 82.9773V72.9773ZM41.4016 77.279C41.4016 74.8618 39.4512 72.9773 37.105 72.9773V82.9773C33.9967 82.9773 31.4016 80.4528 31.4016 77.279H41.4016ZM31.4121 67.1872C36.93 67.2443 41.4602 71.7195 41.4013 77.3315L31.4018 77.2265C31.4019 77.2184 31.4012 77.2164 31.4016 77.2186C31.402 77.2206 31.4027 77.223 31.4036 77.2249C31.405 77.2285 31.4041 77.2245 31.3962 77.2165C31.3883 77.2085 31.378 77.2013 31.3667 77.1965C31.3614 77.1942 31.355 77.1921 31.3471 77.1904C31.3394 77.1888 31.3271 77.1869 31.3087 77.1867L31.4121 67.1872ZM28.4471 101.866C28.4471 105.36 25.5881 108.147 22.1575 108.147V98.1466C20.1336 98.1466 18.4471 99.7692 18.4471 101.866H28.4471ZM22.1575 95.5861C25.5881 95.5861 28.4471 98.3725 28.4471 101.866H18.4471C18.4471 103.964 20.1336 105.586 22.1575 105.586V95.5861ZM18.013 91.4204C17.9999 93.6768 19.832 95.5727 22.186 95.5862L22.1289 105.586C14.2835 105.541 7.96772 99.1735 8.0132 91.3622L18.013 91.4204ZM11.7235 85.111C15.1542 85.111 18.0131 87.8975 18.0131 91.3913H8.01312C8.01312 93.4884 9.69969 95.111 11.7235 95.111V85.111ZM5.43394 91.3913C5.43394 87.8974 8.29288 85.111 11.7235 85.111V95.111C13.7474 95.111 15.4339 93.4884 15.4339 91.3913H5.43394ZM1.26089 95.5862C3.59627 95.5727 5.4471 93.6663 5.43403 91.4204L15.4339 91.3622C15.4794 99.184 9.12375 105.541 1.31828 105.586L1.26089 95.5862ZM-5 101.866C-5 98.3725 -2.14107 95.5861 1.28959 95.5861L1.28959 105.586C3.31342 105.586 5 103.963 5 101.866H-5ZM1.28959 108.147C-2.14107 108.147 -5 105.36 -5 101.866H5C5 99.7692 3.31342 98.1466 1.28959 98.1466L1.28959 108.147ZM5.43403 112.312C5.44716 110.056 3.61506 108.16 1.26106 108.147L1.31811 98.1467C9.16359 98.1915 15.4793 104.559 15.4339 112.371L5.43403 112.312ZM11.7235 118.622C8.29288 118.622 5.43394 115.835 5.43394 112.341H15.4339C15.4339 110.244 13.7474 108.622 11.7235 108.622L11.7235 118.622ZM18.0131 112.341C18.0131 115.835 15.1542 118.622 11.7235 118.622L11.7235 108.622C9.69969 108.622 8.01312 110.244 8.01312 112.341H18.0131ZM22.1862 108.147C19.8508 108.16 18 110.066 18.013 112.312L8.0132 112.371C7.96766 104.549 14.3233 98.1915 22.1288 98.1467L22.1862 108.147ZM77.6977 135.333C76.4359 135.333 75.3355 136.374 75.3355 137.714H85.3355C85.3355 141.965 81.8904 145.333 77.6977 145.333V135.333ZM53.9987 159.188C53.9243 146.068 64.5296 135.443 77.6557 135.333L77.7396 145.333C70.0565 145.397 63.9558 151.592 63.9986 159.131L53.9987 159.188ZM56.3609 156.778C55.0991 156.778 53.9987 157.819 53.9987 159.159H63.9987C63.9987 163.41 60.5536 166.778 56.3609 166.778V156.778ZM58.7231 159.159C58.7231 157.819 57.6227 156.778 56.3609 156.778V166.778C52.1682 166.778 48.7231 163.41 48.7231 159.159H58.7231ZM35.066 135.333C48.1921 135.443 58.7974 146.068 58.723 159.188L48.7232 159.131C48.7659 151.592 42.6652 145.397 34.9821 145.333L35.066 135.333ZM37.3862 137.714C37.3862 136.374 36.2858 135.333 35.024 135.333V145.333C30.8314 145.333 27.3862 141.965 27.3862 137.714H37.3862ZM35.024 140.096C36.2858 140.096 37.3862 139.055 37.3862 137.714H27.3862C27.3862 133.464 30.8314 130.096 35.024 130.096V140.096ZM58.723 116.241C58.7974 129.361 48.1922 139.985 35.066 140.095L34.9821 130.096C42.6652 130.031 48.7659 123.837 48.7232 116.298L58.723 116.241ZM56.3609 118.651C57.6227 118.651 58.7231 117.61 58.7231 116.27H48.7231C48.7231 112.019 52.1682 108.651 56.3609 108.651V118.651ZM53.9987 116.27C53.9987 117.61 55.0991 118.651 56.3609 118.651V108.651C60.5535 108.651 63.9987 112.019 63.9987 116.27H53.9987ZM77.6556 140.095C64.564 139.985 53.9243 129.366 53.9987 116.241L63.9986 116.298C63.9558 123.832 70.0807 130.031 77.7398 130.096L77.6556 140.095ZM75.3355 137.714C75.3355 139.055 76.4359 140.096 77.6977 140.096V130.096C81.8904 130.096 85.3355 133.464 85.3355 137.714H75.3355Z" fill="white" mask="url(#path-4-inside-2)"/>
</svg>
