<svg width="154" height="150" viewBox="0 0 154 150" fill="none" xmlns="http://www.w3.org/2000/svg">
<path d="M130.812 48.2861C127.815 41.0711 119.905 37.3699 112.574 39.4418L97.5293 3.22945C96.6082 1.01228 94.392 -0.266802 92.0146 0.0470144C89.638 0.361159 87.8282 2.17082 87.512 4.55085C85.3415 20.8941 77.0484 34.9024 62.8633 46.1873C52.1369 54.7204 41.8892 58.4015 41.7899 58.436C41.6391 58.489 41.4955 58.557 41.3565 58.6321L15.6327 69.3509C2.7102 74.7356 -3.42891 89.6456 1.94778 102.587C7.01206 114.777 20.5135 120.936 32.8637 117.111L53.8972 145.831C56.6821 149.633 61.6636 151.024 66.0113 149.212L71.3963 146.969C74.2974 145.76 76.4453 143.328 77.2892 140.296C78.133 137.265 77.5508 134.07 75.6926 131.533L57.6574 106.907L60.8537 105.575C61.0055 105.53 61.1555 105.475 61.3004 105.405C61.3978 105.358 71.2277 100.672 84.8324 99.0673C102.824 96.9445 118.591 100.927 131.697 110.905C133.221 112.065 135.158 112.293 136.843 111.591C137.269 111.413 137.678 111.176 138.061 110.881C139.959 109.413 140.615 106.937 139.694 104.72L124.649 68.5073C131.284 64.7602 134.238 56.5321 131.24 49.3171L130.812 48.2861ZM68.4017 131.851L70.8003 135.126C71.551 136.151 71.7862 137.441 71.4452 138.665C71.1048 139.889 70.2374 140.871 69.0659 141.359L63.6809 143.603C61.9252 144.335 59.9138 143.773 58.7893 142.238L38.6997 114.807L51.893 109.31L57.2555 116.632L55.9169 117.19C54.3701 117.834 53.6379 119.612 54.2815 121.161C54.9251 122.711 56.7006 123.444 58.2474 122.799L60.948 121.674L64.709 126.809L63.8313 127.175C62.2845 127.819 61.5524 129.597 62.1959 131.147C62.8395 132.696 64.615 133.429 66.1618 132.784L68.4017 131.851ZM51.0627 89.1122L33.6581 96.3645C32.1113 97.0091 31.3792 98.7872 32.0227 100.336C32.6663 101.885 34.4418 102.619 35.9886 101.974L53.3932 94.7218L56.0075 101.015L51.9161 102.719C51.8637 102.738 51.8112 102.756 51.7592 102.777L32.8016 110.677C32.775 110.688 32.7503 110.703 32.7239 110.714C22.9085 114.753 11.6296 110.075 7.54898 100.253C3.45732 90.4047 8.1292 79.0582 17.9632 74.9605L41.1665 65.2919L51.0627 89.1122ZM132.954 104.314C119.13 94.7395 102.242 90.8504 83.9112 93.0587C73.7615 94.2813 65.7019 97.0392 61.6039 98.6688L46.7726 62.9697C50.8159 61.2069 58.4504 57.4249 66.4697 51.0769C80.9542 39.6111 90.1038 24.8727 93.0659 8.30362L132.954 104.314ZM125.639 51.6513C127.349 55.767 125.848 60.4313 122.292 62.8343L114.93 45.1155C119.138 44.2833 123.5 46.5045 125.21 50.6203L125.639 51.6513Z" fill="#FFA800"/>
<path d="M125.066 32.0885C125.739 31.8081 126.314 31.2852 126.647 30.5722L131.664 19.8387C132.374 18.3191 131.72 16.5108 130.203 15.7994C128.686 15.0882 126.88 15.7434 126.17 17.2628L121.153 27.9959C120.443 29.5155 121.097 31.3238 122.614 32.0353C123.419 32.4127 124.305 32.4054 125.066 32.0885Z" fill="#FFA800"/>
<path d="M140.852 64.7619C139.275 64.1956 137.538 65.0164 136.972 66.5956C136.406 68.1748 137.226 69.9142 138.803 70.4808L149.941 74.4823C150.682 74.7482 151.457 74.7084 152.13 74.428C152.891 74.1111 153.521 73.4866 153.821 72.6486C154.387 71.0694 153.567 69.3299 151.99 68.7633L140.852 64.7619Z" fill="#FFA800"/>
<path d="M141.373 41.2001L135.17 43.7846C133.623 44.4291 132.891 46.2073 133.535 47.7564C134.178 49.3054 135.954 50.0387 137.501 49.3941L143.703 46.8096C145.25 46.1651 145.982 44.387 145.338 42.8379C144.695 41.2888 142.919 40.5556 141.373 41.2001Z" fill="#FFA800"/>
<path d="M25.4253 101.828C25.2842 101.686 25.1298 101.559 24.9661 101.45C24.7984 101.339 24.6241 101.244 24.4417 101.168C24.2564 101.094 24.0647 101.036 23.8687 100.999C23.6755 100.961 23.477 100.942 23.2798 100.942C23.0798 100.943 22.8812 100.963 22.6897 101C22.2981 101.078 21.9256 101.233 21.5946 101.456C21.4305 101.568 21.2762 101.694 21.1373 101.835C20.9984 101.975 20.8693 102.13 20.76 102.294C20.6479 102.46 20.5541 102.637 20.4788 102.82C20.4036 103.002 20.3454 103.194 20.3087 103.391C20.2708 103.584 20.2515 103.783 20.2526 103.983C20.2525 104.181 20.2727 104.38 20.3109 104.574C20.349 104.769 20.4063 104.962 20.4821 105.145C20.5578 105.327 20.6543 105.504 20.7665 105.671C20.8763 105.832 21.0029 105.987 21.144 106.129C21.2839 106.268 21.4383 106.394 21.6021 106.504C21.767 106.616 21.9441 106.71 22.1265 106.786C22.3089 106.861 22.5007 106.919 22.6978 106.959C22.891 106.997 23.0924 107.015 23.2895 107.015C23.4867 107.015 23.6853 106.995 23.8797 106.957C24.0769 106.917 24.2659 106.858 24.4479 106.782C24.6328 106.705 24.8078 106.613 24.9747 106.5C25.1388 106.389 25.2903 106.263 25.432 106.122C25.5709 105.982 25.6972 105.827 25.8065 105.663C25.9174 105.495 26.0113 105.318 26.0893 105.134C26.1646 104.952 26.22 104.761 26.2595 104.563C26.2974 104.37 26.3166 104.171 26.3167 103.973C26.3157 103.773 26.2955 103.574 26.2585 103.382C26.2191 103.185 26.159 102.993 26.0833 102.811C26.0075 102.628 25.9138 102.45 25.8028 102.286C25.6919 102.121 25.5652 101.967 25.4253 101.828Z" fill="#FFA800"/>
</svg>
