<svg width="150" height="100" viewBox="0 0 150 100" fill="none" xmlns="http://www.w3.org/2000/svg">
<path d="M141.79 50.9002L142.035 50.846C143.112 55.7009 143.749 60.6535 143.938 65.6152L143.948 65.8747H143.689H143.434H143.208L143.185 65.6499C141.604 50.0271 128.528 37.7499 112.5 37.7499C98.4862 37.7499 86.7483 47.1598 82.9273 59.9535L82.8037 60.3675L82.5064 60.054C80.6228 58.0683 78.1639 56.4998 74.9997 56.4998C71.8356 56.4998 69.3766 58.0683 67.493 60.054L67.1957 60.3675L67.0721 59.9535C63.2511 47.1598 51.5132 37.7499 37.4999 37.7499C21.4716 37.7499 8.39618 50.0271 6.81442 65.6499L6.79166 65.8747H6.5657H6.31081H6.05107L6.061 65.6152C6.25083 60.6535 6.8876 55.7006 7.96489 50.846L7.96491 50.846L16.6197 11.8995C16.6197 11.8995 16.6197 11.8995 16.6198 11.8994C17.3899 8.42832 20.4148 5.99988 23.9683 5.99988C28.1223 5.99988 31.4997 9.37716 31.4997 13.5284V15.6248C31.4997 17.2141 32.7855 18.4999 34.3748 18.4999C35.964 18.4999 37.2499 17.2141 37.2499 15.6248V13.5284C37.2499 6.20814 31.2889 0.25 23.9683 0.25C17.7012 0.25 12.3707 4.52346 11.0045 10.65L141.79 50.9002ZM141.79 50.9002L142.035 50.846L133.38 11.8965C132.61 8.42829 129.585 6.00017 126.031 6.00017C121.877 6.00017 118.5 9.37745 118.5 13.5287V15.6251C118.5 17.2144 117.214 18.5002 115.625 18.5002C114.035 18.5002 112.75 17.2144 112.75 15.6251V13.5287C112.75 6.20844 118.711 0.250293 126.031 0.250293C132.298 0.250293 137.629 4.52359 138.995 10.6473L147.65 49.5993C149.043 55.8866 149.749 62.3289 149.75 68.7498C149.75 70.3391 148.464 71.6249 146.875 71.6249H143.434H143.208L143.185 71.8497C141.604 87.4726 128.528 99.7498 112.5 99.7498C95.6698 99.7498 81.9933 86.2456 81.5777 69.5121L81.5767 69.4711L81.5627 69.4326C81.1865 68.401 80.3749 66.6239 79.2582 65.0994C78.1535 63.5913 76.6912 62.25 75 62.25C74.128 62.25 73.3197 62.6094 72.5976 63.1525C71.8759 63.6954 71.2268 64.4317 70.6666 65.2129C69.5466 66.7747 68.7556 68.5536 68.436 69.4431L68.4224 69.4811L68.4214 69.5214C68.0008 86.2506 54.3272 99.7498 37.5001 99.7498C21.4716 99.7498 8.39619 87.4726 6.81472 71.8497L6.79196 71.6249H6.56599H3.12509C1.53582 71.6249 0.25 70.3391 0.25 68.7498C0.25 62.329 0.956098 55.8866 2.3499 49.5994C2.34991 49.5994 2.34992 49.5994 2.34993 49.5993L11.0044 10.6502L141.79 50.9002ZM12.25 68.7498C12.25 82.6726 23.5738 93.9996 37.4999 93.9996C51.4259 93.9996 62.7497 82.6726 62.7497 68.7498C62.7497 54.8271 51.4256 43.5 37.4999 43.5C23.5741 43.5 12.25 54.8271 12.25 68.7498ZM87.2497 68.7498C87.2497 82.6726 98.5735 93.9996 112.5 93.9996C126.426 93.9996 137.749 82.6726 137.749 68.7498C137.749 54.8271 126.425 43.5 112.5 43.5C98.5738 43.5 87.2497 54.8271 87.2497 68.7498ZM18.9999 68.7498C18.9999 58.5485 27.2985 50.2499 37.4999 50.2499C39.0891 50.2499 40.375 51.5357 40.3752 53.1247C40.3752 54.714 39.0894 55.9998 37.5001 55.9998C30.4712 55.9998 24.7501 61.7179 24.7501 68.7498C24.7501 70.3391 23.4643 71.6249 21.875 71.6249C20.2857 71.6249 18.9999 70.3391 18.9999 68.7498ZM93.9996 68.7498C93.9996 58.5485 102.298 50.2499 112.5 50.2499C114.089 50.2499 115.375 51.5357 115.375 53.1247C115.375 54.714 114.089 55.9998 112.5 55.9998C105.471 55.9998 99.7498 61.7179 99.7498 68.7498C99.7498 70.3391 98.464 71.6249 96.8747 71.6249C95.2854 71.6249 93.9996 70.3391 93.9996 68.7498Z" fill="#FFA800" stroke="white" stroke-width="0.5"/>
</svg>
