<svg width="150" height="132" viewBox="0 0 150 132" fill="none" xmlns="http://www.w3.org/2000/svg">
<path d="M40.3796 9.30618C41.5934 9.30618 42.5769 8.32239 42.5769 7.10891V2.92883C42.5769 1.71536 41.5934 0.731567 40.3796 0.731567C39.1659 0.731567 38.1824 1.71536 38.1824 2.92883V7.10862C38.1824 8.32239 39.1661 9.30618 40.3796 9.30618Z" fill="#FFA800"/>
<path d="M38.1824 41.3646V45.5444C38.1824 46.7578 39.1659 47.7416 40.3796 47.7416C41.5934 47.7416 42.5769 46.7578 42.5769 45.5444V41.3646C42.5769 40.1511 41.5934 39.1673 40.3796 39.1673C39.1659 39.1673 38.1824 40.1511 38.1824 41.3646Z" fill="#FFA800"/>
<path d="M26.7146 13.679C27.5718 14.5368 28.9632 14.5374 29.8221 13.679C30.6802 12.8209 30.6802 11.4296 29.8218 10.5715L26.8661 7.61604C26.0083 6.75765 24.617 6.75794 23.7586 7.61604C22.9005 8.47415 22.9005 9.86546 23.7589 10.7236L26.7146 13.679Z" fill="#FFA800"/>
<path d="M54.0451 34.7942C53.1867 33.936 51.7957 33.936 50.9373 34.7942C50.0792 35.6523 50.0792 37.0436 50.9373 37.9017L53.893 40.8574C54.7514 41.7155 56.1424 41.7155 57.0008 40.8574C57.8592 39.9993 57.8589 38.608 57.0008 37.7499L54.0451 34.7942Z" fill="#FFA800"/>
<path d="M19.0721 26.434H23.2522C24.4659 26.434 25.4494 25.4502 25.4494 24.2368C25.4494 23.0233 24.4659 22.0395 23.2522 22.0395H19.0721C17.8583 22.0395 16.8748 23.0233 16.8748 24.2368C16.8748 25.4502 17.8583 26.434 19.0721 26.434Z" fill="#FFA800"/>
<path d="M55.3103 24.2368C55.3103 25.4502 56.2938 26.434 57.5075 26.434H61.6876C62.9014 26.434 63.8849 25.4502 63.8849 24.2368C63.8849 23.0233 62.9014 22.0395 61.6876 22.0395H57.5075C56.2941 22.0395 55.3103 23.0233 55.3103 24.2368Z" fill="#FFA800"/>
<path d="M26.7144 34.7942L23.7586 37.7499C22.3696 39.1389 23.373 41.5011 25.3125 41.5011C25.8747 41.5011 26.4372 41.2866 26.8664 40.8574L29.8222 37.9017C30.6803 37.0436 30.6803 35.6523 29.8222 34.7942C28.9638 33.936 27.5728 33.936 26.7144 34.7942Z" fill="#FFA800"/>
<path d="M54.0448 13.679L57.0005 10.7236C57.8589 9.86546 57.8589 8.47444 57.0008 7.61604C56.1427 6.75794 54.7514 6.75765 53.8933 7.61604L50.9373 10.5715C50.0789 11.4296 50.0789 12.8206 50.937 13.679C51.7951 14.5371 53.187 14.5374 54.0448 13.679Z" fill="#FFA800"/>
<path d="M149.994 123.975C149.832 119.941 146.072 116.655 141.86 117.346C140.168 114.11 147.562 128.867 117.186 68.1138L106.774 47.2895C104.707 43.1566 98.8119 43.1704 96.7526 47.2895C95.8192 49.1566 89.729 61.3371 88.4666 63.861L76.0072 38.9423C74.1322 35.1905 68.7724 35.1905 66.8968 38.9423L56.683 59.3701C56.2509 60.2341 55.014 60.2405 54.5789 59.3701C52.703 55.6186 47.3437 55.6189 45.4682 59.3701L28.9471 92.4138L28.4994 91.5182C27.1145 88.7487 23.1829 88.7771 21.8124 91.5182C21.8124 91.5179 21.8124 91.5184 21.8124 91.5182L4.13408 126.874H2.19727C0.983496 126.874 0 127.858 0 129.071C0 130.285 0.983496 131.268 2.19727 131.268C4.57002 131.268 110.497 131.268 112.863 131.268C114.076 131.268 115.06 130.285 115.06 129.071C115.06 127.858 114.076 126.874 112.863 126.874H88.5223C87.5405 126.874 86.7513 126.072 86.7644 125.09C86.7782 124.127 87.6718 123.248 88.7153 123.369C90.3894 123.563 91.8914 122.462 92.2066 120.808C92.5816 118.846 94.3046 117.424 96.3012 117.424C97.7701 117.424 99.1708 118.214 99.9249 119.538C100.648 120.807 102.12 121.455 103.508 121.15C103.828 121.08 104.563 120.756 105.574 121.083C108.144 121.911 108.634 119.601 111.112 120.094C112.838 120.438 114.498 119.268 114.729 117.538C115.182 114.154 118.099 111.601 121.515 111.601C123.981 111.601 126.269 112.942 127.483 115.1C128.188 116.352 129.531 117.071 130.901 117.01C131.217 116.996 131.534 116.94 131.845 116.84C134.453 116.004 137.162 117.39 138.159 119.796C138.826 121.406 140.591 122.248 142.265 121.753C143.914 121.266 145.538 122.525 145.603 124.151C145.663 125.649 144.472 126.874 142.992 126.874H123.117C121.904 126.874 120.92 127.858 120.92 129.071C120.92 130.285 121.904 131.268 123.117 131.268H142.992C146.97 131.268 150.154 127.971 149.994 123.975ZM100.683 49.2545C101.13 48.363 102.399 48.3665 102.843 49.2545C103.69 50.9496 110.095 63.7588 112.554 68.678L104.81 76.5911C104.622 76.7824 104.317 76.7953 104.114 76.621L99.4207 72.5821C97.3251 70.7783 94.1563 71.0613 92.4135 73.2105L89.8972 76.3145C89.7132 76.5419 89.3751 76.5688 89.1568 76.3673L87.769 75.0835C96.4796 57.6624 96.2549 58.1118 100.683 49.2545ZM25.1555 94.6579L31.1531 106.653L27.963 109.913L24.4459 106.886C22.8776 105.537 20.6751 105.556 19.154 106.66L25.1555 94.6579ZM9.04775 126.874L15.4664 114.036C18.6155 114.825 20.0268 112.331 21.6741 110.299L25.1827 113.318C26.8878 114.785 29.4542 114.672 31.0251 113.068L33.2326 110.812L41.2638 126.874H9.04775ZM56.9604 126.874H46.1771L31.4036 97.3268L49.3995 61.3356C49.6582 60.8186 50.39 60.8183 50.6487 61.3359C52.7024 65.4434 58.5624 65.439 60.6143 61.3359L70.8281 40.9075C71.0868 40.3904 71.8184 40.3904 72.077 40.9075L86.0106 68.7744C84.7655 71.2635 59.3625 122.07 56.9604 126.874ZM133.161 112.205C132.446 112.223 131.739 112.321 131.048 112.498C128.994 109.211 125.382 107.207 121.515 107.207C116.359 107.207 111.895 110.748 110.631 115.637C109.185 115.605 107.728 115.975 106.431 116.76C105.413 116.508 104.339 116.478 103.306 116.674C101.713 114.408 99.0967 113.03 96.3015 113.03C92.5488 113.03 89.2702 115.475 88.1476 118.975C84.9902 119.166 82.4165 121.78 82.3705 125.028C82.362 125.631 82.459 126.309 82.623 126.873H61.8744L85.7226 79.1766L86.1732 79.5934C88.2504 81.5147 91.5287 81.281 93.3117 79.0819L95.828 75.9782C96.0099 75.7541 96.3369 75.7257 96.5549 75.9129L101.249 79.952C103.204 81.6337 106.148 81.5074 107.951 79.6649L114.634 72.8364L134.339 112.246C133.953 112.208 133.553 112.194 133.161 112.205Z" fill="#FFA800"/>
<path d="M40.3796 37.3834C45.2549 37.3834 49.7057 34.7054 51.9952 30.395C52.5642 29.3233 52.157 27.9929 51.0853 27.4234C50.0136 26.8538 48.6835 27.2617 48.1137 28.333C46.5888 31.2047 43.6251 32.9883 40.3796 32.9883C35.5538 32.9883 31.6278 29.0622 31.6278 24.2365C31.6278 19.4107 35.5538 15.4846 40.3796 15.4846C43.6251 15.4846 46.5885 17.2682 48.1137 20.1399C48.6826 21.2113 50.013 21.6191 51.0853 21.0495C52.157 20.4803 52.5645 19.1502 51.9952 18.078C49.706 13.7672 45.2549 11.0895 40.3796 11.0895C33.1307 11.0895 27.2329 16.9869 27.2329 24.2362C27.2329 31.4854 33.1307 37.3834 40.3796 37.3834Z" fill="#FFA800"/>
</svg>
