<svg width="402" height="257" viewBox="0 0 402 257" fill="none" xmlns="http://www.w3.org/2000/svg">
<mask id="path-1-inside-1" fill="white">
<path fill-rule="evenodd" clip-rule="evenodd" d="M280.61 24.5315C280.61 25.3228 281.25 25.9676 282.036 25.9676C282.821 25.9676 283.461 25.3228 283.461 24.5315C283.52 18.9042 288.059 14.3906 293.646 14.4199C294.431 14.4199 295.071 13.7751 295.071 12.9838C295.071 12.1925 294.431 11.5477 293.646 11.5477C288.059 11.577 283.52 7.06343 283.461 1.43613C283.461 0.644799 282.821 6.04148e-07 282.036 5.69807e-07C281.25 5.35466e-07 280.61 0.644799 280.61 1.43613C280.552 7.06343 276.012 11.577 270.426 11.5477C269.64 11.5477 269 12.1925 269 12.9838C269 13.7751 269.64 14.4199 270.426 14.4199C276.012 14.3906 280.552 18.9042 280.61 24.5315ZM291.492 80.4234C291.114 80.4234 290.794 80.101 290.794 79.72C290.765 76.9064 288.495 74.6496 285.702 74.6789C285.324 74.6789 285.004 74.3565 285.004 73.9755C285.004 73.5945 285.324 73.2721 285.702 73.2721C288.495 73.3014 290.765 71.0446 290.794 68.2309C290.794 67.8499 291.114 67.5275 291.492 67.5275C291.871 67.5275 292.191 67.8499 292.191 68.2309C292.22 71.0153 294.489 73.3014 297.283 73.2721C297.661 73.2721 297.981 73.5945 297.981 73.9755C297.981 74.3565 297.661 74.6789 297.283 74.6789C294.489 74.6496 292.22 76.9064 292.191 79.72C292.191 80.101 291.871 80.4234 291.492 80.4234ZM394.41 74.9427C394.41 75.3237 394.73 75.6461 395.108 75.6461C395.487 75.6461 395.807 75.3237 395.807 74.9427C395.836 72.129 398.105 69.8722 400.899 69.9015C401.277 69.9015 401.597 69.5792 401.597 69.1981C401.597 68.8171 401.277 68.4947 400.899 68.4947C398.105 68.524 395.836 66.2379 395.807 63.4536C395.807 63.0726 395.487 62.7502 395.108 62.7502C394.73 62.7502 394.41 63.0726 394.41 63.4536C394.381 66.2673 392.111 68.524 389.318 68.4947C388.94 68.4947 388.62 68.8171 388.62 69.1981C388.62 69.5792 388.94 69.9015 389.318 69.9015C392.111 69.8722 394.381 72.129 394.41 74.9427ZM363.45 84.1456C363.45 83.4422 364.032 82.856 364.731 82.856C365.429 82.856 366.011 83.4422 366.011 84.1456C366.04 89.2454 370.172 93.3193 375.206 93.29C375.904 93.29 376.486 93.8762 376.486 94.5796C376.486 95.283 375.904 95.8692 375.206 95.8692C370.172 95.8399 366.04 99.9431 366.011 105.014C366.011 105.717 365.429 106.303 364.731 106.303C364.032 106.303 363.45 105.717 363.45 105.014C363.421 99.9138 359.289 95.8399 354.256 95.8692C353.557 95.8692 352.975 95.283 352.975 94.5796C352.975 93.8762 353.557 93.29 354.256 93.29C359.289 93.3193 363.421 89.2161 363.45 84.1456ZM328.883 25.9676C327.428 25.9676 326.264 27.14 326.264 28.6054C326.177 39.0101 317.767 47.3631 307.438 47.3044C305.983 47.3044 304.819 48.4768 304.819 49.9422C304.819 51.4077 305.983 52.58 307.438 52.58C317.767 52.5214 326.177 60.8744 326.264 71.2791C326.264 72.7445 327.428 73.9169 328.883 73.9169C330.337 73.9169 331.501 72.7445 331.501 71.2791C331.589 60.8744 339.998 52.5214 350.327 52.58C351.782 52.58 352.946 51.4077 352.946 49.9422C352.946 48.4768 351.782 47.3044 350.327 47.3044C339.998 47.3631 331.589 38.9807 331.501 28.6054C331.501 27.14 330.337 25.9676 328.883 25.9676Z"/>
</mask>
<path d="M280.61 24.5315L285.61 24.5315L285.61 24.5056L285.61 24.4798L280.61 24.5315ZM283.461 24.5315L278.462 24.4798L278.461 24.5056L278.461 24.5315L283.461 24.5315ZM293.646 14.4199L293.619 19.4199L293.632 19.4199L293.646 19.4199L293.646 14.4199ZM293.646 11.5477L293.646 6.54768L293.632 6.54768L293.619 6.54775L293.646 11.5477ZM283.461 1.43613L278.461 1.43613L278.461 1.46199L278.462 1.48784L283.461 1.43613ZM280.61 1.43613L285.61 1.48784L285.61 1.46199L285.61 1.43614L280.61 1.43613ZM270.426 11.5477L270.452 6.54775L270.439 6.54768L270.426 6.54768L270.426 11.5477ZM270.426 14.4199L270.426 19.4199L270.439 19.4199L270.452 19.4199L270.426 14.4199ZM290.794 79.72L295.794 79.72L295.794 79.6941L295.794 79.6683L290.794 79.72ZM285.702 74.6789L285.702 79.6789L285.728 79.6789L285.754 79.6786L285.702 74.6789ZM285.702 73.2721L285.754 68.2723L285.728 68.2721L285.702 68.2721L285.702 73.2721ZM290.794 68.2309L295.794 68.2827L295.794 68.2568L295.794 68.2309L290.794 68.2309ZM292.191 68.2309L287.191 68.2309L287.191 68.2571L287.191 68.2832L292.191 68.2309ZM297.283 73.2721L297.283 68.2721L297.256 68.2721L297.23 68.2723L297.283 73.2721ZM297.283 74.6789L297.23 79.6786L297.256 79.6789L297.283 79.6789L297.283 74.6789ZM292.191 79.72L287.191 79.6683L287.191 79.6941L287.191 79.72L292.191 79.72ZM394.41 74.9427L399.41 74.9427L399.41 74.9168L399.41 74.891L394.41 74.9427ZM395.807 74.9427L390.807 74.891L390.807 74.9168L390.807 74.9427L395.807 74.9427ZM400.899 69.9015L400.846 74.9013L400.873 74.9015L400.899 74.9015L400.899 69.9015ZM400.899 68.4947L400.899 63.4947L400.873 63.4947L400.846 63.495L400.899 68.4947ZM395.807 63.4536L390.807 63.4536L390.807 63.4797L390.807 63.5059L395.807 63.4536ZM394.41 63.4536L399.41 63.5053L399.41 63.4795L399.41 63.4536L394.41 63.4536ZM389.318 68.4947L389.37 63.495L389.344 63.4947L389.318 63.4947L389.318 68.4947ZM389.318 69.9015L389.318 74.9015L389.344 74.9015L389.37 74.9013L389.318 69.9015ZM363.45 84.1456L368.45 84.1743L368.45 84.16L368.45 84.1456L363.45 84.1456ZM366.011 84.1456L361.011 84.1456L361.011 84.1599L361.011 84.1742L366.011 84.1456ZM375.206 93.29L375.206 88.29L375.191 88.29L375.177 88.2901L375.206 93.29ZM375.206 95.8692L375.177 100.869L375.191 100.869L375.206 100.869L375.206 95.8692ZM366.011 105.014L361.011 104.985L361.011 104.999L361.011 105.014L366.011 105.014ZM363.45 105.014L368.45 105.014L368.45 104.999L368.45 104.985L363.45 105.014ZM354.256 95.8692L354.256 100.869L354.27 100.869L354.285 100.869L354.256 95.8692ZM354.256 93.29L354.285 88.2901L354.27 88.29L354.256 88.29L354.256 93.29ZM326.264 28.6054L331.264 28.6474L331.264 28.6264L331.264 28.6054L326.264 28.6054ZM307.438 47.3044L307.466 42.3045L307.452 42.3044L307.438 42.3044L307.438 47.3044ZM307.438 52.58L307.438 57.58L307.452 57.58L307.466 57.58L307.438 52.58ZM326.264 71.2791L331.264 71.2791L331.264 71.2581L331.264 71.2371L326.264 71.2791ZM331.501 71.2791L326.502 71.2371L326.501 71.2581L326.501 71.2791L331.501 71.2791ZM350.327 52.58L350.299 57.58L350.313 57.58L350.327 57.58L350.327 52.58ZM350.327 47.3044L350.327 42.3044L350.313 42.3044L350.299 42.3045L350.327 47.3044ZM331.501 28.6054L326.501 28.6054L326.501 28.6265L326.502 28.6475L331.501 28.6054ZM282.036 20.9676C284.046 20.9676 285.61 22.5956 285.61 24.5315L275.61 24.5315C275.61 28.05 278.455 30.9676 282.036 30.9676L282.036 20.9676ZM278.461 24.5315C278.461 22.5956 280.026 20.9676 282.036 20.9676L282.036 30.9676C285.617 30.9676 288.461 28.05 288.461 24.5315L278.461 24.5315ZM293.672 9.42001C285.292 9.37605 278.548 16.1431 278.462 24.4798L288.461 24.5832C288.491 21.6653 290.826 19.4052 293.619 19.4199L293.672 9.42001ZM290.071 12.9838C290.071 11.0479 291.636 9.41995 293.646 9.41995L293.646 19.4199C297.227 19.4199 300.071 16.5023 300.071 12.9838L290.071 12.9838ZM293.646 16.5477C291.636 16.5477 290.071 14.9198 290.071 12.9838L300.071 12.9838C300.071 9.46517 297.227 6.54768 293.646 6.54768L293.646 16.5477ZM278.462 1.48784C278.548 9.82455 285.292 16.5916 293.672 16.5476L293.619 6.54775C290.826 6.56241 288.491 4.30231 288.461 1.38443L278.462 1.48784ZM282.036 5C280.026 5 278.461 3.37202 278.461 1.43613L288.461 1.43614C288.461 -2.08242 285.617 -5 282.036 -5L282.036 5ZM285.61 1.43614C285.61 3.37203 284.046 5 282.036 5L282.036 -5C278.455 -5 275.61 -2.08243 275.61 1.43613L285.61 1.43614ZM270.4 16.5476C278.779 16.5916 285.523 9.82456 285.61 1.48784L275.61 1.38443C275.58 4.30231 273.246 6.56241 270.452 6.54775L270.4 16.5476ZM274 12.9838C274 14.9198 272.436 16.5477 270.426 16.5477L270.426 6.54768C266.845 6.54768 264 9.46517 264 12.9838L274 12.9838ZM270.426 9.41994C272.436 9.41994 274 11.048 274 12.9838L264 12.9838C264 16.5023 266.845 19.4199 270.426 19.4199L270.426 9.41994ZM285.61 24.4798C285.523 16.1431 278.779 9.37605 270.4 9.42001L270.452 19.4199C273.246 19.4052 275.58 21.6653 275.61 24.5832L285.61 24.4798ZM285.794 79.72C285.794 82.8283 288.319 85.4234 291.492 85.4234L291.492 75.4234C293.91 75.4234 295.794 77.3738 295.794 79.72L285.794 79.72ZM285.754 79.6786C285.763 79.6785 285.765 79.6792 285.762 79.6788C285.76 79.6784 285.758 79.6777 285.756 79.6769C285.752 79.6754 285.756 79.6763 285.764 79.6842C285.772 79.6922 285.78 79.7025 285.784 79.7138C285.787 79.7191 285.789 79.7254 285.791 79.7333C285.792 79.741 285.794 79.7533 285.794 79.7717L295.794 79.6683C295.737 74.1505 291.261 69.6203 285.649 69.6792L285.754 79.6786ZM280.004 73.9755C280.004 77.0837 282.528 79.6789 285.702 79.6789L285.702 69.6789C288.119 69.6789 290.004 71.6293 290.004 73.9755L280.004 73.9755ZM285.702 68.2721C282.528 68.2721 280.004 70.8672 280.004 73.9755L290.004 73.9755C290.004 76.3217 288.119 78.2721 285.702 78.2721L285.702 68.2721ZM285.794 68.1792C285.794 68.1976 285.792 68.2099 285.791 68.2176C285.789 68.2255 285.787 68.2319 285.784 68.2372C285.78 68.2485 285.772 68.2588 285.764 68.2667C285.756 68.2746 285.752 68.2755 285.756 68.2741C285.758 68.2732 285.76 68.2725 285.762 68.2721C285.765 68.2717 285.763 68.2724 285.754 68.2723L285.649 78.2718C291.261 78.3307 295.737 73.8005 295.794 68.2827L285.794 68.1792ZM291.492 62.5275C288.319 62.5275 285.794 65.1227 285.794 68.2309L295.794 68.2309C295.794 70.5771 293.91 72.5275 291.492 72.5275L291.492 62.5275ZM297.191 68.2309C297.191 65.1227 294.666 62.5275 291.492 62.5275L291.492 72.5275C289.075 72.5275 287.191 70.5771 287.191 68.2309L297.191 68.2309ZM297.23 68.2723C297.227 68.2724 297.228 68.2721 297.233 68.273C297.238 68.2739 297.241 68.2752 297.243 68.2761C297.247 68.2777 297.24 68.2753 297.227 68.2628C297.215 68.2501 297.205 68.2349 297.199 68.221C297.194 68.2102 297.191 68.1982 297.19 68.1787L287.191 68.2832C287.248 73.752 291.704 78.3309 297.335 78.2718L297.23 68.2723ZM302.981 73.9755C302.981 70.8672 300.456 68.2721 297.283 68.2721L297.283 78.2721C294.866 78.2721 292.981 76.3217 292.981 73.9755L302.981 73.9755ZM297.283 79.6789C300.456 79.6789 302.981 77.0837 302.981 73.9755L292.981 73.9755C292.981 71.6293 294.865 69.6789 297.283 69.6789L297.283 79.6789ZM297.19 79.7717C297.191 79.7533 297.192 79.741 297.194 79.7333C297.196 79.7254 297.198 79.7191 297.2 79.7138C297.205 79.7025 297.212 79.6922 297.22 79.6842C297.228 79.6763 297.232 79.6754 297.229 79.6769C297.227 79.6777 297.224 79.6784 297.222 79.6788C297.22 79.6792 297.222 79.6785 297.23 79.6786L297.335 69.6792C291.723 69.6203 287.248 74.1505 287.191 79.6683L297.19 79.7717ZM291.492 85.4234C294.666 85.4234 297.191 82.8283 297.191 79.72L287.191 79.72C287.191 77.3737 289.075 75.4234 291.492 75.4234L291.492 85.4234ZM395.108 70.6461C397.526 70.6461 399.41 72.5965 399.41 74.9427L389.41 74.9427C389.41 78.0509 391.935 80.6461 395.108 80.6461L395.108 70.6461ZM390.807 74.9427C390.807 72.5964 392.691 70.6461 395.108 70.6461L395.108 80.6461C398.282 80.6461 400.807 78.051 400.807 74.9427L390.807 74.9427ZM400.951 64.9018C395.339 64.8429 390.864 69.3731 390.807 74.891L400.806 74.9944C400.807 74.976 400.809 74.9637 400.81 74.956C400.812 74.9481 400.814 74.9418 400.816 74.9364C400.821 74.9251 400.828 74.9148 400.836 74.9069C400.844 74.899 400.848 74.8981 400.845 74.8996C400.843 74.9004 400.84 74.9011 400.838 74.9015C400.836 74.9019 400.838 74.9012 400.846 74.9013L400.951 64.9018ZM396.597 69.1981C396.597 66.8519 398.482 64.9015 400.899 64.9015L400.899 74.9015C404.073 74.9015 406.597 72.3064 406.597 69.1981L396.597 69.1981ZM400.899 73.4947C398.481 73.4947 396.597 71.5443 396.597 69.1981L406.597 69.1981C406.597 66.0899 404.073 63.4947 400.899 63.4947L400.899 73.4947ZM390.807 63.5059C390.864 68.9746 395.32 73.5535 400.951 73.4945L400.846 63.495C400.843 63.495 400.844 63.4947 400.849 63.4957C400.854 63.4966 400.857 63.4979 400.86 63.4988C400.863 63.5003 400.856 63.498 400.843 63.4855C400.831 63.4728 400.821 63.4576 400.815 63.4437C400.81 63.4329 400.807 63.4209 400.806 63.4014L390.807 63.5059ZM395.108 67.7502C392.691 67.7502 390.807 65.7999 390.807 63.4536L400.807 63.4536C400.807 60.3452 398.282 57.7502 395.108 57.7502L395.108 67.7502ZM399.41 63.4536C399.41 65.7998 397.526 67.7502 395.108 67.7502L395.108 57.7502C391.935 57.7502 389.41 60.3453 389.41 63.4536L399.41 63.4536ZM389.266 73.4945C394.877 73.5533 399.353 69.0232 399.41 63.5053L389.41 63.4019C389.41 63.4203 389.408 63.4326 389.407 63.4403C389.405 63.4482 389.403 63.4545 389.4 63.4599C389.396 63.4711 389.389 63.4814 389.38 63.4894C389.373 63.4973 389.368 63.4982 389.372 63.4967C389.374 63.4959 389.376 63.4952 389.378 63.4948C389.381 63.4944 389.379 63.4951 389.37 63.495L389.266 73.4945ZM393.62 69.1981C393.62 71.5443 391.735 73.4947 389.318 73.4947L389.318 63.4947C386.144 63.4947 383.62 66.0899 383.62 69.1981L393.62 69.1981ZM389.318 64.9015C391.735 64.9015 393.62 66.8519 393.62 69.1981L383.62 69.1981C383.62 72.3064 386.144 74.9015 389.318 74.9015L389.318 64.9015ZM399.41 74.891C399.353 69.3731 394.877 64.8429 389.266 64.9018L389.37 74.9013C389.379 74.9012 389.381 74.9019 389.378 74.9015C389.376 74.9011 389.374 74.9004 389.372 74.8996C389.369 74.8981 389.373 74.899 389.38 74.9069C389.389 74.9148 389.396 74.9251 389.4 74.9364C389.403 74.9417 389.405 74.9481 389.407 74.956C389.408 74.9637 389.41 74.976 389.41 74.9944L399.41 74.891ZM364.731 77.856C361.237 77.856 358.45 80.715 358.45 84.1456L368.45 84.1456C368.45 86.1695 366.828 87.856 364.731 87.856L364.731 77.856ZM371.011 84.1456C371.011 80.715 368.224 77.856 364.731 77.856L364.731 87.856C362.633 87.856 361.011 86.1695 361.011 84.1456L371.011 84.1456ZM375.177 88.2901C372.92 88.3032 371.024 86.4711 371.011 84.1171L361.011 84.1742C361.056 92.0196 367.424 98.3354 375.235 98.2899L375.177 88.2901ZM381.486 94.5796C381.486 91.1489 378.7 88.29 375.206 88.29L375.206 98.29C373.109 98.29 371.486 96.6034 371.486 94.5796L381.486 94.5796ZM375.206 100.869C378.7 100.869 381.486 98.0102 381.486 94.5796L371.486 94.5796C371.486 92.5557 373.109 90.8692 375.206 90.8692L375.206 100.869ZM371.011 105.042C371.024 102.707 372.931 100.856 375.177 100.869L375.235 90.8692C367.413 90.8237 361.056 97.1794 361.011 104.985L371.011 105.042ZM364.731 111.303C368.224 111.303 371.011 108.444 371.011 105.014L361.011 105.014C361.011 102.99 362.633 101.303 364.731 101.303L364.731 111.303ZM358.45 105.014C358.45 108.444 361.237 111.303 364.731 111.303L364.731 101.303C366.828 101.303 368.45 102.99 368.45 105.014L358.45 105.014ZM354.285 100.869C356.541 100.856 358.437 102.688 358.45 105.042L368.45 104.985C368.406 97.1395 362.038 90.8238 354.226 90.8692L354.285 100.869ZM347.975 94.5796C347.975 98.0102 350.762 100.869 354.256 100.869L354.256 90.8692C356.353 90.8692 357.975 92.5557 357.975 94.5796L347.975 94.5796ZM354.256 88.29C350.762 88.29 347.975 91.1489 347.975 94.5796L357.975 94.5796C357.975 96.6034 356.353 98.29 354.256 98.29L354.256 88.29ZM358.45 84.117C358.437 86.4523 356.531 88.3032 354.285 88.2901L354.226 98.2899C362.048 98.3354 368.405 91.9798 368.45 84.1743L358.45 84.117ZM331.264 28.6054C331.264 29.8672 330.223 30.9676 328.883 30.9676L328.883 20.9676C324.632 20.9676 321.264 24.4127 321.264 28.6054L331.264 28.6054ZM307.409 52.3044C320.529 52.3788 331.153 41.7735 331.264 28.6474L321.264 28.5635C321.2 36.2466 315.005 42.3473 307.466 42.3045L307.409 52.3044ZM309.819 49.9422C309.819 51.204 308.778 52.3044 307.438 52.3044L307.438 42.3044C303.187 42.3044 299.819 45.7495 299.819 49.9422L309.819 49.9422ZM307.438 47.58C308.778 47.58 309.819 48.6804 309.819 49.9422L299.819 49.9422C299.819 54.1349 303.187 57.58 307.438 57.58L307.438 47.58ZM331.264 71.2371C331.153 58.111 320.529 47.5057 307.409 47.5801L307.466 57.58C315.005 57.5372 321.2 63.6379 321.264 71.321L331.264 71.2371ZM328.883 68.9169C330.223 68.9169 331.264 70.0173 331.264 71.2791L321.264 71.2791C321.264 75.4717 324.632 78.9169 328.883 78.9169L328.883 68.9169ZM326.501 71.2791C326.501 70.0173 327.542 68.9169 328.883 68.9169L328.883 78.9169C333.133 78.9169 336.501 75.4717 336.501 71.2791L326.501 71.2791ZM350.356 47.5801C337.236 47.5057 326.612 58.111 326.502 71.2371L336.501 71.321C336.566 63.6379 342.76 57.5372 350.299 57.58L350.356 47.5801ZM347.946 49.9422C347.946 48.6804 348.987 47.58 350.327 47.58L350.327 57.58C354.578 57.58 357.946 54.1349 357.946 49.9422L347.946 49.9422ZM350.327 52.3044C348.987 52.3044 347.946 51.204 347.946 49.9422L357.946 49.9422C357.946 45.7496 354.578 42.3044 350.327 42.3044L350.327 52.3044ZM326.502 28.6475C326.612 41.7391 337.231 52.3788 350.356 52.3044L350.299 42.3045C342.765 42.3473 336.566 36.2224 336.501 28.5633L326.502 28.6475ZM328.883 30.9676C327.542 30.9676 326.501 29.8672 326.501 28.6054L336.501 28.6054C336.501 24.4127 333.133 20.9676 328.883 20.9676L328.883 30.9676Z" fill="white" mask="url(#path-1-inside-1)"/>
<mask id="path-3-inside-2" fill="white">
<path fill-rule="evenodd" clip-rule="evenodd" d="M6.48873 160.88C6.11046 160.88 5.79039 161.202 5.79039 161.583C5.76129 164.397 3.49169 166.653 0.698338 166.624C0.320071 166.624 -1.39643e-06 166.946 -1.41309e-06 167.328C-1.42974e-06 167.709 0.320071 168.031 0.698338 168.031C3.49169 168.002 5.76129 170.258 5.79039 173.072C5.79039 173.453 6.11046 173.775 6.48873 173.775C6.867 173.775 7.18707 173.453 7.18707 173.072C7.21617 170.288 9.48577 168.002 12.2791 168.031C12.6574 168.031 12.9775 167.709 12.9775 167.328C12.9775 166.946 12.6574 166.624 12.2791 166.624C9.48577 166.653 7.21617 164.397 7.18707 161.583C7.18707 161.202 6.867 160.88 6.48873 160.88ZM109.406 166.36C109.406 165.979 109.727 165.657 110.105 165.657C110.483 165.657 110.803 165.979 110.803 166.36C110.832 169.174 113.102 171.431 115.895 171.401C116.273 171.401 116.594 171.724 116.594 172.105C116.594 172.486 116.273 172.808 115.895 172.808C113.102 172.779 110.832 175.065 110.803 177.849C110.803 178.23 110.483 178.553 110.105 178.553C109.726 178.553 109.406 178.23 109.406 177.849C109.377 175.036 107.108 172.779 104.314 172.808C103.936 172.808 103.616 172.486 103.616 172.105C103.616 171.724 103.936 171.401 104.314 171.401C107.108 171.431 109.377 169.174 109.406 166.36ZM78.4467 157.157C78.4467 157.861 79.0287 158.447 79.727 158.447C80.4254 158.447 81.0073 157.861 81.0073 157.157C81.0364 152.058 85.1683 147.984 90.2021 148.013C90.9005 148.013 91.4824 147.427 91.4824 146.723C91.4824 146.02 90.9005 145.434 90.2021 145.434C85.1683 145.463 81.0364 141.36 81.0073 136.289C81.0073 135.586 80.4254 135 79.727 135C79.0287 135 78.4467 135.586 78.4467 136.289C78.4176 141.389 74.2858 145.463 69.2519 145.434C68.5536 145.434 67.9717 146.02 67.9717 146.723C67.9717 147.427 68.5536 148.013 69.2519 148.013C74.2858 147.984 78.4176 152.087 78.4467 157.157ZM43.879 215.335C42.4241 215.335 41.2602 214.163 41.2602 212.698C41.1729 202.293 32.7637 193.94 22.4341 193.999C20.9793 193.999 19.8154 192.826 19.8154 191.361C19.8154 189.895 20.9793 188.723 22.4341 188.723C32.7637 188.782 41.1729 180.429 41.2602 170.024C41.2602 168.558 42.4241 167.386 43.879 167.386C45.3338 167.386 46.4977 168.558 46.4977 170.024C46.585 180.429 54.9942 188.782 65.3238 188.723C66.7787 188.723 67.9426 189.895 67.9426 191.361C67.9426 192.826 66.7787 193.999 65.3238 193.999C54.9942 193.94 46.585 202.322 46.4977 212.698C46.4977 214.163 45.3338 215.335 43.879 215.335Z"/>
</mask>
<path d="M5.79039 161.583L10.7904 161.583L10.7904 161.609L10.7901 161.635L5.79039 161.583ZM0.698338 166.624L0.698338 161.624L0.724568 161.624L0.750796 161.624L0.698338 166.624ZM0.698338 168.031L0.750803 173.031L0.724571 173.031L0.698338 173.031L0.698338 168.031ZM5.79039 173.072L10.7901 173.02L10.7904 173.046L10.7904 173.072L5.79039 173.072ZM7.18707 173.072L2.18707 173.072L2.18707 173.046L2.18734 173.02L7.18707 173.072ZM12.2791 168.031L12.2791 173.031L12.2529 173.031L12.2267 173.031L12.2791 168.031ZM12.2791 166.624L12.2267 161.624L12.2529 161.624L12.2791 161.624L12.2791 166.624ZM7.18707 161.583L2.18734 161.635L2.18707 161.609L2.18707 161.583L7.18707 161.583ZM109.406 166.36L114.406 166.36L114.406 166.386L114.406 166.412L109.406 166.36ZM110.803 166.36L105.803 166.412L105.803 166.386L105.803 166.36L110.803 166.36ZM115.895 171.401L115.843 166.402L115.869 166.401L115.895 166.401L115.895 171.401ZM115.895 172.808L115.895 177.808L115.869 177.808L115.843 177.808L115.895 172.808ZM110.803 177.849L105.803 177.849L105.803 177.823L105.803 177.797L110.803 177.849ZM109.406 177.849L114.406 177.798L114.406 177.824L114.406 177.849L109.406 177.849ZM104.314 172.808L104.367 177.808L104.341 177.808L104.314 177.808L104.314 172.808ZM104.314 171.401L104.314 166.401L104.341 166.401L104.367 166.402L104.314 171.401ZM78.4467 157.157L83.4467 157.129L83.4467 157.143L83.4467 157.157L78.4467 157.157ZM81.0073 157.157L76.0073 157.157L76.0073 157.143L76.0074 157.129L81.0073 157.157ZM90.2021 148.013L90.2021 153.013L90.1876 153.013L90.173 153.013L90.2021 148.013ZM90.2021 145.434L90.173 140.434L90.1876 140.434L90.2021 140.434L90.2021 145.434ZM81.0073 136.289L76.0074 136.318L76.0073 136.304L76.0073 136.289L81.0073 136.289ZM78.4467 136.289L83.4467 136.289L83.4467 136.304L83.4467 136.318L78.4467 136.289ZM69.2519 145.434L69.2519 140.434L69.2665 140.434L69.2811 140.434L69.2519 145.434ZM69.2519 148.013L69.2811 153.013L69.2665 153.013L69.2519 153.013L69.2519 148.013ZM41.2602 212.698L46.26 212.656L46.2602 212.677L46.2602 212.698L41.2602 212.698ZM22.4341 193.999L22.4625 198.998L22.4483 198.999L22.4341 198.999L22.4341 193.999ZM22.4341 188.723L22.4341 183.723L22.4483 183.723L22.4625 183.723L22.4341 188.723ZM41.2602 170.024L46.2602 170.024L46.2602 170.045L46.26 170.066L41.2602 170.024ZM46.4977 170.024L41.4979 170.066L41.4977 170.045L41.4977 170.024L46.4977 170.024ZM65.3238 188.723L65.2954 183.723L65.3096 183.723L65.3238 183.723L65.3238 188.723ZM65.3238 193.999L65.3238 198.999L65.3096 198.999L65.2954 198.998L65.3238 193.999ZM46.4977 212.698L41.4977 212.698L41.4977 212.677L41.4979 212.655L46.4977 212.698ZM0.790393 161.583C0.790393 158.475 3.31499 155.88 6.48873 155.88L6.48873 165.88C8.90594 165.88 10.7904 163.929 10.7904 161.583L0.790393 161.583ZM0.750796 161.624C0.758932 161.624 0.760966 161.624 0.758719 161.624C0.756764 161.625 0.754379 161.625 0.752422 161.626C0.748854 161.628 0.75289 161.627 0.760839 161.619C0.768873 161.611 0.776003 161.601 0.780844 161.589C0.783132 161.584 0.785262 161.578 0.78695 161.57C0.788582 161.562 0.79047 161.55 0.79066 161.531L10.7901 161.635C10.7331 167.153 6.25783 171.683 0.64588 171.624L0.750796 161.624ZM-5 167.328C-5 164.219 -2.47543 161.624 0.698338 161.624L0.698338 171.624C3.11557 171.624 5 169.674 5 167.328L-5 167.328ZM0.698338 173.031C-2.4754 173.031 -5 170.436 -5 167.328L5 167.328C5 164.981 3.11554 163.031 0.698338 163.031L0.698338 173.031ZM0.79066 173.124C0.79047 173.105 0.788582 173.093 0.78695 173.085C0.785261 173.077 0.783131 173.071 0.780843 173.066C0.776002 173.055 0.768873 173.044 0.760839 173.036C0.752891 173.028 0.748856 173.027 0.752424 173.029C0.754382 173.03 0.756768 173.03 0.758723 173.031C0.760971 173.031 0.758937 173.031 0.750803 173.031L0.645874 163.031C6.25783 162.972 10.7331 167.502 10.7901 173.02L0.79066 173.124ZM6.48873 178.775C3.31494 178.775 0.790392 176.18 0.790392 173.072L10.7904 173.072C10.7904 170.726 8.90598 168.775 6.48873 168.775L6.48873 178.775ZM12.1871 173.072C12.1871 176.18 9.6625 178.775 6.48873 178.775L6.48873 168.775C4.0715 168.775 2.18707 170.726 2.18707 173.072L12.1871 173.072ZM12.2267 173.031C12.223 173.031 12.2245 173.031 12.2294 173.03C12.2339 173.029 12.2377 173.028 12.2399 173.027C12.2436 173.025 12.2363 173.028 12.2237 173.04C12.211 173.053 12.201 173.068 12.195 173.082C12.1903 173.093 12.187 173.105 12.1868 173.124L2.18734 173.02C2.24449 167.551 6.70058 162.972 12.3316 163.031L12.2267 173.031ZM17.9775 167.328C17.9775 170.436 15.4529 173.031 12.2791 173.031L12.2791 163.031C9.86192 163.031 7.97746 164.981 7.97746 167.328L17.9775 167.328ZM12.2791 161.624C15.4529 161.624 17.9775 164.219 17.9775 167.328L7.97746 167.328C7.97746 169.674 9.86189 171.624 12.2791 171.624L12.2791 161.624ZM12.1868 161.531C12.187 161.55 12.1889 161.562 12.1905 161.57C12.1922 161.578 12.1943 161.584 12.1966 161.589C12.2015 161.601 12.2086 161.611 12.2166 161.619C12.2246 161.627 12.2286 161.628 12.225 161.626C12.2231 161.625 12.2207 161.625 12.2187 161.624C12.2165 161.624 12.2185 161.624 12.2267 161.624L12.3316 171.624C6.71963 171.683 2.2444 167.153 2.18734 161.635L12.1868 161.531ZM6.48873 155.88C9.66246 155.88 12.1871 158.475 12.1871 161.583L2.18707 161.583C2.18707 163.929 4.07154 165.88 6.48873 165.88L6.48873 155.88ZM110.105 170.657C112.522 170.657 114.406 168.706 114.406 166.36L104.406 166.36C104.406 163.252 106.931 160.657 110.105 160.657L110.105 170.657ZM105.803 166.36C105.803 168.707 107.688 170.657 110.105 170.657L110.105 160.657C113.278 160.657 115.803 163.252 115.803 166.36L105.803 166.36ZM115.948 176.401C110.336 176.46 105.86 171.93 105.803 166.412L115.803 166.309C115.803 166.327 115.805 166.339 115.807 166.347C115.808 166.355 115.81 166.361 115.813 166.367C115.818 166.378 115.825 166.388 115.833 166.396C115.841 166.404 115.845 166.405 115.841 166.403C115.839 166.403 115.837 166.402 115.835 166.402C115.833 166.401 115.835 166.402 115.843 166.402L115.948 176.401ZM111.594 172.105C111.594 174.451 113.478 176.401 115.895 176.401L115.895 166.401C119.069 166.401 121.594 168.997 121.594 172.105L111.594 172.105ZM115.895 167.808C113.478 167.808 111.594 169.759 111.594 172.105L121.594 172.105C121.594 175.213 119.069 177.808 115.895 177.808L115.895 167.808ZM105.803 177.797C105.861 172.328 110.317 167.749 115.948 167.809L115.843 177.808C115.839 177.808 115.841 177.808 115.845 177.807C115.85 177.806 115.854 177.805 115.856 177.804C115.86 177.803 115.852 177.805 115.84 177.818C115.827 177.83 115.817 177.845 115.811 177.859C115.806 177.87 115.803 177.882 115.803 177.902L105.803 177.797ZM110.105 173.553C107.688 173.553 105.803 175.503 105.803 177.849L115.803 177.849C115.803 180.958 113.278 183.553 110.105 183.553L110.105 173.553ZM114.406 177.849C114.406 175.503 112.522 173.553 110.105 173.553L110.105 183.553C106.931 183.553 104.406 180.958 104.406 177.849L114.406 177.849ZM104.262 167.809C109.874 167.75 114.349 172.28 114.406 177.798L104.407 177.901C104.407 177.883 104.405 177.87 104.403 177.863C104.401 177.855 104.399 177.848 104.397 177.843C104.392 177.832 104.385 177.822 104.377 177.814C104.369 177.806 104.365 177.805 104.368 177.806C104.37 177.807 104.373 177.808 104.375 177.808C104.377 177.809 104.375 177.808 104.367 177.808L104.262 167.809ZM108.616 172.105C108.616 169.759 106.732 167.808 104.314 167.808L104.314 177.808C101.141 177.808 98.616 175.213 98.616 172.105L108.616 172.105ZM104.314 176.401C106.732 176.401 108.616 174.451 108.616 172.105L98.616 172.105C98.616 168.997 101.141 166.401 104.314 166.401L104.314 176.401ZM114.406 166.412C114.349 171.93 109.874 176.46 104.262 176.401L104.367 166.402C104.375 166.402 104.377 166.401 104.375 166.402C104.373 166.402 104.37 166.403 104.368 166.403C104.365 166.405 104.369 166.404 104.377 166.396C104.385 166.388 104.392 166.378 104.397 166.367C104.399 166.361 104.401 166.355 104.403 166.347C104.405 166.339 104.407 166.327 104.407 166.309L114.406 166.412ZM79.727 163.447C76.2332 163.447 73.4467 160.588 73.4467 157.157L83.4467 157.157C83.4467 155.134 81.8242 153.447 79.727 153.447L79.727 163.447ZM86.0073 157.157C86.0073 160.588 83.2209 163.447 79.727 163.447L79.727 153.447C77.6299 153.447 76.0073 155.134 76.0073 157.157L86.0073 157.157ZM90.173 153.013C87.9166 153 86.0207 154.832 86.0072 157.186L76.0074 157.129C76.0522 149.283 82.4199 142.968 90.2312 143.013L90.173 153.013ZM96.4824 146.723C96.4824 150.154 93.6959 153.013 90.2021 153.013L90.2021 143.013C88.105 143.013 86.4824 144.7 86.4824 146.723L96.4824 146.723ZM90.2021 140.434C93.6959 140.434 96.4824 143.293 96.4824 146.723L86.4824 146.723C86.4824 148.747 88.105 150.434 90.2021 150.434L90.2021 140.434ZM86.0072 136.261C86.0206 138.596 87.9271 140.447 90.173 140.434L90.2312 150.434C82.4094 150.479 76.0522 144.124 76.0074 136.318L86.0072 136.261ZM79.727 130C83.2208 130 86.0073 132.859 86.0073 136.289L76.0073 136.289C76.0073 138.313 77.6299 140 79.727 140L79.727 130ZM73.4467 136.289C73.4467 132.859 76.2332 130 79.727 130L79.727 140C81.8242 140 83.4467 138.313 83.4467 136.289L73.4467 136.289ZM69.2811 140.434C71.5375 140.447 73.4334 138.615 73.4468 136.261L83.4467 136.318C83.4019 144.163 77.0341 150.479 69.2228 150.434L69.2811 140.434ZM62.9717 146.723C62.9717 143.293 65.7581 140.434 69.2519 140.434L69.2519 150.434C71.3491 150.434 72.9717 148.747 72.9717 146.723L62.9717 146.723ZM69.2519 153.013C65.7581 153.013 62.9717 150.154 62.9717 146.723L72.9717 146.723C72.9717 144.7 71.3491 143.013 69.2519 143.013L69.2519 153.013ZM73.4468 157.186C73.4334 154.851 71.527 153 69.2811 153.013L69.2228 143.013C77.0446 142.968 83.4019 149.323 83.4467 157.129L73.4468 157.186ZM46.2602 212.698C46.2602 211.436 45.2196 210.335 43.879 210.335L43.879 220.335C39.6286 220.335 36.2602 216.89 36.2602 212.698L46.2602 212.698ZM22.4058 188.999C35.5258 188.924 46.1499 199.529 46.26 212.656L36.2604 212.74C36.1959 205.056 30.0017 198.956 22.4625 198.998L22.4058 188.999ZM24.8154 191.361C24.8154 190.099 23.7747 188.999 22.4341 188.999L22.4341 198.999C18.1838 198.999 14.8154 195.553 14.8154 191.361L24.8154 191.361ZM22.4341 193.723C23.7747 193.723 24.8154 192.623 24.8154 191.361L14.8154 191.361C14.8154 187.168 18.1838 183.723 22.4341 183.723L22.4341 193.723ZM46.26 170.066C46.1499 183.192 35.5258 193.797 22.4058 193.723L22.4625 183.723C30.0017 183.766 36.1959 177.665 36.2604 169.982L46.26 170.066ZM43.879 172.386C45.2196 172.386 46.2602 171.286 46.2602 170.024L36.2602 170.024C36.2602 165.831 39.6286 162.386 43.879 162.386L43.879 172.386ZM41.4977 170.024C41.4977 171.286 42.5384 172.386 43.879 172.386L43.879 162.386C48.1293 162.386 51.4977 165.831 51.4977 170.024L41.4977 170.024ZM65.3522 193.723C52.2321 193.797 41.608 183.192 41.4979 170.066L51.4976 169.982C51.562 177.665 57.7563 183.766 65.2954 183.723L65.3522 193.723ZM62.9426 191.361C62.9426 192.623 63.9832 193.723 65.3238 193.723L65.3238 183.723C69.5742 183.723 72.9426 187.168 72.9426 191.361L62.9426 191.361ZM65.3238 188.999C63.9832 188.999 62.9426 190.099 62.9426 191.361L72.9426 191.361C72.9426 195.553 69.5741 198.999 65.3238 198.999L65.3238 188.999ZM41.4979 212.655C41.6081 199.564 52.227 188.924 65.3522 188.999L65.2954 198.998C57.7614 198.956 51.562 205.081 51.4976 212.74L41.4979 212.655ZM43.879 210.335C42.5383 210.335 41.4977 211.436 41.4977 212.698L51.4977 212.698C51.4977 216.89 48.1293 220.335 43.879 220.335L43.879 210.335Z" fill="white" mask="url(#path-3-inside-2)"/>
<mask id="path-5-inside-3" fill="white">
<path d="M315.397 152.653C313.199 150.713 310.551 149.413 307.737 148.839C306.755 146.602 305.29 144.624 303.483 143.03V137.468C303.483 114.993 294.673 93.8047 278.676 77.8078C262.678 61.8097 241.49 52.9999 219.014 52.9999C196.539 52.9999 175.351 61.8097 159.354 77.8074C143.356 93.8051 134.546 114.993 134.546 137.468C134.546 137.468 134.557 196.824 134.575 197.01C133.825 198.12 133.188 199.314 132.686 200.576C123.797 202.057 117 209.803 117 219.107C117 224.491 119.314 229.622 123.347 233.184C125.989 235.517 129.205 237.036 132.613 237.622C135.331 244.707 142.226 249.711 150.164 249.711C152.999 249.711 155.768 249.061 158.273 247.861C162.314 253.483 168.884 257 176.208 257C183.532 257 190.101 253.483 194.143 247.861C196.648 249.061 199.416 249.711 202.252 249.711C210.189 249.711 217.084 244.706 219.803 237.621C223.21 237.036 226.427 235.517 229.069 233.184C233.102 229.621 235.416 224.49 235.416 219.106C235.416 213.72 233.1 208.587 229.062 205.023C226.403 202.677 223.162 201.155 219.731 200.58C216.957 193.593 210.09 188.661 202.252 188.661C199.482 188.661 196.773 189.286 194.312 190.436V137.469C194.312 123.848 205.394 112.766 219.015 112.766C232.636 112.766 243.718 123.848 243.718 137.469V139.92C239.53 141.497 236.104 144.731 234.301 148.835C226.742 150.37 221.036 157.067 221.036 165.072C221.036 169.819 223.076 174.344 226.633 177.486C228.814 179.412 231.44 180.709 234.231 181.29C236.765 187.25 242.693 191.408 249.488 191.408C251.698 191.408 253.862 190.96 255.859 190.126C259.419 194.642 264.919 197.434 271.018 197.434C277.118 197.434 282.617 194.642 286.177 190.126C288.175 190.96 290.339 191.408 292.549 191.408C299.344 191.408 305.272 187.25 307.806 181.29C310.597 180.709 313.223 179.412 315.403 177.486C318.96 174.344 321 169.819 321 165.072C321 160.321 318.958 155.795 315.397 152.653ZM219.014 64.953C259 64.953 291.53 97.4834 291.53 137.468V138.902C289.688 139.017 287.89 139.439 286.21 140.136C284.411 137.854 282.115 135.994 279.511 134.705C278.062 102.589 251.483 76.9061 219.014 76.9061C185.62 76.9061 158.452 104.074 158.452 137.469V189.935C158.452 190.02 158.461 190.102 158.465 190.186C158.388 190.289 158.306 190.388 158.231 190.492C155.736 189.305 152.982 188.661 150.164 188.661C148.913 188.661 147.688 188.787 146.5 189.027V137.468C146.499 97.4834 179.03 64.953 219.014 64.953ZM196.754 203.387C198.061 201.625 200.064 200.614 202.252 200.614C205.785 200.614 208.777 203.366 209.062 206.88C209.194 208.505 209.985 210.006 211.25 211.035C212.515 212.062 214.145 212.529 215.763 212.327C217.745 212.077 219.658 212.667 221.152 213.986C222.642 215.3 223.462 217.119 223.462 219.107C223.462 221.093 222.643 222.912 221.155 224.226C219.662 225.544 217.75 226.135 215.769 225.888C214.137 225.685 212.498 226.162 211.23 227.206C209.963 228.25 209.181 229.769 209.068 231.407C208.822 234.969 205.828 237.758 202.251 237.758C200.054 237.758 198.045 236.74 196.74 234.965C195.356 233.083 193.001 232.18 190.711 232.655C188.422 233.13 186.62 234.896 186.099 237.175C185.058 241.736 180.897 245.047 176.208 245.047C171.519 245.047 167.358 241.736 166.316 237.175C165.795 234.896 163.993 233.13 161.705 232.655C161.299 232.57 160.893 232.529 160.489 232.529C158.612 232.529 156.815 233.416 155.675 234.965C154.37 236.74 152.361 237.758 150.164 237.758C146.587 237.758 143.593 234.968 143.347 231.407C143.234 229.769 142.452 228.25 141.185 227.206C139.917 226.162 138.275 225.685 136.647 225.888C134.665 226.135 132.753 225.544 131.26 224.225C129.773 222.911 128.953 221.093 128.953 219.106C128.953 215.338 132.019 212.272 135.787 212.272C136.076 212.272 136.366 212.29 136.651 212.326C138.272 212.529 139.899 212.063 141.165 211.035C142.43 210.007 143.22 208.506 143.352 206.881C143.638 203.367 146.63 200.614 150.164 200.614C152.351 200.614 154.354 201.625 155.66 203.387C157.055 205.269 159.42 206.163 161.711 205.674C164.001 205.184 165.795 203.402 166.299 201.115C167.314 196.509 171.481 193.167 176.208 193.167C180.934 193.167 185.101 196.509 186.116 201.115C186.62 203.402 188.414 205.185 190.704 205.674C192.995 206.162 195.36 205.27 196.754 203.387ZM219.014 100.813C198.802 100.813 182.358 117.257 182.358 137.469V182.109C180.391 181.531 178.327 181.213 176.207 181.213C174.213 181.213 172.267 181.496 170.405 182.01V137.469C170.405 110.665 192.211 88.8593 219.014 88.8593C244.331 88.8593 265.185 108.315 267.421 133.059C262.805 133.948 258.685 136.507 255.825 140.137C255.774 140.115 255.722 140.097 255.67 140.076V137.469C255.671 117.257 239.227 100.813 219.014 100.813ZM307.49 168.527C306.906 169.043 305.656 169.874 303.851 169.65C302.222 169.446 300.58 169.923 299.313 170.967C298.045 172.011 297.263 173.531 297.15 175.169C296.984 177.572 294.963 179.455 292.548 179.455C291.065 179.455 289.708 178.767 288.826 177.568C287.44 175.685 285.085 174.782 282.796 175.258C280.507 175.733 278.705 177.499 278.185 179.778C277.43 183.083 274.416 185.481 271.018 185.481C267.619 185.481 264.604 183.082 263.849 179.778C263.328 177.499 261.527 175.733 259.238 175.258C258.833 175.174 258.426 175.133 258.023 175.133C256.146 175.133 254.348 176.019 253.208 177.569C252.327 178.767 250.97 179.455 249.487 179.455C247.072 179.455 245.051 177.572 244.884 175.169C244.772 173.531 243.99 172.011 242.722 170.967C241.455 169.924 239.816 169.446 238.184 169.65C236.379 169.872 235.129 169.042 234.545 168.527C233.964 168.013 232.988 166.881 232.988 165.072C232.988 162.527 235.057 160.458 237.602 160.458C237.797 160.458 237.996 160.47 238.19 160.494C239.808 160.699 241.437 160.23 242.702 159.201C243.967 158.173 244.757 156.673 244.888 155.048C245.081 152.677 247.101 150.82 249.487 150.82C250.963 150.82 252.317 151.503 253.199 152.694C254.594 154.576 256.958 155.469 259.249 154.98C261.54 154.49 263.333 152.708 263.837 150.421C264.573 147.085 267.592 144.663 271.018 144.663C274.443 144.663 277.462 147.085 278.197 150.421C278.701 152.708 280.495 154.49 282.785 154.98C285.074 155.467 287.441 154.575 288.836 152.694C289.719 151.503 291.071 150.82 292.548 150.82C294.934 150.82 296.953 152.677 297.146 155.048C297.278 156.673 298.068 158.174 299.333 159.202C300.599 160.23 302.228 160.696 303.846 160.494C305.651 160.266 306.903 161.1 307.488 161.615C308.07 162.129 309.047 163.261 309.047 165.072C309.047 166.881 308.072 168.013 307.49 168.527Z"/>
</mask>
<path d="M315.397 152.653C313.199 150.713 310.551 149.413 307.737 148.839C306.755 146.602 305.29 144.624 303.483 143.03V137.468C303.483 114.993 294.673 93.8047 278.676 77.8078C262.678 61.8097 241.49 52.9999 219.014 52.9999C196.539 52.9999 175.351 61.8097 159.354 77.8074C143.356 93.8051 134.546 114.993 134.546 137.468C134.546 137.468 134.557 196.824 134.575 197.01C133.825 198.12 133.188 199.314 132.686 200.576C123.797 202.057 117 209.803 117 219.107C117 224.491 119.314 229.622 123.347 233.184C125.989 235.517 129.205 237.036 132.613 237.622C135.331 244.707 142.226 249.711 150.164 249.711C152.999 249.711 155.768 249.061 158.273 247.861C162.314 253.483 168.884 257 176.208 257C183.532 257 190.101 253.483 194.143 247.861C196.648 249.061 199.416 249.711 202.252 249.711C210.189 249.711 217.084 244.706 219.803 237.621C223.21 237.036 226.427 235.517 229.069 233.184C233.102 229.621 235.416 224.49 235.416 219.106C235.416 213.72 233.1 208.587 229.062 205.023C226.403 202.677 223.162 201.155 219.731 200.58C216.957 193.593 210.09 188.661 202.252 188.661C199.482 188.661 196.773 189.286 194.312 190.436V137.469C194.312 123.848 205.394 112.766 219.015 112.766C232.636 112.766 243.718 123.848 243.718 137.469V139.92C239.53 141.497 236.104 144.731 234.301 148.835C226.742 150.37 221.036 157.067 221.036 165.072C221.036 169.819 223.076 174.344 226.633 177.486C228.814 179.412 231.44 180.709 234.231 181.29C236.765 187.25 242.693 191.408 249.488 191.408C251.698 191.408 253.862 190.96 255.859 190.126C259.419 194.642 264.919 197.434 271.018 197.434C277.118 197.434 282.617 194.642 286.177 190.126C288.175 190.96 290.339 191.408 292.549 191.408C299.344 191.408 305.272 187.25 307.806 181.29C310.597 180.709 313.223 179.412 315.403 177.486C318.96 174.344 321 169.819 321 165.072C321 160.321 318.958 155.795 315.397 152.653ZM219.014 64.953C259 64.953 291.53 97.4834 291.53 137.468V138.902C289.688 139.017 287.89 139.439 286.21 140.136C284.411 137.854 282.115 135.994 279.511 134.705C278.062 102.589 251.483 76.9061 219.014 76.9061C185.62 76.9061 158.452 104.074 158.452 137.469V189.935C158.452 190.02 158.461 190.102 158.465 190.186C158.388 190.289 158.306 190.388 158.231 190.492C155.736 189.305 152.982 188.661 150.164 188.661C148.913 188.661 147.688 188.787 146.5 189.027V137.468C146.499 97.4834 179.03 64.953 219.014 64.953ZM196.754 203.387C198.061 201.625 200.064 200.614 202.252 200.614C205.785 200.614 208.777 203.366 209.062 206.88C209.194 208.505 209.985 210.006 211.25 211.035C212.515 212.062 214.145 212.529 215.763 212.327C217.745 212.077 219.658 212.667 221.152 213.986C222.642 215.3 223.462 217.119 223.462 219.107C223.462 221.093 222.643 222.912 221.155 224.226C219.662 225.544 217.75 226.135 215.769 225.888C214.137 225.685 212.498 226.162 211.23 227.206C209.963 228.25 209.181 229.769 209.068 231.407C208.822 234.969 205.828 237.758 202.251 237.758C200.054 237.758 198.045 236.74 196.74 234.965C195.356 233.083 193.001 232.18 190.711 232.655C188.422 233.13 186.62 234.896 186.099 237.175C185.058 241.736 180.897 245.047 176.208 245.047C171.519 245.047 167.358 241.736 166.316 237.175C165.795 234.896 163.993 233.13 161.705 232.655C161.299 232.57 160.893 232.529 160.489 232.529C158.612 232.529 156.815 233.416 155.675 234.965C154.37 236.74 152.361 237.758 150.164 237.758C146.587 237.758 143.593 234.968 143.347 231.407C143.234 229.769 142.452 228.25 141.185 227.206C139.917 226.162 138.275 225.685 136.647 225.888C134.665 226.135 132.753 225.544 131.26 224.225C129.773 222.911 128.953 221.093 128.953 219.106C128.953 215.338 132.019 212.272 135.787 212.272C136.076 212.272 136.366 212.29 136.651 212.326C138.272 212.529 139.899 212.063 141.165 211.035C142.43 210.007 143.22 208.506 143.352 206.881C143.638 203.367 146.63 200.614 150.164 200.614C152.351 200.614 154.354 201.625 155.66 203.387C157.055 205.269 159.42 206.163 161.711 205.674C164.001 205.184 165.795 203.402 166.299 201.115C167.314 196.509 171.481 193.167 176.208 193.167C180.934 193.167 185.101 196.509 186.116 201.115C186.62 203.402 188.414 205.185 190.704 205.674C192.995 206.162 195.36 205.27 196.754 203.387ZM219.014 100.813C198.802 100.813 182.358 117.257 182.358 137.469V182.109C180.391 181.531 178.327 181.213 176.207 181.213C174.213 181.213 172.267 181.496 170.405 182.01V137.469C170.405 110.665 192.211 88.8593 219.014 88.8593C244.331 88.8593 265.185 108.315 267.421 133.059C262.805 133.948 258.685 136.507 255.825 140.137C255.774 140.115 255.722 140.097 255.67 140.076V137.469C255.671 117.257 239.227 100.813 219.014 100.813ZM307.49 168.527C306.906 169.043 305.656 169.874 303.851 169.65C302.222 169.446 300.58 169.923 299.313 170.967C298.045 172.011 297.263 173.531 297.15 175.169C296.984 177.572 294.963 179.455 292.548 179.455C291.065 179.455 289.708 178.767 288.826 177.568C287.44 175.685 285.085 174.782 282.796 175.258C280.507 175.733 278.705 177.499 278.185 179.778C277.43 183.083 274.416 185.481 271.018 185.481C267.619 185.481 264.604 183.082 263.849 179.778C263.328 177.499 261.527 175.733 259.238 175.258C258.833 175.174 258.426 175.133 258.023 175.133C256.146 175.133 254.348 176.019 253.208 177.569C252.327 178.767 250.97 179.455 249.487 179.455C247.072 179.455 245.051 177.572 244.884 175.169C244.772 173.531 243.99 172.011 242.722 170.967C241.455 169.924 239.816 169.446 238.184 169.65C236.379 169.872 235.129 169.042 234.545 168.527C233.964 168.013 232.988 166.881 232.988 165.072C232.988 162.527 235.057 160.458 237.602 160.458C237.797 160.458 237.996 160.47 238.19 160.494C239.808 160.699 241.437 160.23 242.702 159.201C243.967 158.173 244.757 156.673 244.888 155.048C245.081 152.677 247.101 150.82 249.487 150.82C250.963 150.82 252.317 151.503 253.199 152.694C254.594 154.576 256.958 155.469 259.249 154.98C261.54 154.49 263.333 152.708 263.837 150.421C264.573 147.085 267.592 144.663 271.018 144.663C274.443 144.663 277.462 147.085 278.197 150.421C278.701 152.708 280.495 154.49 282.785 154.98C285.074 155.467 287.441 154.575 288.836 152.694C289.719 151.503 291.071 150.82 292.548 150.82C294.934 150.82 296.953 152.677 297.146 155.048C297.278 156.673 298.068 158.174 299.333 159.202C300.599 160.23 302.228 160.696 303.846 160.494C305.651 160.266 306.903 161.1 307.488 161.615C308.07 162.129 309.047 163.261 309.047 165.072C309.047 166.881 308.072 168.013 307.49 168.527Z" fill="white" stroke="#FFCB66" stroke-width="6" mask="url(#path-5-inside-3)"/>
</svg>
